<svg width="40" height="40" viewBox="0 0 40 40" fill="none" xmlns="http://www.w3.org/2000/svg">
<g clip-path="url(#clip0_223_3384)">
<path d="M40 20.1222C40 9.0091 31.0456 0 20 0C8.95437 0 0 9.00894 0 20.1222C0 30.1657 7.31375 38.4905 16.875 40V25.9388H11.7969V20.1222H16.875V15.689C16.875 10.6459 19.8609 7.86024 24.4292 7.86024C26.6175 7.86024 28.9062 8.25326 28.9062 8.25326V13.2052H26.3844C23.8997 13.2052 23.125 14.7564 23.125 16.3477V20.1222H28.6719L27.7852 25.9388H23.125V40C32.6862 38.4905 40 30.1659 40 20.1222Z" fill="#0B2B81"/>
</g>
<defs>
<clipPath id="clip0_223_3384">
<rect width="40" height="40" fill="white"/>
</clipPath>
</defs>
</svg>
