<svg width="40" height="40" viewBox="0 0 40 40" fill="none" xmlns="http://www.w3.org/2000/svg">
<g clip-path="url(#clip0_223_3388)">
<circle cx="20" cy="20" r="20" fill="#0B2B81"/>
<path fill-rule="evenodd" clip-rule="evenodd" d="M13.7214 8.07179C10.7785 8.47895 8.46889 10.8067 8.07278 13.7648C7.97574 14.4896 7.97574 25.5059 8.07278 26.2307C8.26891 27.6952 8.91509 29.0046 9.955 30.0446C10.992 31.0819 12.308 31.7316 13.7683 31.9272C14.4929 32.0243 25.5071 32.0243 26.2317 31.9272C29.2106 31.5282 31.5282 29.21 31.9272 26.2307C32.0243 25.5059 32.0243 14.4896 31.9272 13.7648C31.5282 10.7855 29.2106 8.46733 26.2317 8.06828C25.5362 7.97511 14.3976 7.97825 13.7214 8.07179ZM25.7251 10.157C26.8709 10.2657 27.8106 10.7077 28.5796 11.4997C29.3305 12.273 29.7335 13.1601 29.8389 14.2715C29.9026 14.9438 29.9026 25.0516 29.8389 25.724C29.7335 26.8354 29.3305 27.7225 28.5796 28.4958C27.8106 29.2878 26.8709 29.7298 25.7251 29.8385C25.053 29.9022 14.947 29.9022 14.2749 29.8385C13.1291 29.7298 12.1894 29.2878 11.4204 28.4958C10.6695 27.7225 10.2665 26.8354 10.1611 25.724C10.0974 25.0516 10.0974 14.9438 10.1611 14.2715C10.2698 13.1255 10.7117 12.1857 11.5035 11.4165C12.2494 10.692 13.1754 10.2591 14.19 10.1607C14.7828 10.1033 25.1231 10.0999 25.7251 10.157ZM25.871 12.1294C25.5206 12.2642 25.1967 12.5744 25.0346 12.9307C24.582 13.9254 25.2719 15.0548 26.3692 15.1153C26.8973 15.1445 27.4369 14.8739 27.7283 14.4339C27.9173 14.1485 27.984 13.9063 27.9805 13.5182C27.9711 12.4738 26.8665 11.7466 25.871 12.1294ZM19.1566 13.8835C17.7996 14.073 16.6149 14.6644 15.6412 15.6382C14.5934 16.6861 14.0128 17.9245 13.8553 19.4471C13.704 20.909 14.1672 22.5341 15.0742 23.7234C15.3489 24.0837 15.9148 24.6497 16.275 24.9245C17.4642 25.8317 19.0889 26.2949 20.5505 26.1436C22.0728 25.9861 23.311 25.4053 24.3588 24.3573C25.4066 23.3093 25.9872 22.071 26.1447 20.5484C26.2689 19.3483 25.9765 18.0062 25.356 16.9282C24.0994 14.7448 21.6397 13.5367 19.1566 13.8835ZM20.9371 16.0631C22.394 16.4107 23.5864 17.6033 23.9339 19.0605C24.0635 19.604 24.0635 20.3915 23.9339 20.935C23.6571 22.0956 22.8443 23.1052 21.765 23.6289C21.1768 23.9144 20.676 24.0274 20 24.0274C19.324 24.0274 18.8232 23.9144 18.235 23.6289C17.1557 23.1052 16.3429 22.0956 16.0661 20.935C15.9365 20.3915 15.9365 19.604 16.0661 19.0605C16.4108 17.6147 17.5985 16.4186 19.0395 16.0659C19.5665 15.937 20.403 15.9357 20.9371 16.0631Z" fill="white"/>
</g>
<defs>
<clipPath id="clip0_223_3388">
<rect width="40" height="40" fill="white"/>
</clipPath>
</defs>
</svg>
