<svg width="40" height="40" viewBox="0 0 40 40" fill="none" xmlns="http://www.w3.org/2000/svg">
<path d="M25.3347 26.7422L28.0902 23.9856C28.4613 23.6189 28.9309 23.3679 29.4419 23.263C29.9529 23.1582 30.4833 23.204 30.9687 23.3949L34.327 24.7362C34.8176 24.9355 35.2383 25.2755 35.536 25.7135C35.8337 26.1515 35.9952 26.6679 36 27.1975V33.3507C35.9971 33.711 35.9214 34.067 35.7774 34.3973C35.6334 34.7275 35.4241 35.0252 35.1621 35.2724C34.9 35.5196 34.5907 35.7112 34.2527 35.8357C33.9147 35.9601 33.555 36.0148 33.1953 35.9966C9.66272 34.5321 4.91438 14.5958 4.01638 6.96588C3.9747 6.5912 4.01278 6.21193 4.12814 5.85303C4.24349 5.49413 4.4335 5.16373 4.68566 4.88357C4.93782 4.60341 5.24642 4.37983 5.59115 4.22755C5.93589 4.07527 6.30895 3.99774 6.68578 4.00005H12.6274C13.1576 4.00162 13.6752 4.16184 14.1136 4.4601C14.552 4.75836 14.8913 5.18102 15.0876 5.67371L16.4285 9.03335C16.6256 9.51707 16.6759 10.0482 16.5731 10.5603C16.4703 11.0725 16.2189 11.543 15.8503 11.913L13.0948 14.6697C13.0948 14.6697 14.6817 25.4131 25.3347 26.7422Z" fill="#0B2B81"/>
</svg>
