<svg width="20" height="20" viewBox="0 0 20 20" fill="none" xmlns="http://www.w3.org/2000/svg">
<path d="M3.59731 14.6235C4.00147 14.8446 4.50432 14.7609 4.81515 14.4209L9.26197 9.55722C9.65844 9.12358 10.3416 9.12358 10.738 9.55722L15.1848 14.4209C15.4957 14.7609 15.9985 14.8446 16.4027 14.6235L16.8818 14.3615C17.4509 14.0503 17.5777 13.2881 17.14 12.8094L10.738 5.80722C10.3416 5.37358 9.65844 5.37358 9.26197 5.80722L2.86 12.8094C2.42234 13.2881 2.54914 14.0503 3.11821 14.3615L3.59731 14.6235Z" fill="#1B1B1F"/>
<path d="M3.59731 14.6235C4.00147 14.8446 4.50432 14.7609 4.81515 14.4209L9.26197 9.55722C9.65844 9.12358 10.3416 9.12358 10.738 9.55722L15.1848 14.4209C15.4957 14.7609 15.9985 14.8446 16.4027 14.6235L16.8818 14.3615C17.4509 14.0503 17.5777 13.2881 17.14 12.8094L10.738 5.80722C10.3416 5.37358 9.65844 5.37358 9.26197 5.80722L2.86 12.8094C2.42234 13.2881 2.54914 14.0503 3.11821 14.3615L3.59731 14.6235Z" stroke="#1B1B1F"/>
</svg>
