<svg width="20" height="20" viewBox="0 0 20 20" fill="none" xmlns="http://www.w3.org/2000/svg">
<path d="M3.59731 5.37647C4.00147 5.15545 4.50432 5.2391 4.81515 5.57907L9.26197 10.4428C9.65844 10.8764 10.3416 10.8764 10.738 10.4428L15.1848 5.57907C15.4957 5.2391 15.9985 5.15545 16.4027 5.37647L16.8818 5.63848C17.4509 5.94969 17.5777 6.71193 17.14 7.19062L10.738 14.1928C10.3416 14.6264 9.65844 14.6264 9.26197 14.1928L2.86 7.19062C2.42234 6.71193 2.54914 5.94969 3.11821 5.63848L3.59731 5.37647Z" fill="#1B1B1F"/>
<path d="M3.59731 5.37647C4.00147 5.15545 4.50432 5.2391 4.81515 5.57907L9.26197 10.4428C9.65844 10.8764 10.3416 10.8764 10.738 10.4428L15.1848 5.57907C15.4957 5.2391 15.9985 5.15545 16.4027 5.37647L16.8818 5.63848C17.4509 5.94969 17.5777 6.71193 17.14 7.19062L10.738 14.1928C10.3416 14.6264 9.65844 14.6264 9.26197 14.1928L2.86 7.19062C2.42234 6.71193 2.54914 5.94969 3.11821 5.63848L3.59731 5.37647Z" stroke="#1B1B1F"/>
</svg>
