<svg width="48" height="48" viewBox="0 0 48 48" fill="none" xmlns="http://www.w3.org/2000/svg">
<g clip-path="url(#clip0_35_1180)">
<path d="M19.7228 4.57143L22.0048 2C22.0048 2 21.2326 3.64905 21.175 4.78571C21.1366 5.54247 21.0418 6.04314 21.3824 6.71429C21.7293 7.3976 22.1022 7.8487 22.8346 8C23.872 8.21429 24.0795 7.63943 25.9465 7.35714C28.6732 6.94487 33 7.14286 33 7.14286C33 7.14286 28.8347 8.8598 26.1539 9.92857C24.4554 10.6057 23.4725 10.9063 21.7973 11.6429C19.8968 12.4785 17.0258 14 17.0258 14C17.0258 14 16.8061 10.1901 17.6482 8C18.2124 6.53256 19.7228 4.57143 19.7228 4.57143Z" fill="#559849"/>
<ellipse rx="2.5" ry="3" transform="matrix(0.829038 0.559193 -0.55181 0.83397 25.4172 3.90038)" fill="#559849"/>
<path d="M38.9541 8.61124L42.2721 9.45931C42.2721 9.45931 40.4581 9.53135 39.4232 10.0039C38.7343 10.3185 38.2469 10.4648 37.8059 11.0777C37.357 11.7017 37.126 12.2419 37.3242 12.9642C37.605 13.9873 38.2093 13.9072 39.3075 15.4406C40.9112 17.6801 42.6999 21.6266 42.6999 21.6266C42.6999 21.6266 39.2852 18.7066 37.1197 16.8107C35.7476 15.6094 35.0347 14.8721 33.6205 13.7191C32.0161 12.4109 29.3624 10.5541 29.3624 10.5541C29.3624 10.5541 32.6437 8.60225 34.9696 8.34309C36.5281 8.16945 38.9541 8.61124 38.9541 8.61124Z" fill="#92C431"/>
<ellipse rx="2.49105" ry="3.0109" transform="matrix(-0.104904 0.998093 -0.990688 -0.10635 42.7558 13.1661)" fill="#92C431"/>
<path d="M44.405 27.9906L45.4223 31.29C45.4223 31.29 44.4139 29.7666 43.4743 29.1234C42.8488 28.6952 42.4707 28.3524 41.723 28.2938C40.9617 28.2341 40.3849 28.3182 39.8787 28.867C39.1617 29.6442 39.545 30.1223 38.8241 31.8702C37.7713 34.4228 35.374 38.0281 35.374 38.0281C35.374 38.0281 36.0552 33.5609 36.5246 30.7047C36.822 28.8951 37.0719 27.8955 37.3066 26.0749C37.5729 24.0093 37.7542 20.7536 37.7542 20.7536C37.7542 20.7536 41.116 22.5554 42.5499 24.4213C43.5106 25.6715 44.405 27.9906 44.405 27.9906Z" fill="#559849"/>
<ellipse rx="2.50998" ry="2.98813" transform="matrix(-0.902705 0.420938 -0.417714 -0.912948 41.486 33.3285)" fill="#559849"/>
<path d="M29.5567 43.1576L27.0226 45.4769C27.0226 45.4769 27.9602 43.9173 28.1345 42.7927C28.2505 42.0439 28.3963 41.5558 28.1266 40.8526C27.852 40.1367 27.5275 39.649 26.8146 39.422C25.805 39.1004 25.5395 39.6505 23.6537 39.7361C20.8995 39.8612 16.6167 39.212 16.6167 39.212C16.6167 39.212 20.9358 37.9395 23.7119 37.1567C25.4707 36.6606 26.4792 36.4644 28.221 35.9068C30.197 35.2743 33.2088 34.061 33.2088 34.061C33.2088 34.061 33.0354 37.8736 31.9726 39.9641C31.2605 41.3648 29.5567 43.1576 29.5567 43.1576Z" fill="#92C431"/>
<ellipse rx="2.49808" ry="3.0023" transform="matrix(-0.777744 -0.629805 0.621531 -0.782413 23.9232 44.0777)" fill="#92C431"/>
<path d="M9.10875 37.4076L5.80604 36.5017C5.80604 36.5017 7.62103 36.4614 8.66401 36.0069C9.35838 35.7044 9.84823 35.5666 10.2998 34.9616C10.7596 34.3455 11 33.8094 10.8144 33.0837C10.5515 32.0559 9.94585 32.1255 8.87465 30.5731C7.31022 28.306 5.59073 24.3289 5.59073 24.3289C5.59073 24.3289 8.95394 27.308 11.086 29.2414C12.4369 30.4665 13.1369 31.2161 14.5307 32.3936C16.1121 33.7296 18.7329 35.6325 18.7329 35.6325C18.7329 35.6325 15.4181 37.5267 13.088 37.7452C11.5267 37.8917 9.10875 37.4076 9.10875 37.4076Z" fill="#559849"/>
<ellipse rx="2.49106" ry="3.01089" transform="matrix(0.122307 -0.996108 0.988683 0.123634 6.28155 32.8909)" fill="#559849"/>
<path d="M4.59932 18.0092L3.58187 14.71C3.58187 14.71 4.59038 16.2333 5.52999 16.8764C6.15555 17.3045 6.53366 17.6473 7.28142 17.7059C8.04274 17.7655 8.6195 17.6815 9.12575 17.1327C9.84277 16.3554 9.45941 15.8773 10.1803 14.1295C11.2331 11.577 13.6304 7.97156 13.6304 7.97156C13.6304 7.97156 12.9492 12.4387 12.4799 15.2948C12.1826 17.1044 11.9326 18.1039 11.6979 19.9246C11.4317 21.9901 11.2505 25.2457 11.2505 25.2457C11.2505 25.2457 7.88847 23.4441 6.45455 21.5783C5.49379 20.3282 4.59932 18.0092 4.59932 18.0092Z" fill="#92C431"/>
<ellipse rx="2.5099" ry="2.98822" transform="matrix(0.902734 -0.420952 0.417612 0.912961 6.51552 12.6677)" fill="#92C431"/>
<path fill-rule="evenodd" clip-rule="evenodd" d="M24.0036 18.2954C26.0385 16.2533 29.6493 15.3035 31.8122 16.8491C35.3736 19.3941 35.7322 26.4339 24.0039 34C12.5114 26.5868 12.6076 19.4987 15.984 16.8491C18.1458 15.1527 21.9013 16.1857 24.0036 18.2954Z" fill="#E82827"/>
<path d="M19 22.8236C21.8088 23.1048 27.2257 25.9045 23.6144 34C27.2257 32.7346 27.2257 26.4085 26.8245 24.5107C26.4232 22.6128 23.6144 19.4497 24.0157 20.0823C24.3367 20.5884 24.4169 21.5584 24.4169 21.9802C24.5507 22.6128 24.3768 23.7093 22.6113 23.0345C20.8458 22.3597 19.4681 22.6127 19 22.8236Z" fill="white"/>
<circle r="1.5" transform="matrix(0.848048 -0.529919 0.522527 0.852623 22.0559 19.4841)" fill="white"/>
</g>
<defs>
<clipPath id="clip0_35_1180">
<rect width="48" height="48" fill="white"/>
</clipPath>
</defs>
</svg>
