<svg width="24" height="24" viewBox="0 0 24 24" fill="none" xmlns="http://www.w3.org/2000/svg">
<g clip-path="url(#clip0_210_2708)">
<circle cx="12" cy="12" r="12" fill="#376AC5"/>
<path fill-rule="evenodd" clip-rule="evenodd" d="M8.22303 4.82444C6.45268 5.06937 5.06332 6.46965 4.82503 8.24916C4.76666 8.68514 4.76666 15.3121 4.82503 15.7481C4.94302 16.6291 5.33174 17.4168 5.9573 18.0425C6.58115 18.6665 7.37279 19.0573 8.25122 19.175C8.68712 19.2333 15.3129 19.2333 15.7488 19.175C17.5407 18.9349 18.935 17.5404 19.175 15.7481C19.2333 15.3121 19.2333 8.68514 19.175 8.24916C18.935 6.45687 17.5407 5.06238 15.7488 4.82232C15.3304 4.76628 8.62982 4.76817 8.22303 4.82444ZM15.444 6.07883C16.1333 6.1442 16.6985 6.41008 17.1612 6.88652C17.6129 7.35171 17.8553 7.88534 17.9187 8.55396C17.957 8.9584 17.957 15.0389 17.9187 15.4433C17.8553 16.1119 17.6129 16.6456 17.1612 17.1108C16.6985 17.5872 16.1333 17.8531 15.444 17.9185C15.0397 17.9568 8.96033 17.9568 8.55597 17.9185C7.8667 17.8531 7.30145 17.5872 6.83883 17.1108C6.38712 16.6456 6.14469 16.1119 6.08129 15.4433C6.04296 15.0389 6.04296 8.9584 6.08129 8.55396C6.14666 7.86457 6.41248 7.29921 6.88883 6.8365C7.33753 6.40066 7.89461 6.14025 8.5049 6.08105C8.86154 6.04649 15.0818 6.04449 15.444 6.07883ZM15.5318 7.26535C15.321 7.34641 15.1261 7.53303 15.0286 7.74735C14.7563 8.34577 15.1714 9.02516 15.8315 9.06156C16.1492 9.07909 16.4738 8.91631 16.6491 8.65162C16.7628 8.47993 16.8029 8.33427 16.8008 8.10081C16.7951 7.47253 16.1306 7.03506 15.5318 7.26535ZM11.4926 8.32054C10.6763 8.43455 9.96362 8.7903 9.37794 9.37609C8.74761 10.0065 8.3983 10.7515 8.30356 11.6674C8.21258 12.5468 8.4912 13.5244 9.0368 14.2399C9.20208 14.4566 9.54249 14.7971 9.75919 14.9624C10.4745 15.5081 11.4519 15.7868 12.3312 15.6958C13.2469 15.601 13.9918 15.2516 14.6221 14.6212C15.2524 13.9908 15.6017 13.2458 15.6964 12.3299C15.7711 11.608 15.5952 10.8006 15.222 10.1521C14.466 8.83864 12.9864 8.11195 11.4926 8.32054ZM12.5637 9.6317C13.4401 9.8408 14.1574 10.5582 14.3665 11.4348C14.4445 11.7618 14.4445 12.2355 14.3665 12.5625C14.2 13.2606 13.7111 13.8679 13.0618 14.183C12.7079 14.3547 12.4067 14.4227 12 14.4227C11.5933 14.4227 11.2921 14.3547 10.9382 14.183C10.2889 13.8679 9.8 13.2606 9.6335 12.5625C9.55554 12.2355 9.55554 11.7618 9.6335 11.4348C9.8409 10.5651 10.5554 9.84559 11.4222 9.63342C11.7392 9.55584 12.2425 9.55508 12.5637 9.6317Z" fill="white"/>
</g>
<defs>
<clipPath id="clip0_210_2708">
<rect width="24" height="24" fill="white"/>
</clipPath>
</defs>
</svg>
