<svg width="48" height="48" viewBox="0 0 48 48" fill="none" xmlns="http://www.w3.org/2000/svg">
<circle cx="24" cy="24" r="23" stroke="#000046" stroke-width="2"/>
<path d="M32 15L33 10H34L33 15H32Z" fill="#BBB8CD"/>
<path d="M32.3764 23.0775C33.7748 21.4938 35.3182 20.9552 37 20.3131C36.6636 19.8673 35.2355 19.8673 34.7309 19.5106C34.2264 19.1539 33.4696 19.0647 33.1332 18.9755C32.8641 18.9042 32.5165 18.9458 32.3764 18.9755C32.0961 19.0944 31.5019 19.35 31.3673 19.4214C31.1991 19.5106 30.1901 19.8673 30.106 19.9564C30.0219 20.0456 29.181 20.3131 28.9287 20.3131C28.6764 20.3131 28.0037 20.1348 27.4151 19.8673C26.8264 19.5997 26.2378 19.243 26.0696 19.1539C25.9014 19.0647 25.2144 18.1894 25.0463 18.011C24.8781 17.8327 25.2085 19.8673 25.3969 20.3131C25.5379 20.6469 25.7932 23.3083 26.5742 25.0393C27.5047 27.1017 30.0891 31.1744 30.0219 29.6763C29.9378 27.8037 30.7787 25.6635 30.7787 25.6635C30.7787 25.6635 31.5925 23.9652 32.3764 23.0775Z" fill="#F9B143"/>
<path fill-rule="evenodd" clip-rule="evenodd" d="M9.2278 21.8773C10.7666 22.6668 10.9678 23.1893 10.7998 25.9606C10.6622 28.2407 11.0666 29.9427 12.2313 31.9858C13.8245 34.7798 13.9473 34.8418 18.7763 35.3016C21.4833 35.5593 24.969 36.2655 26.5219 36.872C30.9019 38.5819 33.8335 38.3541 35.8622 36.1459C37.876 33.9548 37.4518 33.5127 32.6243 32.7724C28.636 32.1609 25.6791 30.5891 25.1087 28.7781C24.5765 27.0875 20.7309 24.9825 13.8824 22.6333C8.5198 20.7939 6.46215 20.46 9.2278 21.8773Z" fill="#000046"/>
<path d="M25.0825 17.323C25.2927 15.9858 25.8193 14.4502 26.2531 13.9101C27.2607 12.655 27.5745 12.6745 29.5648 14.1154C30.5225 14.8094 32.1416 15.2201 33.4543 15.1032C36.0924 14.8686 39 16.597 39 18.4012C39 20.2751 36.0635 21.4542 33.9156 20.4428C32.5969 19.8219 31.6634 19.8337 29.8968 20.4943C26.439 21.7863 24.5747 20.5577 25.0825 17.323Z" fill="#376AC5"/>
<path d="M28.3046 9.00087C27.3006 8.34176 25.2927 7.59394 24.2887 8.34176C23.2847 9.08958 25.1588 8.97807 25.962 9.24172C26.966 9.57127 26.6313 9.90083 27.97 10.5599C28.9165 11.026 29.3086 11.219 30.9819 10.6486C32.5632 10.1096 33.0505 9.9662 33.3246 9.65998C33.9939 8.91216 33.8823 8.78117 33.9939 8.34176C34.1054 7.90235 32.6552 8.01221 32.6552 8.01221C32.209 8.01221 31.4346 8.28554 30.9819 8.67132C30.3126 9.24172 29.3086 9.65998 28.3046 9.00087Z" fill="#000046"/>
<path d="M11 37.634C15.7895 36.2679 15.7895 35.5849 20.5789 36.2679C24.4105 36.8144 26.7368 37.634 27.4211 37.9755C28.6754 38.4308 31.3451 39 32.2105 39C33.2368 39 35.7456 38.4308 37 38.317" stroke="#376AC5" stroke-width="4" stroke-linecap="round"/>
</svg>
