<svg width="24" height="24" viewBox="0 0 24 24" fill="none" xmlns="http://www.w3.org/2000/svg">
<g clip-path="url(#clip0_210_2702)">
<path d="M12 0C8.81812 0 5.76375 1.26506 3.51562 3.51469C1.26518 5.76521 0.000623381 8.81734 0 12C0 15.1813 1.26562 18.2357 3.51562 20.4853C5.76375 22.7349 8.81812 24 12 24C15.1819 24 18.2362 22.7349 20.4844 20.4853C22.7344 18.2357 24 15.1813 24 12C24 8.81869 22.7344 5.76431 20.4844 3.51469C18.2362 1.26506 15.1819 0 12 0Z" fill="#376AC5"/>
<path d="M5.43282 11.873C8.93157 10.349 11.2641 9.34424 12.4303 8.8588C15.7641 7.47261 16.4559 7.23186 16.9078 7.2237C17.0072 7.22211 17.2284 7.24667 17.3728 7.36339C17.4928 7.46183 17.5266 7.59495 17.5434 7.68842C17.5584 7.7818 17.5791 7.99461 17.5622 8.16074C17.3822 10.0582 16.6003 14.6629 16.2028 16.7882C16.0359 17.6874 15.7041 17.9889 15.3834 18.0184C14.6859 18.0825 14.1572 17.5579 13.4822 17.1155C12.4266 16.4231 11.8303 15.9922 10.8047 15.3167C9.6197 14.5359 10.3884 14.1067 11.0634 13.4055C11.2397 13.2219 14.3109 10.4291 14.3691 10.1758C14.3766 10.1441 14.3841 10.026 14.3128 9.96373C14.2434 9.9013 14.1403 9.92267 14.0653 9.93955C13.9584 9.96355 12.2728 11.0788 9.00282 13.2851C8.52469 13.614 8.09157 13.7743 7.70157 13.7659C7.27407 13.7567 6.44907 13.5236 5.83595 13.3245C5.08595 13.0802 4.48782 12.951 4.54032 12.536C4.56657 12.32 4.8647 12.099 5.43282 11.873Z" fill="white"/>
</g>
<defs>
<clipPath id="clip0_210_2702">
<rect width="24" height="24" fill="white"/>
</clipPath>
</defs>
</svg>
