<svg width="32" height="32" viewBox="0 0 32 32" fill="none" xmlns="http://www.w3.org/2000/svg">
<g clip-path="url(#clip0_287_1372)">
<circle cx="16" cy="16" r="16" fill="white"/>
<path fill-rule="evenodd" clip-rule="evenodd" d="M10.964 6.43259C8.60357 6.75916 6.75109 8.62619 6.43337 10.9989C6.35554 11.5802 6.35554 20.4162 6.43337 20.9975C6.59069 22.1722 7.10898 23.2224 7.94307 24.0566C8.77487 24.8886 9.83039 25.4097 11.0016 25.5666C11.5828 25.6445 20.4172 25.6445 20.9984 25.5666C23.3876 25.2465 25.2466 23.3872 25.5666 20.9975C25.6445 20.4162 25.6445 11.5802 25.5666 10.9989C25.2466 8.60917 23.3876 6.74983 20.9984 6.42977C20.4405 6.35504 11.5064 6.35756 10.964 6.43259ZM20.592 8.1051C21.5111 8.19227 22.2647 8.54677 22.8816 9.18202C23.4838 9.80227 23.8071 10.5138 23.8916 11.4053C23.9427 11.9445 23.9427 20.0518 23.8916 20.5911C23.8071 21.4826 23.4838 22.1941 22.8816 22.8144C22.2647 23.4496 21.5111 23.8041 20.592 23.8913C20.0529 23.9424 11.9471 23.9424 11.408 23.8913C10.4889 23.8041 9.73527 23.4496 9.11844 22.8144C8.51616 22.1941 8.19291 21.4826 8.10839 20.5911C8.05728 20.0518 8.05728 11.9445 8.10839 11.4053C8.19555 10.4861 8.54998 9.73228 9.18511 9.11534C9.78337 8.53421 10.5261 8.18701 11.3399 8.10807C11.8154 8.06199 20.1091 8.05932 20.592 8.1051ZM20.7091 9.68714C20.428 9.79521 20.1682 10.044 20.0382 10.3298C19.6751 11.1277 20.2285 12.0335 21.1086 12.0821C21.5322 12.1055 21.965 11.8884 22.1988 11.5355C22.3503 11.3066 22.4039 11.1124 22.401 10.8011C22.3935 9.96338 21.5075 9.38008 20.7091 9.68714ZM15.3235 11.0941C14.2351 11.2461 13.2848 11.7204 12.5039 12.5015C11.6635 13.342 11.1977 14.3353 11.0714 15.5565C10.9501 16.7291 11.3216 18.0325 12.0491 18.9865C12.2694 19.2755 12.7233 19.7294 13.0122 19.9499C13.966 20.6775 15.2692 21.049 16.4416 20.9277C17.6626 20.8014 18.6557 20.3355 19.4961 19.4949C20.3365 18.6544 20.8023 17.6611 20.9286 16.4399C21.0282 15.4773 20.7936 14.4008 20.296 13.5361C19.2881 11.7849 17.3152 10.8159 15.3235 11.0941ZM16.7516 12.8423C17.9202 13.1211 18.8766 14.0777 19.1553 15.2464C19.2593 15.6824 19.2593 16.314 19.1553 16.75C18.9333 17.6808 18.2814 18.4906 17.4157 18.9106C16.9439 19.1396 16.5422 19.2303 16 19.2303C15.4578 19.2303 15.0561 19.1396 14.5843 18.9106C13.7186 18.4906 13.0667 17.6808 12.8447 16.75C12.7407 16.314 12.7407 15.6824 12.8447 15.2464C13.1212 14.0868 14.0738 13.1275 15.2296 12.8446C15.6523 12.7411 16.3233 12.7401 16.7516 12.8423Z" fill="#376AC5"/>
</g>
<defs>
<clipPath id="clip0_287_1372">
<rect width="32" height="32" fill="white"/>
</clipPath>
</defs>
</svg>
