<svg width="24" height="24" viewBox="0 0 24 24" fill="none" xmlns="http://www.w3.org/2000/svg">
<path d="M10.7656 23.4607C8.04687 20.4435 2 13.1309 2 9.02335C2 4.03983 6.47708 0 12 0C17.5208 0 22 4.03983 22 9.02335C22 13.1309 15.9062 20.4435 13.2344 23.4607C12.5937 24.1798 11.4062 24.1798 10.7656 23.4607V23.4607ZM12 12.0311C13.8385 12.0311 15.3333 10.6823 15.3333 9.02335C15.3333 7.36437 13.8385 6.01557 12 6.01557C10.1615 6.01557 8.66667 7.36437 8.66667 9.02335C8.66667 10.6823 10.1615 12.0311 12 12.0311Z" fill="white"/>
</svg>
