<svg width="32" height="32" viewBox="0 0 32 32" fill="none" xmlns="http://www.w3.org/2000/svg">
<g clip-path="url(#clip0_287_1356)">
<path d="M19 27H27C27.9885 27 28.8285 26.777 29.526 26.3885L19 20.1095V27ZM31.83 23.105C31.944 22.5965 32.002 22.058 32.002 21.4995V18.9995H24.947L31.828 23.105M0.174998 8.8795C0.0565001 9.41146 -0.00219722 9.955 -1.65592e-06 10.5V13H7.082L0.174998 8.8795ZM13 5H5C4.0185 5 3.184 5.22 2.4895 5.603L13 11.873V5ZM2.5215 26.413C3.2095 26.785 4.033 27 5 27H13V20.162L2.5215 26.413ZM-1.65592e-06 19V21.5C-1.65592e-06 22.0755 0.0609984 22.63 0.181498 23.1515L7.141 19H-1.65592e-06ZM29.5575 5.6275C28.8545 5.2285 28.003 5 27 5H19V11.9255L29.5575 5.6275ZM32 13V10.5C32 9.953 31.9435 9.4255 31.834 8.9265L25.006 13H32Z" fill="#0B2B81"/>
<path d="M25.006 13L31.834 8.9265C31.521 7.4945 30.759 6.309 29.5575 5.6275L19 11.9255V5H18V14H32V13H25.006ZM0 18V19H7.141L0.1815 23.1515C0.512 24.579 1.297 25.751 2.5215 26.413L13 20.162V27H14V18H0ZM32 18H18V27H19V20.1095L29.526 26.389C30.7365 25.715 31.508 24.536 31.828 23.106L24.947 19H32V18ZM13 5V11.873L2.4895 5.603C1.2745 6.273 0.498 7.45 0.1745 8.8795L7.082 13H0V14H14V5H13Z" fill="white"/>
<path d="M18 14V5H14V14H0V18H14V27H18V18H32V14H18Z" fill="#BE1E2D"/>
<path d="M10.9686 13.0001L0.943609 7.01556C0.728109 7.33556 0.555109 7.68756 0.412109 8.06256L8.68561 13.0001H10.9671M31.5446 24.0451L23.1381 19.0001H20.8101L30.9666 25.1096C31.2021 24.7804 31.3963 24.4236 31.5446 24.0471M30.3591 6.19556L18.9841 13.0001L21.2936 13.0016L31.1091 7.12506C30.8901 6.72656 30.6591 6.46956 30.3591 6.19556ZM0.906109 24.9376C1.13103 25.2801 1.4017 25.5903 1.71061 25.8596L13.0311 19.0001H10.7496L0.906109 24.9376Z" fill="#BE1E2D"/>
</g>
<defs>
<clipPath id="clip0_287_1356">
<rect width="32" height="32" fill="white"/>
</clipPath>
</defs>
</svg>
