<svg width="309" height="140" viewBox="0 0 309 140" fill="none" xmlns="http://www.w3.org/2000/svg">
<path d="M165.543 58.738C163.601 56.866 162.631 54.5867 162.631 51.9C162.631 49.2133 163.601 46.9427 165.543 45.088C167.501 43.216 169.954 42.28 172.901 42.28C175.847 42.28 178.291 43.216 180.233 45.088C182.191 46.9427 183.171 49.2133 183.171 51.9C183.171 54.5867 182.191 56.866 180.233 58.738C178.291 60.5927 175.847 61.52 172.901 61.52C169.954 61.52 167.501 60.5927 165.543 58.738ZM169.937 48.728C169.139 49.56 168.741 50.6173 168.741 51.9C168.741 53.1827 169.139 54.24 169.937 55.072C170.734 55.904 171.722 56.32 172.901 56.32C174.079 56.32 175.067 55.904 175.865 55.072C176.662 54.24 177.061 53.1827 177.061 51.9C177.061 50.6173 176.662 49.56 175.865 48.728C175.067 47.896 174.079 47.48 172.901 47.48C171.722 47.48 170.734 47.896 169.937 48.728ZM184.07 64.12V56.06H186.02L189.53 42.8H199.41L202.92 56.06H204.87V64.12H199.41V61H189.53V64.12H184.07ZM191.61 56.06H197.33L195.25 47.74H193.69L191.61 56.06ZM206.549 61V42.8H221.109V47.74H212.399V49.82H219.289V53.98H212.399V56.06H221.109V61H206.549ZM225.972 58.738C224.031 56.866 223.06 54.5867 223.06 51.9C223.06 49.2133 224.031 46.9427 225.972 45.088C227.931 43.216 230.384 42.28 233.33 42.28C236.78 42.28 239.432 43.5193 241.286 45.998C242.118 47.0553 242.716 48.286 243.08 49.69H237.1C236.91 49.2393 236.658 48.8753 236.346 48.598C235.532 47.8527 234.526 47.48 233.33 47.48C232.065 47.48 231.051 47.8787 230.288 48.676C229.543 49.4733 229.17 50.548 229.17 51.9C229.17 53.252 229.543 54.3267 230.288 55.124C231.051 55.9213 232.065 56.32 233.33 56.32C234.682 56.32 235.74 55.8693 236.502 54.968C236.832 54.604 237.074 54.1447 237.23 53.59H243.21C242.812 55.0633 242.188 56.3893 241.338 57.568C239.432 60.2027 236.762 61.52 233.33 61.52C230.384 61.52 227.931 60.5927 225.972 58.738ZM243.351 61L248.421 42.8H257.911L262.981 61H257.261L256.351 57.49H249.981L249.071 61H243.351ZM251.151 53.07H255.181L253.881 47.87H252.451L251.151 53.07ZM268.32 48V42.8H285.35V48H279.76V61H273.91V48H268.32ZM284.433 61L289.503 42.8H298.993L304.063 61H298.343L297.433 57.49H291.063L290.153 61H284.433ZM292.233 53.07H296.263L294.963 47.87H293.533L292.233 53.07ZM165.301 92.738C163.36 90.866 162.389 88.5867 162.389 85.9C162.389 83.2133 163.36 80.9427 165.301 79.088C167.26 77.216 169.713 76.28 172.659 76.28C175.606 76.28 178.05 77.216 179.991 79.088C181.95 80.9427 182.929 83.2133 182.929 85.9C182.929 88.5867 181.95 90.866 179.991 92.738C178.05 94.5927 175.606 95.52 172.659 95.52C169.713 95.52 167.26 94.5927 165.301 92.738ZM169.695 82.728C168.898 83.56 168.499 84.6173 168.499 85.9C168.499 87.1827 168.898 88.24 169.695 89.072C170.493 89.904 171.481 90.32 172.659 90.32C173.838 90.32 174.826 89.904 175.623 89.072C176.421 88.24 176.819 87.1827 176.819 85.9C176.819 84.6173 176.421 83.56 175.623 82.728C174.826 81.896 173.838 81.48 172.659 81.48C171.481 81.48 170.493 81.896 169.695 82.728ZM183.829 98.12V90.06H185.779L189.289 76.8H199.169L202.679 90.06H204.629V98.12H199.169V95H189.289V98.12H183.829ZM191.369 90.06H197.089L195.009 81.74H193.449L191.369 90.06ZM206.308 95V76.8H220.868V81.74H212.158V83.82H219.048V87.98H212.158V90.06H220.868V95H206.308ZM225.731 92.738C223.79 90.866 222.819 88.5867 222.819 85.9C222.819 83.2133 223.79 80.9427 225.731 79.088C227.69 77.216 230.142 76.28 233.089 76.28C236.538 76.28 239.19 77.5193 241.045 79.998C241.877 81.0553 242.475 82.286 242.839 83.69H236.859C236.668 83.2393 236.417 82.8753 236.105 82.598C235.29 81.8527 234.285 81.48 233.089 81.48C231.824 81.48 230.81 81.8787 230.047 82.676C229.302 83.4733 228.929 84.548 228.929 85.9C228.929 87.252 229.302 88.3267 230.047 89.124C230.81 89.9213 231.824 90.32 233.089 90.32C234.441 90.32 235.498 89.8693 236.261 88.968C236.59 88.604 236.833 88.1447 236.989 87.59H242.969C242.57 89.0633 241.946 90.3893 241.097 91.568C239.19 94.2027 236.521 95.52 233.089 95.52C230.142 95.52 227.69 94.5927 225.731 92.738ZM245.308 95V76.8H251.158V83.95L250.768 86.42H251.028L256.748 76.8H263.248V95H257.398V87.85L257.788 85.38H257.528L251.808 95H245.308ZM265.057 82V76.8H282.087V82H276.497V95H270.647V82H265.057ZM283.902 95V76.8H289.752V83.95L289.362 86.42H289.622L295.342 76.8H301.842V95H295.992V87.85L296.382 85.38H296.122L290.402 95H283.902Z" fill="#000046"/>
<circle cx="70" cy="70" r="66.5" stroke="#000046" stroke-width="7"/>
<path d="M93 44L96 29H99L96 44H93Z" fill="#BBB8CD"/>
<path d="M93.5145 67.8093C97.5933 63.1903 102.095 61.6192 107 59.7466C106.019 58.4461 101.853 58.4462 100.382 57.4058C98.9103 56.3654 96.7029 56.1054 95.7219 55.8453C94.937 55.6372 93.9233 55.7586 93.5145 55.8453C92.697 56.1921 90.9638 56.9376 90.5713 57.1457C90.0808 57.4058 87.1377 58.4462 86.8924 58.7062C86.6471 58.9663 84.1945 59.7466 83.4587 59.7466C82.7229 59.7466 80.7608 59.2264 79.044 58.4462C77.3271 57.6659 75.6103 56.6255 75.1198 56.3654C74.6292 56.1054 72.6255 53.5524 72.1349 53.0322C71.6444 52.512 72.6082 58.4462 73.1576 59.7466C73.569 60.7202 74.3135 68.4824 76.5913 73.5313C79.3053 79.5467 86.8433 91.4253 86.6471 87.0559C86.4019 81.594 88.8545 75.3519 88.8545 75.3519C88.8545 75.3519 91.228 70.3986 93.5145 67.8093Z" fill="#F9B143"/>
<path fill-rule="evenodd" clip-rule="evenodd" d="M28.5567 64.5288C33.0144 66.8043 33.5971 68.3103 33.1105 76.2981C32.7117 82.8702 33.8834 87.7761 37.2573 93.6649C41.8724 101.718 42.2282 101.897 56.2167 103.222C64.0585 103.965 74.1557 106 78.6543 107.749C91.3423 112.677 99.8343 112.021 105.711 105.656C111.545 99.3402 110.316 98.0661 96.3316 95.9321C84.7785 94.1696 76.2128 89.6392 74.5606 84.4193C73.0188 79.5462 61.8787 73.4789 42.0401 66.7078C26.5058 61.4059 20.5452 60.4436 28.5567 64.5288Z" fill="#000046"/>
<path d="M72.2476 49.4285C72.878 45.5841 74.458 41.1694 75.7593 39.6164C78.782 36.0082 79.7236 36.0642 85.6943 40.2068C88.5675 42.202 93.4248 43.3828 97.3629 43.0466C105.277 42.3721 114 47.3412 114 52.5285C114 57.9158 105.19 61.3059 98.7469 58.3981C94.7907 56.613 91.9903 56.647 86.6904 58.5462C76.3169 62.2605 70.7241 58.7283 72.2476 49.4285Z" fill="#376AC5"/>
<path d="M82.9138 28.0026C79.9019 26.0253 73.878 23.7818 70.866 26.0253C67.854 28.2687 73.4764 27.9342 75.886 28.7251C78.8979 29.7138 77.894 30.7025 81.9099 32.6798C84.7496 34.078 85.9259 34.6571 90.9457 32.9459C95.6895 31.3289 97.1514 30.8986 97.9737 29.9799C99.9816 27.7365 99.647 27.3435 99.9816 26.0253C100.316 24.7071 95.9657 25.0366 95.9657 25.0366C94.627 25.0366 92.3038 25.8566 90.9457 27.0139C88.9378 28.7252 85.9258 29.9799 82.9138 28.0026Z" fill="#000046"/>
<path d="M32 108.902C46.3684 104.804 46.3684 102.755 60.7368 104.804C72.2316 106.443 79.2105 108.902 81.2632 109.926C85.0263 111.292 93.0352 113 95.6316 113C98.7105 113 106.237 111.292 110 110.951" stroke="#376AC5" stroke-width="6" stroke-linecap="round"/>
</svg>
