<svg width="302" height="140" viewBox="0 0 302 140" fill="none" xmlns="http://www.w3.org/2000/svg">
<path d="M161.69 95V76.8H174.95V81.22H166.5V95H161.69ZM177.026 95V76.8H185.866C188.102 76.8 189.913 77.4413 191.3 78.724C192.704 79.9893 193.406 81.558 193.406 83.43C193.406 85.302 192.704 86.8793 191.3 88.162C189.913 89.4273 188.102 90.06 185.866 90.06H181.836V95H177.026ZM181.836 85.64H185.736C186.637 85.64 187.313 85.4407 187.764 85.042C188.232 84.6433 188.466 84.106 188.466 83.43C188.466 82.754 188.232 82.2167 187.764 81.818C187.313 81.4193 186.637 81.22 185.736 81.22H181.836V85.64ZM197.946 92.712C196.039 90.8227 195.086 88.552 195.086 85.9C195.086 83.248 196.039 80.986 197.946 79.114C199.87 77.2247 202.296 76.28 205.226 76.28C208.155 76.28 210.573 77.2247 212.48 79.114C214.404 80.986 215.366 83.248 215.366 85.9C215.366 88.552 214.404 90.8227 212.48 92.712C210.573 94.584 208.155 95.52 205.226 95.52C202.296 95.52 199.87 94.584 197.946 92.712ZM201.56 82.13C200.624 83.0833 200.156 84.34 200.156 85.9C200.156 87.46 200.624 88.7167 201.56 89.67C202.496 90.6233 203.718 91.1 205.226 91.1C206.734 91.1 207.956 90.6233 208.892 89.67C209.828 88.7167 210.296 87.46 210.296 85.9C210.296 84.34 209.828 83.0833 208.892 82.13C207.956 81.1767 206.734 80.7 205.226 80.7C203.718 80.7 202.496 81.1767 201.56 82.13ZM217.956 95V76.8H224.716L228.486 86.16H229.136L232.906 76.8H239.666V95H234.856V84.6L235.246 82.26H234.986L231.476 90.84H226.146L222.636 82.26H222.376L222.766 84.6V95H217.956ZM241.352 95L246.292 76.8H255.132L260.072 95H255.132L254.222 91.36H247.202L246.292 95H241.352ZM248.242 87.2H253.182L251.622 81.22H249.802L248.242 87.2ZM260.194 98.12V90.58H262.274L265.914 76.8H274.884L278.524 90.58H280.604V98.12H276.054V95H264.744V98.12H260.194ZM266.824 90.58H273.974L271.504 81.22H269.294L266.824 90.58ZM282.422 95V76.8H287.232V85.77L286.842 88.11H287.102L293.732 76.8H299.322V95H294.512V86.03L294.902 83.69H294.642L288.012 95H282.422Z" fill="#559849"/>
<path d="M159.744 61.79C157.855 59.9527 156.91 57.656 156.91 54.9C156.91 52.144 157.855 49.856 159.744 48.036C161.651 46.1987 164.086 45.28 167.05 45.28C170.326 45.28 172.9 46.476 174.772 48.868C175.604 49.96 176.193 51.1473 176.54 52.43H171.6C171.34 51.8927 171.019 51.442 170.638 51.078C169.719 50.1593 168.523 49.7 167.05 49.7C165.767 49.7 164.693 50.0467 163.826 50.74C162.977 51.416 162.439 52.2393 162.214 53.21H168.22V56.59H162.214C162.439 57.578 162.977 58.41 163.826 59.086C164.675 59.762 165.75 60.1 167.05 60.1C168.679 60.1 169.945 59.58 170.846 58.54C171.262 58.072 171.557 57.552 171.73 56.98H176.67C176.289 58.384 175.673 59.6407 174.824 60.75C172.969 63.2633 170.378 64.52 167.05 64.52C164.086 64.52 161.651 63.61 159.744 61.79ZM177.585 67.12V59.58H179.665L183.305 45.8H192.275L195.915 59.58H197.995V67.12H193.445V64H182.135V67.12H177.585ZM184.215 59.58H191.365L188.895 50.22H186.685L184.215 59.58ZM199.813 64V45.8H204.623V52.56H211.643V45.8H216.453V64H211.643V56.98H204.623V64H199.813ZM219.821 64V45.8H224.631V64H219.821ZM230.076 61.79C228.187 59.9527 227.242 57.656 227.242 54.9C227.242 52.144 228.187 49.856 230.076 48.036C231.983 46.1987 234.418 45.28 237.382 45.28C240.658 45.28 243.232 46.476 245.104 48.868C245.936 49.96 246.525 51.1473 246.872 52.43H241.932C241.672 51.8927 241.351 51.442 240.97 51.078C240.051 50.1593 238.855 49.7 237.382 49.7C235.874 49.7 234.652 50.1767 233.716 51.13C232.78 52.0833 232.312 53.34 232.312 54.9C232.312 56.46 232.78 57.7167 233.716 58.67C234.652 59.6233 235.874 60.1 237.382 60.1C239.011 60.1 240.277 59.58 241.178 58.54C241.594 58.072 241.889 57.552 242.062 56.98H247.002C246.621 58.384 246.005 59.6407 245.156 60.75C243.301 63.2633 240.71 64.52 237.382 64.52C234.418 64.52 231.983 63.61 230.076 61.79ZM248.047 50.22V45.8H264.297V50.22H258.577V64H253.767V50.22H248.047ZM266.235 64V45.8H271.045V51.26H274.945C277.285 51.26 279.122 51.858 280.457 53.054C281.809 54.2327 282.485 55.758 282.485 57.63C282.485 59.502 281.809 61.036 280.457 62.232C279.122 63.4107 277.285 64 274.945 64H266.235ZM271.045 59.58H275.205C275.933 59.58 276.505 59.4067 276.921 59.06C277.337 58.696 277.545 58.2193 277.545 57.63C277.545 57.0407 277.337 56.5727 276.921 56.226C276.505 55.862 275.933 55.68 275.205 55.68H271.045V59.58Z" fill="#92C431"/>
<g clip-path="url(#clip0_27_1252)">
<path d="M53.0794 11.7451L60.0448 4.07068C60.0448 4.07068 57.6878 8.99226 57.5119 12.3846C57.3948 14.6432 57.1054 16.1374 58.1452 18.1404C59.2038 20.1798 60.3421 21.5261 62.5777 21.9777C65.7441 22.6172 66.3774 20.9015 72.0761 20.0591C80.3989 18.8286 93.6058 19.4195 93.6058 19.4195C93.6058 19.4195 80.8919 24.5437 72.7093 27.7335C67.525 29.7545 64.5248 30.6515 59.4116 32.8497C53.6107 35.3438 44.8474 39.8846 44.8474 39.8846C44.8474 39.8846 44.1767 28.5141 46.7471 21.9777C48.4693 17.5981 53.0794 11.7451 53.0794 11.7451Z" fill="#559849"/>
<ellipse rx="7.32558" ry="8.13953" transform="matrix(0.829038 0.559193 -0.55181 0.83397 69.1403 10.8845)" fill="#559849"/>
<path d="M114.172 27.2222L124.145 29.8912C124.145 29.8912 118.708 30.0595 115.617 31.4664C113.56 32.4031 112.102 32.8339 110.797 34.6836C109.468 36.5668 108.79 38.2016 109.404 40.4017C110.274 43.5178 112.084 43.2912 115.419 47.9805C120.289 54.829 125.76 66.8688 125.76 66.8688C125.76 66.8688 115.441 57.9025 108.895 52.082C104.748 48.3942 102.59 46.1345 98.318 42.5919C93.4712 38.5727 85.463 32.8576 85.463 32.8576C85.463 32.8576 95.2491 27.0191 102.217 26.2965C106.885 25.8124 114.172 27.2222 114.172 27.2222Z" fill="#92C431"/>
<ellipse rx="7.29937" ry="8.1691" transform="matrix(-0.104904 0.998093 -0.990688 -0.10635 121.375 40.6036)" fill="#92C431"/>
<path d="M125.921 84.511L128.877 94.4906C128.877 94.4906 125.895 89.8993 123.092 87.9764C121.227 86.6962 120.102 85.6675 117.858 85.5124C115.574 85.3545 113.84 85.627 112.303 87.3074C110.127 89.6875 111.264 91.1265 109.047 96.4513C105.81 104.228 98.504 115.24 98.504 115.24C98.504 115.24 100.683 101.665 102.177 92.9851C103.124 87.4855 103.904 84.4453 104.663 78.9141C105.524 72.6389 106.166 62.7553 106.166 62.7553C106.166 62.7553 116.207 68.1201 120.457 73.7379C123.304 77.502 125.921 84.511 125.921 84.511Z" fill="#559849"/>
<ellipse rx="7.35481" ry="8.10734" transform="matrix(-0.902705 0.420938 -0.417714 -0.912948 120.208 98.2534)" fill="#559849"/>
<path d="M83.6883 130.684L75.9715 137.59C75.9715 137.59 78.8219 132.941 79.3458 129.585C79.6946 127.351 80.1362 125.895 79.3082 123.794C78.4652 121.654 77.4716 120.196 75.2947 119.513C72.2114 118.546 71.4052 120.187 65.651 120.429C57.2472 120.783 44.1734 118.815 44.1734 118.815C44.1734 118.815 57.3448 115.047 65.8107 112.729C71.1746 111.261 74.2507 110.682 79.562 109.03C85.5877 107.156 94.7701 103.555 94.7701 103.555C94.7701 103.555 94.2674 114.935 91.0386 121.168C88.8752 125.344 83.6883 130.684 83.6883 130.684Z" fill="#92C431"/>
<ellipse rx="7.31994" ry="8.14577" transform="matrix(-0.766634 -0.643283 0.635091 -0.771446 65.4932 129.822)" fill="#92C431"/>
<path d="M24.3922 112.02L14.4674 109.178C14.4674 109.178 19.9072 109.104 23.0217 107.751C25.0952 106.851 26.5599 106.446 27.8975 104.619C29.2594 102.759 29.9658 101.136 29.3901 98.926C28.5746 95.7953 26.7609 95.9902 23.5084 91.2434C18.7583 84.3109 13.4979 72.1775 13.4979 72.1775C13.4979 72.1775 23.6592 81.3225 30.1022 87.2564C34.1843 91.016 36.3027 93.3131 40.5124 96.9297C45.2884 101.033 53.1956 106.887 53.1956 106.887C53.1956 106.887 43.309 112.554 36.3298 113.155C31.6535 113.557 24.3922 112.02 24.3922 112.02Z" fill="#559849"/>
<ellipse rx="7.29939" ry="8.16908" transform="matrix(0.122307 -0.996108 0.988683 0.123634 15.4811 97.9259)" fill="#559849"/>
<path d="M10.8774 53.2379L8.09519 43.2087C8.09519 43.2087 10.9975 47.8511 13.7658 49.8224C15.6088 51.1348 16.7158 52.1828 18.9564 52.377C21.2376 52.5746 22.9764 52.3324 24.542 50.679C26.7594 48.3372 25.6478 46.8787 27.957 41.5934C31.3296 33.8743 38.8265 22.9917 38.8265 22.9917C38.8265 22.9917 36.4115 36.526 34.7659 45.1785C33.7234 50.6606 32.8901 53.6867 32.0348 59.2037C31.0645 65.4628 30.2509 75.3335 30.2509 75.3335C30.2509 75.3335 20.3045 69.7949 16.153 64.1041C13.3715 60.2912 10.8774 53.2379 10.8774 53.2379Z" fill="#92C431"/>
<ellipse rx="7.35458" ry="8.10758" transform="matrix(0.902734 -0.420952 0.417612 0.912961 18.1647 38.4929)" fill="#92C431"/>
<path fill-rule="evenodd" clip-rule="evenodd" d="M69.1965 54.2675C75.1593 47.9882 85.7399 45.0677 92.0776 49.8204C102.513 57.6461 103.564 79.293 69.1975 102.558C35.5217 79.763 35.8038 57.9675 45.6973 49.8204C52.032 44.6038 63.0363 47.7803 69.1965 54.2675Z" fill="#E82827"/>
<path d="M54.5352 65.3491C63.68 66.1828 81.3165 74.4844 69.5588 98.4884C81.3165 94.7364 81.3165 75.9789 80.0101 70.3515C78.7037 64.724 69.5589 55.345 70.8653 57.2208C71.9104 58.7214 72.1717 61.5977 72.1717 62.8482C72.6071 64.724 72.041 67.9753 66.2928 65.9744C60.5446 63.9735 56.0593 64.7238 54.5352 65.3491Z" fill="white"/>
<ellipse rx="4.06977" ry="4.88372" transform="matrix(0.848048 -0.529919 0.527737 0.849408 64.6332 58.9684)" fill="white"/>
</g>
<defs>
<clipPath id="clip0_27_1252">
<rect width="140" height="140" fill="white"/>
</clipPath>
</defs>
</svg>
