<svg width="72" height="72" viewBox="0 0 72 72" fill="none" xmlns="http://www.w3.org/2000/svg">
<path d="M53.1969 72L47.0551 64.6713C40.9449 69.5571 33.6378 72 25.1339 72C20.0315 72 15.5906 71.1417 11.811 69.425C8.0315 67.6424 5.10236 65.1664 3.02362 61.9972C1.00787 58.762 0 54.9986 0 50.707C0 46.3494 1.10236 42.4209 3.30709 38.9216C5.5748 35.3563 8.94488 32.4512 13.4173 30.2063C11.7795 28.0935 10.6142 26.0798 9.92126 24.1651C9.22835 22.1843 8.88189 20.0385 8.88189 17.7276C8.88189 14.4264 9.70079 11.4223 11.3386 8.71527C12.9764 6.00825 15.3386 3.89546 18.4252 2.37689C21.5748 0.792297 25.2913 0 29.5748 0C33.9213 0 37.6063 0.825309 40.6299 2.47593C43.6535 4.12655 45.9213 6.33838 47.4331 9.11142C48.9449 11.8845 49.6378 14.9216 49.5118 18.2228H34.2992C34.3622 16.4402 33.9213 15.0867 32.9764 14.1623C32.0945 13.1719 30.8976 12.6768 29.3858 12.6768C27.874 12.6768 26.6142 13.1389 25.6063 14.0633C24.5984 14.9876 24.0945 16.1761 24.0945 17.6286C24.0945 19.0151 24.5039 20.4677 25.3228 21.9862C26.2047 23.5048 27.5591 25.2545 29.3858 27.2352L45.5433 43.7744C45.6693 43.4443 45.8268 43.0481 46.0157 42.586C46.2677 42.1238 46.5197 41.5956 46.7717 41.0014L50.2677 34.762H66.4252L61.8898 43.3783C60.189 47.2737 58.2362 50.9711 56.0315 54.4704L72 72H53.1969ZM25.8898 58.3329C30.1102 58.3329 33.8583 57.0784 37.1339 54.5695L22.3937 39.6149C17.8583 42.0578 15.5906 45.359 15.5906 49.5186C15.5906 52.0275 16.5039 54.1403 18.3307 55.8569C20.2205 57.5076 22.7402 58.3329 25.8898 58.3329Z" fill="#0B2B81"/>
</svg>
