<?xml version="1.0" encoding="utf-8"?>
<!-- Generated by IcoMoon.io -->
<svg version="1.1" xmlns="http://www.w3.org/2000/svg" xmlns:xlink="http://www.w3.org/1999/xlink" width="752" height="80" viewBox="0 0 752 80">

<!--header-->
<!--<svg  width="72" height="32" viewBox="0 0 72 32" x="0" y="0">-->
<!--<path fill="var(&#45;&#45;primary_color)" d="M16 5.12c6.009 0 10.88 4.871 10.88 10.88 0 6.005-4.865 10.874-10.87 10.88-0.003 0-0.007 0-0.010 0h-0.004c-6.007-0.002-10.876-4.873-10.876-10.88 0-6.009 4.871-10.88 10.88-10.88zM27.731 26.88c2.649-2.855 4.269-6.678 4.269-10.88 0-8.837-7.163-16-16-16s-16 7.163-16 16c0 8.837 7.163 16 16 16 0.004 0 0.008 0 0.013 0h38.802c0.004 0 0.009 0 0.013 0 8.837 0 16-7.163 16-16s-7.163-16-16-16c-8.837 0-16 7.163-16 16 0 4.202 1.62 8.025 4.269 10.88h-15.365zM54.831 26.88h-0.014c-6.004-0.006-10.87-4.875-10.87-10.88 0-6.009 4.871-10.88 10.88-10.88s10.88 4.871 10.88 10.88c0 6.008-4.869 10.878-10.876 10.88z"></path>-->
<!--</svg>-->
<svg  id="icon-header_logo" width="72" height="32" viewBox="0 0 72 32"  xmlns="http://www.w3.org/2000/svg">
    <path fill-rule="evenodd" clip-rule="evenodd" d="M12 3.84C7.49335 3.84 3.84 7.49336 3.84 12C3.84 16.5056 7.49168 20.1583 11.9969 20.16H12C12.0026 20.16 12.0052 20.16 12.0078 20.16C16.5109 20.1558 20.16 16.504 20.16 12C20.16 7.49336 16.5066 3.84 12 3.84ZM20.7986 20.16C22.7853 18.0188 24 15.1513 24 12C24 5.37258 18.6274 0 12 0C5.37258 0 0 5.37258 0 12C0 18.6274 5.37258 24 12 24C12.0032 24 12.0063 24 12.0095 24H41.1111C41.1143 24 41.1175 24 41.1206 24C47.748 24 53.1206 18.6274 53.1206 12C53.1206 5.37258 47.748 0 41.1206 0C34.4932 0 29.1206 5.37258 29.1206 12C29.1206 15.1513 30.3353 18.0188 32.322 20.16H20.7986ZM41.1235 20.16L41.12 20.16H41.1128C36.6098 20.1558 32.9606 16.504 32.9606 12C32.9606 7.49336 36.614 3.84 41.1206 3.84C45.6273 3.84 49.2806 7.49336 49.2806 12C49.2806 16.5057 45.6288 20.1584 41.1235 20.16Z" />
</svg>
<!--<svg id="icon-header_logo" width="54" height="24" viewBox="0 0 54 24" fill="none" xmlns="http://www.w3.org/2000/svg">-->
<!--    <path fill-rule="evenodd" clip-rule="evenodd" d="M12 3.84C7.49335 3.84 3.84 7.49336 3.84 12C3.84 16.5056 7.49168 20.1583 11.9969 20.16H12C12.0026 20.16 12.0052 20.16 12.0078 20.16C16.5109 20.1558 20.16 16.504 20.16 12C20.16 7.49336 16.5066 3.84 12 3.84ZM20.7986 20.16C22.7853 18.0188 24 15.1513 24 12C24 5.37258 18.6274 0 12 0C5.37258 0 0 5.37258 0 12C0 18.6274 5.37258 24 12 24C12.0032 24 12.0063 24 12.0095 24H41.1111C41.1143 24 41.1175 24 41.1206 24C47.748 24 53.1206 18.6274 53.1206 12C53.1206 5.37258 47.748 0 41.1206 0C34.4932 0 29.1206 5.37258 29.1206 12C29.1206 15.1513 30.3353 18.0188 32.322 20.16H20.7986ZM41.1235 20.16L41.12 20.16H41.1128C36.6098 20.1558 32.9606 16.504 32.9606 12C32.9606 7.49336 36.614 3.84 41.1206 3.84C45.6273 3.84 49.2806 7.49336 49.2806 12C49.2806 16.5057 45.6288 20.1584 41.1235 20.16Z" fill="#1B63F0"/>-->
<!--</svg>-->

<!--header-->

<!--categories-->
<svg id="icon-about_afford" width="56" height="56" viewBox="0 0 32 32" x="0" y="0">
<path fill="#1b63f0" d="M6.208 30.87h21.984c0-0.928-4.32-1.696-9.856-1.792v-1.952c0.032 0 0.064 0 0.096 0 5.248-0.64 9.248-5.12 9.248-10.464 0-2.976-1.28-5.824-3.488-7.808-0.256-0.224-0.544-0.448-0.8-0.672l1.376-2.496c0.512-0.928 0.16-2.080-0.768-2.592l-3.136-1.728c-0.928-0.512-2.080-0.16-2.592 0.768l-6.144 11.296c-0.512 0.928-0.16 2.080 0.768 2.592l3.136 1.728c0.288 0.128 0.608 0.192 0.928 0.192 0.192 0 0.352-0.032 0.544-0.064 0.48-0.128 0.896-0.48 1.12-0.928l3.904-7.168c0.16 0.128 0.32 0.256 0.48 0.416 1.824 1.664 2.88 4.032 2.88 6.496 0 4.416-3.328 8.16-7.712 8.672-0.768 0.096-1.536 0.064-2.304-0.032-2.432-0.352-4.544-1.696-5.888-3.68h8.384c0.48 0 0.896-0.384 0.896-0.896s-0.384-0.896-0.864-0.896h-13.696c-0.48 0-0.896 0.384-0.896 0.896s0.384 0.896 0.896 0.896h3.232c1.568 2.912 4.384 4.928 7.712 5.44 0.032 0 0.096 0 0.128 0v2.016c-5.408 0.064-9.568 0.832-9.568 1.76zM17.088 16.118c-0.032 0.032-0.064 0.064-0.096 0.064s-0.064 0-0.096 0l-3.136-1.728c-0.064-0.032-0.096-0.128-0.064-0.192l6.112-11.232c0.032-0.064 0.128-0.096 0.192-0.064l3.136 1.728c0.064 0.032 0.096 0.128 0.064 0.192l-6.112 11.232z"></path>
</svg>
<svg id="icon-about_certificate" width="56" height="56" viewBox="0 0 32 32" x="0" y="0">
<path fill="#1b63f0" d="M29.705 18.096h-3.584v-13.408c0-2.080-1.696-3.808-3.776-3.808h-0.032c-0.128 0-0.288 0-0.416 0h-15.456c-3.104 0-5.664 2.528-5.664 5.664v2.112c0 0.896 0.736 1.632 1.632 1.632h3.136v14.624c0 1.696 1.376 3.104 3.104 3.104h3.808v2.048c0 0.384 0.224 0.768 0.576 0.928 0.16 0.096 0.32 0.128 0.512 0.128s0.416-0.064 0.576-0.192l2.24-1.504 2.24 1.504c0.32 0.224 0.736 0.224 1.088 0.064 0.352-0.192 0.576-0.544 0.576-0.928v-2.080c0.064 0.032 0.16 0.032 0.224 0.032h7.392c0.128 0 0.224 0 0.32-0.032h0.064c0.064 0 0.16-0.032 0.256-0.032 0.032 0 0.064 0 0.064 0 0.032 0 0.064 0 0.064-0.032 0.064 0 0.096-0.032 0.16-0.032 0.032 0 0.096-0.032 0.128-0.032s0.064 0 0.064-0.032c0.096-0.032 0.192-0.064 0.256-0.096 0.032 0 0.064-0.032 0.064-0.032 0.032 0 0.032-0.032 0.064-0.032 0.096-0.032 0.16-0.096 0.256-0.128 0.064-0.032 0.16-0.096 0.224-0.16 0 0 0.032 0 0.032-0.032l0.064-0.064c0.064-0.064 0.128-0.096 0.192-0.16 0.096-0.096 0.224-0.192 0.288-0.32 0.064-0.064 0.16-0.192 0.224-0.32 0-0.032 0.032-0.032 0.032-0.064s0.032-0.032 0.032-0.064c0-0.032 0.032-0.032 0.032-0.064 0.032-0.064 0.064-0.096 0.096-0.16s0.064-0.128 0.096-0.192c0-0.032 0.032-0.064 0.032-0.096 0.064-0.192 0.128-0.384 0.16-0.576 0.032-0.224 0.064-0.448 0.064-0.704v-4.832c0.128-0.896-0.608-1.632-1.504-1.632zM2.537 6.512c0-2.144 1.76-3.904 3.904-3.904h12.32c-0.448 0.64-0.704 1.44-0.704 2.272v3.584h-15.52v-1.952zM16.329 23.76c-1.888 0-3.424-1.536-3.424-3.424s1.536-3.392 3.424-3.392c1.888 0 3.424 1.536 3.424 3.424s-1.536 3.392-3.424 3.392zM16.329 27.248l-2.144 1.408v-3.584c0.64 0.288 1.376 0.48 2.144 0.48s1.472-0.16 2.144-0.48v3.616l-2.144-1.44zM20.233 26.224v-2.464c0.8-0.896 1.28-2.080 1.28-3.392 0-2.848-2.304-5.184-5.184-5.184-2.848 0-5.184 2.304-5.184 5.184 0 1.28 0.48 2.464 1.28 3.392v2.432h-3.808c-0.736 0-1.344-0.608-1.344-1.344v-14.624h10.88c0.896 0 1.632-0.736 1.632-1.632v-3.68c0-1.184 0.928-2.208 2.112-2.272h0.416c1.12 0 2.048 0.928 2.048 2.048v19.808c0 0.608 0.16 1.216 0.448 1.728h-4.352c-0.096-0.032-0.16-0.032-0.224 0zM29.513 24.816c-0.032 0.096-0.064 0.224-0.096 0.32-0.032 0.064-0.064 0.096-0.064 0.16l-0.064 0.096c-0.032 0.032-0.064 0.096-0.096 0.128l-0.032 0.032c-0.032 0.032-0.064 0.096-0.128 0.128-0.032 0.032-0.064 0.064-0.128 0.096l-0.032 0.032c-0.096 0.064-0.192 0.128-0.288 0.16-0.032 0.032-0.064 0.032-0.096 0.032s-0.064 0.032-0.096 0.032l-0.064 0.032c-0.032 0-0.096 0.032-0.128 0.032h-0.032c-0.032 0-0.096 0.032-0.128 0.032h-0.064c-0.064 0-0.096 0-0.16 0-0.96 0-1.728-0.768-1.728-1.728v-4.544h3.424c0 0 0.032 4.864 0 4.96z"></path>
</svg>
<svg id="icon-about_life_program" width="56" height="56" viewBox="0 0 32 32" x="0" y="0">
<path fill="#1b63f0" d="M27.135 25.648l-3.584-7.936c1.216-1.12 2.176-2.528 2.816-4.128 0.16-0.448-0.064-0.96-0.512-1.152s-0.96 0.064-1.152 0.512c-0.448 1.152-1.12 2.208-1.952 3.072l-2.432-5.408c0.384-0.704 0.576-1.472 0.576-2.304 0-2.368-1.664-4.32-3.872-4.8v-1.536c0-0.544-0.448-0.992-0.992-0.992s-0.992 0.448-0.992 0.992v1.536c-2.208 0.48-3.872 2.432-3.872 4.8 0 0.832 0.224 1.632 0.576 2.304l-2.432 5.408c-0.832-0.864-1.472-1.888-1.952-3.072-0.192-0.448-0.672-0.672-1.152-0.512-0.448 0.192-0.672 0.672-0.512 1.152 0.64 1.632 1.6 3.008 2.816 4.128l-3.584 7.936-0.128 4.288c0 0.416 0.224 0.8 0.608 0.992 0.128 0.064 0.288 0.096 0.416 0.096 0.256 0 0.512-0.096 0.704-0.288l3.104-2.944 3.392-7.52c0.96 0.256 1.952 0.416 2.976 0.416s2.016-0.16 2.976-0.416l3.392 7.52 3.104 2.944c0.192 0.192 0.448 0.288 0.704 0.288 0.128 0 0.288-0.032 0.416-0.096 0.384-0.16 0.64-0.544 0.608-0.992l-0.064-4.288zM14.431 12.912l-2.304 5.12c-0.512-0.224-0.992-0.512-1.472-0.832l2.304-5.088c0.448 0.352 0.928 0.608 1.472 0.8zM19.103 12.112l2.304 5.088c-0.448 0.32-0.96 0.608-1.472 0.832l-2.304-5.12c0.544-0.192 1.024-0.448 1.472-0.8zM16.031 5.168c1.728 0 3.136 1.408 3.136 3.136s-1.408 3.136-3.136 3.136c-1.728 0-3.136-1.408-3.136-3.136s1.408-3.136 3.136-3.136zM8.223 26.736l-1.6 1.504 0.064-2.176 3.264-7.232c0.48 0.32 0.96 0.576 1.472 0.8l-3.2 7.104zM16.031 18.896c-0.768 0-1.504-0.096-2.24-0.256l2.24-4.96 2.24 4.96c-0.736 0.16-1.472 0.256-2.24 0.256zM23.839 26.736l-3.2-7.072c0.512-0.224 0.992-0.512 1.472-0.8l3.264 7.2 0.064 2.176-1.6-1.504z"></path>
</svg>
<svg id="icon-about_social" width="56" height="56" viewBox="0 0 32 32" x="0" y="0">
<path fill="#1b63f0" d="M9.008 2.608h16.896c0.48 0 0.896-0.384 0.896-0.896s-0.416-0.864-0.896-0.864h-16.896c-1.952 0-3.552 1.44-3.776 3.328-0.032 0.064-0.032 0.16-0.032 0.256v23.936c0 1.536 1.248 2.784 2.784 2.784h17.312c0.64 0 1.184-0.544 1.184-1.184v-22.048c0-0.64-0.544-1.184-1.184-1.184h-16.288c-1.12 0-2.080-0.96-2.080-2.080s0.96-2.048 2.080-2.048zM9.008 8.496h15.712v20.896h-16.736c-0.576 0-1.024-0.448-1.024-1.024v-20.48c0.576 0.384 1.28 0.608 2.048 0.608z"></path>
<path fill="#1b63f0" d="M20.048 25.776h-8.128c-0.48 0-0.896 0.384-0.896 0.896s0.384 0.896 0.896 0.896h8.096c0.48 0 0.896-0.384 0.896-0.896s-0.384-0.896-0.864-0.896z"></path>
<path fill="#1b63f0" d="M11.088 14.16h9.76c0.352 0 0.64-0.288 0.64-0.64v-1.92c0-0.352-0.288-0.64-0.64-0.64h-9.76c-0.352 0-0.64 0.288-0.64 0.64v1.92c0 0.352 0.288 0.64 0.64 0.64z"></path>
</svg>
<!--categories-->

<!--course-->
<svg id="arrow_left" width="9" height="14" viewBox="0 0 9 14" fill="none" xmlns="http://www.w3.org/2000/svg">
    <path d="M7.5 13L1.5 7L7.5 1" stroke-width="2" stroke-linecap="round" stroke-linejoin="round"/>
</svg>
<svg id="arrow_right" width="9" height="14" viewBox="0 0 9 14" fill="none" xmlns="http://www.w3.org/2000/svg">
    <path d="M1.5 13L7.5 7L1.5 1"  stroke-width="2" stroke-linecap="round" stroke-linejoin="round"/>
</svg>
<svg id="star_active" width="9" height="10" viewBox="0 0 9 10" fill="none" xmlns="http://www.w3.org/2000/svg">
    <path d="M7.50298 8.9856C7.56856 9.39735 7.13102 9.70378 6.7665 9.50139L4.806 8.4129C4.65505 8.32909 4.47154 8.32909 4.32059 8.4129L2.36008 9.50139C1.99556 9.70378 1.55802 9.39735 1.6236 8.9856L1.99202 6.6726C2.01695 6.51613 1.96623 6.3571 1.85532 6.24395L0.183568 4.53843C-0.101772 4.24733 0.0624205 3.75546 0.465407 3.69413L2.71428 3.35185C2.88076 3.32652 3.0233 3.21908 3.09351 3.06602L4.04554 0.99069C4.22385 0.601993 4.77615 0.601994 4.95446 0.99069L5.90649 3.06602C5.9767 3.21908 6.11924 3.32652 6.28572 3.35185L8.56433 3.69865C8.96154 3.75911 9.12883 4.23966 8.85502 4.5337L7.26116 6.24533C7.15625 6.35799 7.10909 6.5127 7.13331 6.66472L7.50298 8.9856Z" fill="#FDD22F"/>
</svg>
<svg id="star_not" width="9" height="10" viewBox="0 0 9 10" fill="none" xmlns="http://www.w3.org/2000/svg">
    <path d="M7.50298 8.9856C7.56856 9.39735 7.13102 9.70378 6.7665 9.50139L4.806 8.4129C4.65505 8.32909 4.47154 8.32909 4.32059 8.4129L2.36008 9.50139C1.99556 9.70378 1.55802 9.39735 1.6236 8.9856L1.99202 6.6726C2.01695 6.51613 1.96623 6.3571 1.85532 6.24395L0.183568 4.53843C-0.101772 4.24733 0.0624205 3.75546 0.465407 3.69413L2.71428 3.35185C2.88076 3.32652 3.0233 3.21908 3.09351 3.06602L4.04554 0.99069C4.22385 0.601993 4.77615 0.601994 4.95446 0.99069L5.90649 3.06602C5.9767 3.21908 6.11924 3.32652 6.28572 3.35185L8.56433 3.69865C8.96154 3.75911 9.12883 4.23966 8.85502 4.5337L7.26116 6.24533C7.15625 6.35799 7.10909 6.5127 7.13331 6.66472L7.50298 8.9856Z" fill="#DEDEDE"/>
</svg>
<!--course-->

<!--explore-->
<svg id="icon-map" width="20" height="20" viewBox="0 0 32 32" x="0" y="0">
    <path fill="none" stroke="#838383" stroke-linejoin="round" stroke-linecap="round" stroke-miterlimit="4" stroke-width="2.4" d="M28 13.333c0 9.333-12 17.333-12 17.333s-12-8-12-17.333c0-3.183 1.264-6.235 3.515-8.485s5.303-3.515 8.485-3.515c3.183 0 6.235 1.264 8.485 3.515s3.515 5.303 3.515 8.485z"></path>
    <path fill="none" stroke="#838383" stroke-linejoin="round" stroke-linecap="round" stroke-miterlimit="4" stroke-width="2.4" d="M16 17.333c2.209 0 4-1.791 4-4s-1.791-4-4-4c-2.209 0-4 1.791-4 4s1.791 4 4 4z"></path>
</svg>
<svg id="icon-calendar" width="20" height="20" viewBox="0 0 32 32" x="0" y="0">
    <path fill="none" stroke="#838383" stroke-linejoin="round" stroke-linecap="round" stroke-miterlimit="4" stroke-width="2.4" d="M25.333 5.333h-18.667c-1.473 0-2.667 1.194-2.667 2.667v18.667c0 1.473 1.194 2.667 2.667 2.667h18.667c1.473 0 2.667-1.194 2.667-2.667v-18.667c0-1.473-1.194-2.667-2.667-2.667z"></path>
    <path fill="none" stroke="#838383" stroke-linejoin="round" stroke-linecap="round" stroke-miterlimit="4" stroke-width="2.4" d="M21.333 2.667v5.333"></path>
    <path fill="none" stroke="#838383" stroke-linejoin="round" stroke-linecap="round" stroke-miterlimit="4" stroke-width="2.4" d="M10.667 2.667v5.333"></path>
    <path fill="none" stroke="#838383" stroke-linejoin="round" stroke-linecap="round" stroke-miterlimit="4" stroke-width="2.4" d="M4 13.333h24"></path>
</svg>
<svg id="icon-clock" width="20" height="20" viewBox="0 0 32 32" x="0" y="0">
    <path fill="none" stroke="#838383" stroke-linejoin="round" stroke-linecap="round" stroke-miterlimit="4" stroke-width="2.4" d="M16 29.333c7.364 0 13.333-5.969 13.333-13.333s-5.97-13.333-13.333-13.333c-7.364 0-13.333 5.97-13.333 13.333s5.97 13.333 13.333 13.333z"></path>
    <path fill="none" stroke="#838383" stroke-linejoin="round" stroke-linecap="round" stroke-miterlimit="4" stroke-width="2.4" d="M16 8v8l5.333 2.667"></path>
</svg>
<!--explore-->

<!--costumers-->
<svg id="icon-quotes" width="32" height="32" viewBox="0 0 32 32" x="0" y="0">
    <path fill="#3f4c9a" d="M10.338 15.024c1.231 0.542 2.191 1.354 2.88 2.437s1.034 2.363 1.034 3.84c0 2.117-0.665 3.84-1.994 5.169-1.329 1.28-3.028 1.92-5.095 1.92s-3.791-0.665-5.169-1.994c-1.329-1.329-1.994-3.028-1.994-5.095 0-0.985 0.123-1.969 0.369-2.954s0.788-2.462 1.625-4.431l4.283-10.634h7.311l-3.249 11.742zM27.766 15.024c1.231 0.542 2.191 1.354 2.88 2.437s1.034 2.363 1.034 3.84c0 2.117-0.665 3.84-1.994 5.169-1.329 1.28-3.028 1.92-5.095 1.92s-3.791-0.665-5.169-1.994c-1.329-1.329-1.994-3.028-1.994-5.095 0-0.985 0.123-1.969 0.369-2.954s0.788-2.462 1.625-4.431l4.283-10.634h7.311l-3.249 11.742z"></path>
</svg>
<!--costumers-->

<!--get_started-->
<svg id="icon-link-2chain" width="24" height="24" viewBox="0 0 32 32" x="0" y="0">
    <path fill="none" stroke="#fff" stroke-linejoin="round" stroke-linecap="round" stroke-miterlimit="4" stroke-width="2.6667" d="M13.333 17.333c0.573 0.765 1.303 1.399 2.142 1.857s1.767 0.731 2.72 0.799c0.953 0.068 1.911-0.069 2.806-0.403s1.709-0.857 2.385-1.533l4-4c1.214-1.257 1.886-2.941 1.871-4.689s-0.716-3.42-1.952-4.656c-1.236-1.236-2.908-1.937-4.656-1.952s-3.432 0.657-4.689 1.871l-2.293 2.28"></path>
    <path fill="none" stroke="#fff" stroke-linejoin="round" stroke-linecap="round" stroke-miterlimit="4" stroke-width="2.6667" d="M18.667 14.667c-0.573-0.765-1.303-1.399-2.142-1.857s-1.767-0.731-2.72-0.799c-0.954-0.068-1.911 0.069-2.806 0.403s-1.709 0.857-2.385 1.533l-4 4c-1.214 1.257-1.886 2.941-1.871 4.689s0.716 3.42 1.952 4.656c1.236 1.236 2.908 1.937 4.656 1.952s3.432-0.657 4.689-1.871l2.28-2.28"></path>
</svg>
<svg id="pen_tool" width="24" height="24" viewBox="0 0 24 24" fill="none" xmlns="http://www.w3.org/2000/svg">
    <path d="M12 19L19 12L22 15L15 22L12 19Z" stroke="white" stroke-width="2" stroke-linecap="round" stroke-linejoin="round"/>
    <path d="M18 13L16.5 5.5L2 2L5.5 16.5L13 18L18 13Z" stroke="white" stroke-width="2" stroke-linecap="round" stroke-linejoin="round"/>
    <path d="M2 2L9.586 9.586" stroke="white" stroke-width="2" stroke-linecap="round" stroke-linejoin="round"/>
    <path d="M11 13C12.1046 13 13 12.1046 13 11C13 9.89543 12.1046 9 11 9C9.89543 9 9 9.89543 9 11C9 12.1046 9.89543 13 11 13Z" stroke="white" stroke-width="2" stroke-linecap="round" stroke-linejoin="round"/>
</svg>
<svg id="icon-briefcasereview" width="24" height="24" viewBox="0 0 32 32" x="0" y="0">
    <path fill="none" stroke="#fff" stroke-linejoin="round" stroke-linecap="round" stroke-miterlimit="4" stroke-width="2.6667" d="M26.667 9.333h-21.333c-1.473 0-2.667 1.194-2.667 2.667v13.333c0 1.473 1.194 2.667 2.667 2.667h21.333c1.473 0 2.667-1.194 2.667-2.667v-13.333c0-1.473-1.194-2.667-2.667-2.667z"></path>
    <path fill="none" stroke="#fff" stroke-linejoin="round" stroke-linecap="round" stroke-miterlimit="4" stroke-width="2.6667" d="M21.333 28v-21.333c0-0.707-0.281-1.386-0.781-1.886s-1.178-0.781-1.886-0.781h-5.333c-0.707 0-1.386 0.281-1.886 0.781s-0.781 1.178-0.781 1.886v21.333"></path>
</svg>
<svg id="icon-book-openbook" width="24" height="24" viewBox="0 0 32 32" x="0" y="0">
    <path fill="none" stroke="#fff" stroke-linejoin="round" stroke-linecap="round" stroke-miterlimit="4" stroke-width="2.6667" d="M2.667 4h8c1.415 0 2.771 0.562 3.771 1.562s1.562 2.357 1.562 3.771v18.667c0-1.061-0.421-2.078-1.172-2.828s-1.768-1.172-2.828-1.172h-9.333v-20z"></path>
    <path fill="none" stroke="#fff" stroke-linejoin="round" stroke-linecap="round" stroke-miterlimit="4" stroke-width="2.6667" d="M29.333 4h-8c-1.415 0-2.771 0.562-3.771 1.562s-1.562 2.357-1.562 3.771v18.667c0-1.061 0.421-2.078 1.172-2.828s1.768-1.172 2.828-1.172h9.333v-20z"></path>
</svg>
<svg id="icon-squareqa" width="24" height="24" viewBox="0 0 32 32" x="0" y="0">
    <path fill="none" stroke="#fff" stroke-linejoin="round" stroke-linecap="round" stroke-miterlimit="4" stroke-width="2.6667" d="M28 20c0 0.707-0.281 1.385-0.781 1.886s-1.178 0.781-1.886 0.781h-16l-5.333 5.333v-21.333c0-0.707 0.281-1.386 0.781-1.886s1.178-0.781 1.886-0.781h18.667c0.707 0 1.385 0.281 1.886 0.781s0.781 1.178 0.781 1.886v13.333z"></path>
</svg>
<!--get_started-->

<!--navigation_links-->
<svg id="icon-facebook" width="24" height="24" viewBox="0 0 32 32" x="0" y="0">
<path fill="none" stroke-linejoin="round" stroke-linecap="round" stroke-miterlimit="4" stroke-width="2.6667" stroke="#000" d="M24 2.667h-4c-1.768 0-3.464 0.702-4.714 1.953s-1.953 2.946-1.953 4.714v4h-4v5.333h4v10.667h5.333v-10.667h4l1.333-5.333h-5.333v-4c0-0.354 0.141-0.693 0.391-0.943s0.589-0.391 0.943-0.391h4v-5.333z"></path>
</svg>
<svg id="icon-instagram" width="24" height="24" viewBox="0 0 32 32" x="0" y="0">
<path fill="none" stroke-linejoin="round" stroke-linecap="round" stroke-miterlimit="4" stroke-width="2.6667" stroke="#000" d="M22.667 2.667h-13.333c-3.682 0-6.667 2.985-6.667 6.667v13.333c0 3.682 2.985 6.667 6.667 6.667h13.333c3.682 0 6.667-2.985 6.667-6.667v-13.333c0-3.682-2.985-6.667-6.667-6.667z"></path>
<path fill="none" stroke-linejoin="round" stroke-linecap="round" stroke-miterlimit="4" stroke-width="2.6667" stroke="#000" d="M21.333 15.16c0.165 1.11-0.025 2.243-0.542 3.239s-1.334 1.803-2.336 2.307c-1.002 0.504-2.137 0.68-3.245 0.502s-2.131-0.701-2.924-1.494c-0.793-0.793-1.316-1.816-1.494-2.924s-0.003-2.243 0.502-3.245c0.504-1.002 1.312-1.819 2.308-2.336s2.129-0.706 3.239-0.542c1.132 0.168 2.18 0.695 2.989 1.504s1.337 1.857 1.504 2.989z"></path>
<path fill="none" stroke-linejoin="round" stroke-linecap="round" stroke-miterlimit="4" stroke-width="2.6667" stroke="#000" d="M23.333 8.667h0.013"></path>
</svg>
<svg id="icon-twitter" width="24" height="24" viewBox="0 0 32 32" x="0" y="0">
<path fill="none" stroke-linejoin="round" stroke-linecap="round" stroke-miterlimit="4" stroke-width="2.6667" stroke="#000" d="M30.667 4c-1.277 0.901-2.691 1.589-4.187 2.040-0.803-0.923-1.87-1.578-3.057-1.875s-2.437-0.222-3.58 0.214c-1.143 0.436-2.125 1.213-2.812 2.226s-1.047 2.212-1.031 3.435v1.333c-2.343 0.061-4.665-0.459-6.759-1.513s-3.894-2.609-5.241-4.527c0 0-5.333 12 6.667 17.333-2.746 1.864-6.017 2.799-9.333 2.667 12 6.667 26.667 0 26.667-15.333-0.001-0.371-0.037-0.742-0.107-1.107 1.361-1.342 2.321-3.036 2.773-4.893z"></path>
</svg>
<svg id="icon-youtube" width="24" height="24" viewBox="0 0 32 32" x="0" y="0">
<path fill="none" stroke-linejoin="round" stroke-linecap="round" stroke-miterlimit="4" stroke-width="2.6667" stroke="#000" d="M30.053 8.56c-0.158-0.633-0.481-1.213-0.935-1.681s-1.024-0.808-1.651-0.986c-2.293-0.56-11.467-0.56-11.467-0.56s-9.173 0-11.467 0.613c-0.628 0.178-1.197 0.518-1.652 0.986s-0.777 1.048-0.935 1.681c-0.42 2.327-0.625 4.688-0.613 7.053-0.015 2.383 0.19 4.762 0.613 7.107 0.175 0.613 0.504 1.171 0.958 1.619s1.014 0.772 1.629 0.941c2.293 0.613 11.467 0.613 11.467 0.613s9.173 0 11.467-0.613c0.628-0.178 1.197-0.518 1.651-0.986s0.777-1.048 0.935-1.681c0.417-2.31 0.622-4.653 0.613-7 0.015-2.383-0.19-4.762-0.613-7.107v0z"></path>
<path fill="none" stroke-linejoin="round" stroke-linecap="round" stroke-miterlimit="4" stroke-width="2.6667" stroke="#000" d="M13 20.027l7.667-4.36-7.667-4.36v8.72z"></path>
</svg>
<!--navigation_links-->
</svg>
