<svg width="30" height="36" viewBox="0 0 30 36" fill="none" xmlns="http://www.w3.org/2000/svg">
<path d="M20.6984 23.5519C24.3306 17.7836 23.874 18.5032 23.9787 18.3528C25.3011 16.4651 26 14.2433 26 11.9276C26 5.78632 21.0759 0.727295 15 0.727295C8.94387 0.727295 4 5.77633 4 11.9276C4 14.2419 4.7136 16.5218 6.07933 18.4349L9.30147 23.552C5.85647 24.0878 0 25.6845 0 29.2003C0 30.4819 0.826533 32.3084 4.76413 33.7316C7.5136 34.7254 11.1487 35.2728 15 35.2728C22.2017 35.2728 30 33.2168 30 29.2003C30 25.6839 24.1504 24.0889 20.6984 23.5519ZM7.74993 17.3216C7.73893 17.3042 7.72747 17.2872 7.71547 17.2705C6.579 15.6881 6 13.8128 6 11.9276C6 6.866 10.0271 2.75144 15 2.75144C19.9626 2.75144 24 6.86782 24 11.9276C24 13.8158 23.4319 15.6275 22.3569 17.1682C22.2606 17.2968 22.7632 16.5065 15 28.8352L7.74993 17.3216ZM15 33.2486C7.13373 33.2486 2 30.9085 2 29.2003C2 28.0522 4.63787 26.1644 10.4832 25.4286L14.1567 31.2624C14.3403 31.554 14.6583 31.7305 14.9999 31.7305C15.3416 31.7305 15.6597 31.5539 15.8432 31.2624L19.5166 25.4286C25.3621 26.1644 28 28.0522 28 29.2003C28 30.894 22.9125 33.2486 15 33.2486Z" fill="#2F8BEE"/>
<path d="M15 6.86721C12.243 6.86721 10 9.13729 10 11.9276C10 14.7179 12.243 16.9879 15 16.9879C17.757 16.9879 20 14.7179 20 11.9276C20 9.13729 17.757 6.86721 15 6.86721ZM15 14.9638C13.3458 14.9638 12 13.6018 12 11.9276C12 10.2534 13.3458 8.89136 15 8.89136C16.6542 8.89136 18 10.2534 18 11.9276C18 13.6018 16.6542 14.9638 15 14.9638Z" fill="#2F8BEE"/>
</svg>
