<svg width="22" height="20" viewBox="0 0 22 20" fill="none" xmlns="http://www.w3.org/2000/svg">
<path d="M19.1363 2.96304C18.6727 2.48258 18.1189 2.10079 17.5075 1.84013C16.8961 1.57947 16.2394 1.44519 15.576 1.44519C14.9125 1.44519 14.2558 1.57947 13.6444 1.84013C13.033 2.10079 12.4792 2.48258 12.0157 2.96304L10.9923 3.99909L9.97965 2.96304C9.51609 2.48258 8.96232 2.10079 8.3509 1.84013C7.73948 1.57947 7.08276 1.44519 6.41934 1.44519C5.75592 1.44519 5.0992 1.57947 4.48778 1.84013C3.87636 2.10079 3.32259 2.48258 2.85903 2.96304V2.96304C2.38608 3.43216 2.01036 3.99211 1.75386 4.61008C1.49735 5.22806 1.36523 5.89164 1.36523 6.56195C1.36523 7.23227 1.49735 7.89584 1.75386 8.51382C2.01036 9.13179 2.38608 9.69174 2.85903 10.1609L5.17512 12.5056L7.43734 14.7958L10.9923 18.3947L14.5472 14.7958L16.8094 12.5056L19.1255 10.1609C19.5992 9.69246 19.9757 9.13309 20.2331 8.51551C20.4906 7.89793 20.6237 7.23456 20.6247 6.56424C20.6257 5.89393 20.4946 5.23015 20.239 4.61178C19.9834 3.99341 19.6085 3.43289 19.1363 2.96304V2.96304Z" stroke="black" stroke-width="1.6" stroke-miterlimit="10"/>
</svg>
