<svg width="200" height="31" viewBox="0 0 200 31" fill="none" xmlns="http://www.w3.org/2000/svg">
<path d="M0 0.423191V30.0466H12.4841C17.0546 30.0466 26.0262 29.8773 26.0262 21.4135C26.0262 17.8587 23.9949 15.6581 21.3288 14.4731C23.5294 13.0766 25.1799 11.1299 25.1799 8.08295C25.1799 0.507829 16.6314 0.423191 12.4841 0.423191H0ZM14.0076 17.774C16.2928 17.774 19.0013 18.1549 19.0013 21.0326C19.0013 23.9103 16.2928 24.5028 14.0076 24.5028H6.60178V17.774H14.0076ZM13.2882 5.96699C15.5734 5.96699 18.2818 6.55946 18.2818 9.43716C18.2818 12.3149 15.5734 12.7804 13.2882 12.7804H6.60178V5.96699H13.2882ZM36.1405 30.0466H43.0808V0.423191H36.1405V30.0466ZM68.8955 0.423191H62.0398L50.8675 30.0466H58.0195L60.0931 24.1219H71.223L73.3813 30.0466H80.4909L68.8955 0.423191ZM65.5099 8.37918L69.1917 18.6204H61.9975L65.5099 8.37918ZM107.914 30.0466H113.923V0.423191H107.744V19.8477L93.6098 0.423191H87.6005V30.0466H93.7791V10.6644L107.914 30.0466ZM144.816 21.0749C142.912 23.4448 140.457 24.5028 137.368 24.5028C132.289 24.5028 128.481 20.4824 128.481 15.2349C128.481 9.77571 132.289 5.96699 137.368 5.96699C140.457 5.96699 142.912 7.06729 144.816 9.43716L148.667 4.35887C145.535 1.35421 142.234 0 137.156 0C127.973 0 121.667 6.77105 121.667 15.2349C121.667 23.6987 127.846 30.4697 137.156 30.4697C142.277 30.4697 145.959 28.65 149.09 25.857L144.816 21.0749ZM154.295 15.2349C154.295 23.6987 160.474 30.4697 169.784 30.4697C178.967 30.4697 185.273 23.6987 185.273 15.2349C185.273 6.77105 179.094 0 169.784 0C160.601 0 154.295 6.77105 154.295 15.2349ZM178.46 15.2349C178.46 20.5248 174.82 24.5028 169.784 24.5028C164.748 24.5028 161.109 20.5248 161.109 15.2349C161.109 9.94499 164.748 5.96699 169.784 5.96699C174.82 5.96699 178.46 9.94499 178.46 15.2349ZM192.044 26.4918C192.044 28.6923 193.821 30.4697 196.022 30.4697C198.223 30.4697 200 28.6923 200 26.4918C200 24.2912 198.223 22.5138 196.022 22.5138C193.821 22.5138 192.044 24.2912 192.044 26.4918Z" fill="black"/>
</svg>
