<svg width="19" height="18" viewBox="0 0 19 18" fill="none" xmlns="http://www.w3.org/2000/svg">
<path d="M17.7515 15.4326L14.5305 12.2211C15.5697 10.8971 16.1336 9.2621 16.1315 7.57895C16.1315 6.07998 15.687 4.61466 14.8542 3.36831C14.0215 2.12196 12.8378 1.15055 11.4529 0.576916C10.068 0.00328381 8.54418 -0.146805 7.074 0.145631C5.60383 0.438066 4.25339 1.15989 3.19346 2.21983C2.13352 3.27976 1.4117 4.6302 1.11926 6.10037C0.826828 7.57054 0.976917 9.09442 1.55055 10.4793C2.12418 11.8642 3.09559 13.0478 4.34195 13.8806C5.5883 14.7134 7.05361 15.1579 8.55258 15.1579C10.2357 15.16 11.8707 14.5961 13.1947 13.5568L16.4063 16.7779C16.4943 16.8667 16.5991 16.9372 16.7146 16.9853C16.83 17.0334 16.9538 17.0581 17.0789 17.0581C17.204 17.0581 17.3278 17.0334 17.4432 16.9853C17.5587 16.9372 17.6635 16.8667 17.7515 16.7779C17.8403 16.6898 17.9108 16.585 17.9589 16.4696C18.007 16.3542 18.0318 16.2303 18.0318 16.1053C18.0318 15.9802 18.007 15.8564 17.9589 15.7409C17.9108 15.6255 17.8403 15.5207 17.7515 15.4326ZM2.86837 7.57895C2.86837 6.45472 3.20175 5.35574 3.82634 4.42097C4.45092 3.48621 5.33868 2.75765 6.37733 2.32743C7.41598 1.8972 8.55889 1.78463 9.66152 2.00396C10.7641 2.22329 11.777 2.76466 12.5719 3.55961C13.3669 4.35456 13.9082 5.36739 14.1276 6.47002C14.3469 7.57265 14.2343 8.71555 13.8041 9.7542C13.3739 10.7929 12.6453 11.6806 11.7106 12.3052C10.7758 12.9298 9.67682 13.2632 8.55258 13.2632C7.04504 13.2632 5.59924 12.6643 4.53324 11.5983C3.46724 10.5323 2.86837 9.0865 2.86837 7.57895Z" fill="black"/>
</svg>
