<svg width="16" height="20" viewBox="0 0 16 20" fill="none" xmlns="http://www.w3.org/2000/svg">
<path d="M5.0083 9.69316V4.16989C5.04518 3.4087 5.37763 2.69316 5.93314 2.17932C6.48864 1.66548 7.22215 1.39502 7.97369 1.42693V1.42693C8.72523 1.39502 9.45873 1.66548 10.0142 2.17932C10.5697 2.69316 10.9022 3.4087 10.9391 4.16989V9.69316" stroke="black" stroke-width="1.6" stroke-miterlimit="10" stroke-linecap="round"/>
<path d="M8.03155 18.5677H14.1888C14.2836 18.5677 14.4311 18.5677 14.4785 18.4717C14.5352 18.3798 14.5695 18.2755 14.5786 18.1675L13.7938 6.77409C13.7952 6.72158 13.7861 6.66933 13.7671 6.62047C13.7481 6.57161 13.7195 6.52715 13.6831 6.48977C13.6467 6.45238 13.6032 6.42284 13.5553 6.40292C13.5073 6.383 13.4558 6.37311 13.404 6.37385H2.59588C2.54405 6.37311 2.4926 6.383 2.44464 6.40292C2.39667 6.42284 2.35318 6.45238 2.31677 6.48977C2.28036 6.52715 2.25179 6.57161 2.23277 6.62047C2.21376 6.66933 2.20469 6.72158 2.20611 6.77409L1.44238 18.1675C1.45145 18.2755 1.48575 18.3798 1.54246 18.4717C1.58986 18.5677 1.73734 18.5677 1.83215 18.5677H8.03155Z" stroke="black" stroke-width="1.6" stroke-miterlimit="10"/>
</svg>
