<?xml  version="1.0" encoding="iso-8859-1"?>
<!-- Generator: Adobe Illustrator 19.0.0, SVG Export Plug-In . SVG Version: 6.00 Build 0)  -->
<svg fill="#4169e1" version="1.1" id="Layer_1" xmlns="http://www.w3.org/2000/svg" xmlns:xlink="http://www.w3.org/1999/xlink" x="0px" y="0px"
	 viewBox="0 0 496 496" style="enable-background:new 0 0 496 496;" xml:space="preserve">
<g>
	<g>
		<g>
			<path d="M477.072,480l-69.848-147.912L448,291.312l32,32V216H372.688l32,32l-25.248,25.248L341.072,192h-54.864l-17.456-32H256
				v-48h182.128l-29.224-48.712L427.816,16H256V0h-16v160h-69.056l-152,320H0v16h496v-16H477.072z M256,32h148.184l-13.088,32.712
				L409.872,96H256V32z M427.312,248l-16-16H464v52.688l-16-16l-128,128l-56-56l-112,112L131.312,432L268,295.312l56,56L427.312,248
				z M36.656,480l144.4-304h78.192l45.728,83.832l14.048-7.664L294.928,208h36l36.488,77.272L324,328.688l-56-56L108.688,432
				L152,475.312l112-112l56,56l75.208-75.208L459.376,480H36.656z"/>
			<rect x="272" y="64" width="16" height="16"/>
			<rect x="304" y="64" width="16" height="16"/>
			<rect x="336" y="64" width="16" height="16"/>
		</g>
	</g>
</g>
<g>
</g>
<g>
</g>
<g>
</g>
<g>
</g>
<g>
</g>
<g>
</g>
<g>
</g>
<g>
</g>
<g>
</g>
<g>
</g>
<g>
</g>
<g>
</g>
<g>
</g>
<g>
</g>
<g>
</g>
</svg>
