<svg fill="#4169e1" version="1.1" id="Uploaded to svgrepo.com"  xmlns="http://www.w3.org/2000/svg" xmlns:xlink="http://www.w3.org/1999/xlink" x="0px" y="0px"
	 width="32px" height="32px" viewBox="0 0 32 32" style="enable-background:new 0 0 32 32;" xml:space="preserve">
<style  type="text/css">
	.puchipuchi_een{fill="#4169e1"}
</style>
<path class="puchipuchi_een" d="M28,9c0.55,0,1-0.45,1-1s-0.45-1-1-1s-1-0.45-1-1s0.45-1,1-1s1-0.45,1-1s-0.45-1-1-1s-1-0.45-1-1
	s-0.45-1-1-1s-1,0.45-1,1s-0.45,1-1,1s-1-0.45-1-1s-0.45-1-1-1s-1,0.45-1,1s-0.45,1-1,1s-1-0.45-1-1s-0.45-1-1-1s-1,0.45-1,1
	s-0.45,1-1,1s-1-0.45-1-1s-0.45-1-1-1s-1,0.45-1,1s-0.45,1-1,1s-1-0.45-1-1s-0.45-1-1-1S9,1.45,9,2S8.55,3,8,3S7,2.55,7,2
	S6.55,1,6,1S5,1.45,5,2S4.55,3,4,3S3,3.45,3,4s0.45,1,1,1s1,0.45,1,1S4.55,7,4,7S3,7.45,3,8s0.45,1,1,1s1,0.45,1,1s-0.45,1-1,1
	s-1,0.45-1,1s0.45,1,1,1s1,0.45,1,1s-0.45,1-1,1s-1,0.45-1,1s0.45,1,1,1s1,0.45,1,1s-0.45,1-1,1s-1,0.45-1,1s0.45,1,1,1s1,0.45,1,1
	s-0.45,1-1,1s-1,0.45-1,1s0.45,1,1,1s1,0.45,1,1s-0.45,1-1,1s-1,0.45-1,1s0.45,1,1,1s1,0.45,1,1s0.45,1,1,1s1-0.45,1-1s0.45-1,1-1
	s1,0.45,1,1s0.45,1,1,1s1-0.45,1-1s0.45-1,1-1s1,0.45,1,1s0.45,1,1,1s1-0.45,1-1s0.45-1,1-1s1,0.45,1,1s0.45,1,1,1s1-0.45,1-1
	s0.45-1,1-1s1,0.45,1,1s0.45,1,1,1s1-0.45,1-1s0.45-1,1-1s1,0.45,1,1s0.45,1,1,1s1-0.45,1-1s0.45-1,1-1s1-0.45,1-1s-0.45-1-1-1
	s-1-0.45-1-1s0.45-1,1-1s1-0.45,1-1s-0.45-1-1-1s-1-0.45-1-1s0.45-1,1-1s1-0.45,1-1s-0.45-1-1-1s-1-0.45-1-1s0.45-1,1-1s1-0.45,1-1
	s-0.45-1-1-1s-1-0.45-1-1s0.45-1,1-1s1-0.45,1-1s-0.45-1-1-1s-1-0.45-1-1S27.45,9,28,9z M25,25c0,1.105-0.895,2-2,2H9
	c-1.105,0-2-0.895-2-2V7c0-1.105,0.895-2,2-2h14c1.105,0,2,0.895,2,2V25z M23,6H9C8.448,6,8,6.448,8,7v18c0,0.552,0.448,1,1,1h14
	c0.552,0,1-0.448,1-1V7C24,6.448,23.552,6,23,6z M21,24h-4c-0.552,0-1-0.447-1-1s0.448-1,1-1h4c0.552,0,1,0.447,1,1S21.552,24,21,24
	z M21,21h-4c-0.552,0-1-0.447-1-1s0.448-1,1-1h4c0.552,0,1,0.447,1,1S21.552,21,21,21z"/>
</svg>