<svg width="27" height="23" viewBox="0 0 27 23" fill="none" xmlns="http://www.w3.org/2000/svg">
<path d="M13.2572 22.0911L2.23012 11.9488C0.792235 10.627 0 8.86713 0 6.99587C0 5.12461 0.792235 3.36629 2.23012 2.0445C5.19318 -0.6815 10.0158 -0.6815 12.9805 2.0445L13.2555 2.31313L13.5306 2.04603C16.4936 -0.678447 21.3162 -0.6815 24.2842 2.0445C25.7221 3.36629 26.5144 5.12613 26.5144 6.99587C26.5144 8.86713 25.7238 10.6254 24.2842 11.9488L13.2572 22.0911ZM7.60612 1.52555C6.07929 1.52555 4.55247 2.05976 3.38965 3.12818C2.26635 4.1615 1.64706 5.53518 1.64706 6.99587C1.64706 8.45808 2.26635 9.83176 3.38965 10.8651L13.2572 19.9406L23.1231 10.8651C24.248 9.83176 24.8673 8.45655 24.8673 6.99587C24.8673 5.53518 24.248 4.1615 23.1231 3.12818C20.8007 0.989816 17.0158 0.992869 14.6934 3.12818C14.4151 3.38461 14.1614 3.67003 13.9424 3.97376L13.2588 4.9216L12.5736 3.97529C12.3513 3.6685 12.0976 3.3846 11.8193 3.12666C10.6565 2.05824 9.13129 1.52403 7.60447 1.52403L7.60612 1.52555Z" fill="#383E44"/>
</svg>
