<?xml version="1.0" encoding="utf-8"?>
<!-- Generator: Adobe Illustrator 22.1.0, SVG Export Plug-In . SVG Version: 6.00 Build 0)  -->
<svg fill="" version="1.1" xmlns="http://www.w3.org/2000/svg" xmlns:xlink="http://www.w3.org/1999/xlink" x="0px" y="0px"
	 viewBox="0 0 147.3 111.5" enable-background="new 0 0 147.3 111.5" xml:space="preserve">
<g id="Layer_1">
</g>
<g id="Layer_2">
	<g>
		<g>
			<path d="M121.1,111.5c-0.2,0-0.3,0-0.5-0.1c-0.8-0.3-1.2-1.1-0.9-1.9c6.1-16.9,3.2-34.9,1.4-46.8c-0.6-3.5-1-6.5-1.2-8.9
				c-0.1-1.7,0.3-3.3,1.2-4.8c13.6-21.7,23-38.9,23.3-42.5c-3.3-0.4-19.5,5.6-39.2,14.5c-1.1,0.5-2.4,0.6-3.5,0.1
				c-21.3-7.7-43.8-8.3-66.7-1.8c-1.2,0.3-2.5,0.2-3.5-0.5c-1.9-1.2-3.9-2.5-5.8-3.7C17.5,9.9,5.2,2,3,3c-0.4,2.1,5.7,11.9,9,17.1
				c4.7,7.6,6.7,10.8,6.7,12.6c0,1-0.5,2.1-1.4,4.1c-3.4,7.6-12.3,28-4.4,72.9c0.1,0.8-0.4,1.6-1.2,1.7c-0.8,0.1-1.6-0.4-1.7-1.2
				c-8.1-45.9,1.1-66.8,4.6-74.7c0.5-1.2,1.1-2.5,1.1-2.9c-0.1-1.2-3.5-6.6-6.2-11C2.1,10-1.2,4.2,0.4,1.5c0.4-0.7,1.1-1.2,1.9-1.4
				c3.8-0.9,12,4.1,24.9,12.5c1.9,1.2,3.9,2.5,5.8,3.7c0.3,0.2,0.7,0.3,1.1,0.1c23.5-6.6,46.6-6,68.5,1.9c0.4,0.2,0.9,0.1,1.3,0
				c39.5-17.9,42-14.8,42.9-13.7c0.9,1.1,3.2,4-23.2,46.1c-0.6,0.9-0.8,1.9-0.8,3c0.1,2.2,0.6,5.1,1.1,8.6
				c1.9,12.2,4.8,30.6-1.5,48.3C122.3,111.1,121.7,111.5,121.1,111.5z M144.4,6.2C144.4,6.2,144.4,6.2,144.4,6.2
				S144.4,6.2,144.4,6.2z"/>
		</g>
		<g>
			<path d="M32.7,57.8c-0.2,0-0.4,0-0.5-0.1c-3.6-1.4-6.4-3.6-8.3-6.7c-0.4-0.6-0.3-1.4,0.3-1.9c0.5-0.5,1.4-0.5,1.9,0l7.5,6.1
				c0.6,0.5,0.7,1.3,0.4,1.9C33.7,57.5,33.2,57.8,32.7,57.8z"/>
		</g>
		<g>
			<path d="M53.5,60.1c-0.6,0-1.1-0.3-1.4-0.9c-0.2-0.5-0.1-1.2,0.3-1.6c3.8-4.2,9.8-5.9,18.4-5.2c0.7,0.1,1.2,0.5,1.3,1.2
				c0.1,0.7-0.2,1.3-0.8,1.6C65.5,58.3,59.6,59.9,53.5,60.1C53.6,60.1,53.6,60.1,53.5,60.1z M62.7,55.6c-1.1,0.2-2.1,0.4-3,0.8
				C60.7,56.2,61.7,55.9,62.7,55.6z"/>
		</g>
		<g>
			<path d="M38.4,76.6c-1.7,0-3-2.4-3.9-4.4c-1.5-3.6-0.5-4.6-0.1-4.9c0.6-0.5,1.8-1.3,4.1,0c1.8-0.7,3.2-0.8,4.2-0.4
				c0.6,0.3,1.1,0.7,1.3,1.4c0.5,1.2,0,2.8-1.3,4.8C42.2,73.9,40.2,76.6,38.4,76.6z M36.8,69.8c0.3,1.1,1.1,2.8,1.7,3.6
				c0.9-0.7,2.3-2.7,2.7-3.7c-0.4,0-1,0.2-1.8,0.5l0,0c-0.7,0.3-1.5,0.2-2.1-0.2C37.1,69.9,37,69.9,36.8,69.8z M41.2,69.2L41.2,69.2
				L41.2,69.2z M38.2,67.4C38.2,67.4,38.2,67.4,38.2,67.4C38.2,67.4,38.2,67.4,38.2,67.4z"/>
		</g>
		<g>
			<path d="M49.6,93.5c-2.2,0-3.6-0.5-4.9-0.9c-0.9-0.3-1.7-0.6-2.8-0.6c-1-0.1-2.1,0-3.3,0.1c-2,0.2-4.3,0.4-6.9-0.2
				c-4.1-1-10.5-6.3-11.2-6.9c-0.6-0.5-0.7-1.3-0.3-2c0.4-0.6,1.2-0.9,1.9-0.5c3.4,1.6,6.2,2.3,8.7,2.2c5.9-4.8,13.5-4.3,23.3,1.7
				l8.2,0.7c0.8,0.1,1.3,0.7,1.4,1.4c0,0.8-0.5,1.4-1.3,1.5c-1.9,0.3-3.9,1-5.8,1.7C54.1,92.7,51.8,93.5,49.6,93.5z M41.1,89
				c0.3,0,0.7,0,1,0c1.4,0.1,2.5,0.5,3.5,0.8c1.2,0.4,2.2,0.7,4,0.7c1.3,0,2.8-0.4,4.5-1l-0.4,0c-0.4,0-0.8-0.2-1.2-0.4
				c-8.6-5.3-15.1-5.9-19.9-1.9c-0.5,0.4-1,0.6-1.6,0.6c-0.5,0-1.1,0-1.6,0c1.1,0.6,2.1,1.1,2.9,1.3c2.1,0.5,4.1,0.3,5.9,0.1
				C39.3,89.1,40.2,89,41.1,89z"/>
		</g>
		<g>
			<path d="M34.3,90.6c-0.5,0-0.9-0.2-1.2-0.6c-1.2-1.6-2-2.9-2.3-4.2C30.7,85,31.2,84.2,32,84c0.8-0.2,1.6,0.3,1.8,1.1
				c0.1,0.3,0.2,0.7,0.4,1.1c0.8-1.3,1.5-2.6,2.4-3.9c0.5-0.7,1.4-0.9,2.1-0.4c0.7,0.5,0.9,1.4,0.4,2.1c-0.8,1.3-1.6,2.6-2.4,3.8
				c-0.4,0.7-0.8,1.3-1.2,2C35.3,90.3,34.9,90.6,34.3,90.6C34.4,90.6,34.3,90.6,34.3,90.6z"/>
		</g>
		<g>
			<path d="M47.9,90.6c-0.2,0-0.3,0-0.5-0.1c-0.4-0.2-0.8-0.5-0.9-0.9c-0.6-1.6-0.9-3.3-1-5c0-0.8,0.6-1.5,1.5-1.5
				c0.8,0,1.5,0.6,1.5,1.5c0,0.7,0.1,1.4,0.2,2.1c0.5-0.4,0.9-0.8,1.3-1.2c0.6-0.6,1.5-0.7,2.1-0.1c0.6,0.6,0.7,1.5,0.1,2.1
				c-0.9,1-2.1,1.9-3.6,2.8C48.4,90.5,48.1,90.6,47.9,90.6z"/>
		</g>
	</g>
</g>
</svg>
