<svg width="32" height="32" viewBox="0 0 32 32" fill="none" xmlns="http://www.w3.org/2000/svg">
<path d="M23.643 32L20.9134 28.7428C18.1977 30.9143 14.9501 32 11.1706 32C8.90289 32 6.92913 31.6185 5.24934 30.8556C3.56955 30.0633 2.26772 28.9629 1.34383 27.5543C0.447944 26.1165 0 24.4438 0 22.5365C0 20.5997 0.489939 18.8537 1.46982 17.2985C2.47769 15.7139 3.9755 14.4227 5.96325 13.425C5.23535 12.486 4.71741 11.591 4.40945 10.74C4.10149 9.8597 3.94751 8.90601 3.94751 7.87896C3.94751 6.41174 4.31146 5.07657 5.03937 3.87345C5.76728 2.67033 6.81715 1.73132 8.18898 1.0564C9.5888 0.352132 11.2406 0 13.1444 0C15.0761 0 16.7139 0.366804 18.0577 1.10041C19.4016 1.83402 20.4095 2.81706 21.0814 4.04952C21.7533 5.28198 22.0612 6.63182 22.0053 8.09904H15.2441C15.2721 7.30674 15.0761 6.70518 14.6562 6.29436C14.2642 5.8542 13.7323 5.63411 13.0604 5.63411C12.3885 5.63411 11.8285 5.83952 11.3806 6.25034C10.9326 6.66117 10.7087 7.18936 10.7087 7.83494C10.7087 8.45117 10.8906 9.09674 11.2546 9.77166C11.6465 10.4466 12.2485 11.2242 13.0604 12.1045L20.2415 19.4553C20.2975 19.3086 20.3675 19.1325 20.4514 18.9271C20.5634 18.7217 20.6754 18.4869 20.7874 18.2228L22.3412 15.4498H29.5223L27.5066 19.2792C26.7507 21.0105 25.8828 22.6538 24.9029 24.2091L32 32H23.643ZM11.5066 25.9257C13.3823 25.9257 15.0481 25.3682 16.5039 24.2531L9.95276 17.6066C7.93701 18.6923 6.92913 20.1596 6.92913 22.0083C6.92913 23.1233 7.33508 24.0624 8.14698 24.8253C8.98688 25.5589 10.1067 25.9257 11.5066 25.9257Z" fill="#0B2B81"/>
</svg>
