<svg width="170" height="64" viewBox="0 0 170 64" fill="none" xmlns="http://www.w3.org/2000/svg">
<path d="M74.88 24.3C73.4267 22.8867 72.7 21.12 72.7 19C72.7 16.88 73.4267 15.12 74.88 13.72C76.3467 12.3067 78.22 11.6 80.5 11.6C83.02 11.6 85 12.52 86.44 14.36C87.08 15.2 87.5333 16.1133 87.8 17.1H84C83.8 16.6867 83.5533 16.34 83.26 16.06C82.5533 15.3533 81.6333 15 80.5 15C79.5133 15 78.6867 15.2667 78.02 15.8C77.3667 16.32 76.9533 16.9533 76.78 17.7H81.4V20.3H76.78C76.9533 21.06 77.3667 21.7 78.02 22.22C78.6733 22.74 79.5 23 80.5 23C81.7533 23 82.7267 22.6 83.42 21.8C83.74 21.44 83.9667 21.04 84.1 20.6H87.9C87.6067 21.68 87.1333 22.6467 86.48 23.5C85.0533 25.4333 83.06 26.4 80.5 26.4C78.22 26.4 76.3467 25.7 74.88 24.3ZM88.6039 28.4V22.6H90.2039L93.0039 12H99.9039L102.704 22.6H104.304V28.4H100.804V26H92.1039V28.4H88.6039ZM93.7039 22.6H99.2039L97.3039 15.4H95.6039L93.7039 22.6ZM105.702 26V12H109.402V17.2H114.802V12H118.502V26H114.802V20.6H109.402V26H105.702ZM121.093 26V12H124.793V26H121.093ZM128.982 24.3C127.528 22.8867 126.802 21.12 126.802 19C126.802 16.88 127.528 15.12 128.982 13.72C130.448 12.3067 132.322 11.6 134.602 11.6C137.122 11.6 139.102 12.52 140.542 14.36C141.182 15.2 141.635 16.1133 141.902 17.1H138.102C137.902 16.6867 137.655 16.34 137.362 16.06C136.655 15.3533 135.735 15 134.602 15C133.442 15 132.502 15.3667 131.782 16.1C131.062 16.8333 130.702 17.8 130.702 19C130.702 20.2 131.062 21.1667 131.782 21.9C132.502 22.6333 133.442 23 134.602 23C135.855 23 136.828 22.6 137.522 21.8C137.842 21.44 138.068 21.04 138.202 20.6H142.002C141.708 21.68 141.235 22.6467 140.582 23.5C139.155 25.4333 137.162 26.4 134.602 26.4C132.322 26.4 130.448 25.7 128.982 24.3ZM142.805 15.4V12H155.305V15.4H150.905V26H147.205V15.4H142.805ZM156.796 26V12H160.496V16.2H163.496C165.296 16.2 166.709 16.66 167.736 17.58C168.776 18.4867 169.296 19.66 169.296 21.1C169.296 22.54 168.776 23.72 167.736 24.64C166.709 25.5467 165.296 26 163.496 26H156.796ZM160.496 22.6H163.696C164.256 22.6 164.696 22.4667 165.016 22.2C165.336 21.92 165.496 21.5533 165.496 21.1C165.496 20.6467 165.336 20.2867 165.016 20.02C164.696 19.74 164.256 19.6 163.696 19.6H160.496V22.6Z" fill="#92C431"/>
<path d="M73.17 50V37.4H82.35V40.46H76.5V50H73.17ZM83.7872 50V37.4H89.9072C91.4552 37.4 92.7092 37.844 93.6692 38.732C94.6412 39.608 95.1272 40.694 95.1272 41.99C95.1272 43.286 94.6412 44.378 93.6692 45.266C92.7092 46.142 91.4552 46.58 89.9072 46.58H87.1172V50H83.7872ZM87.1172 43.52H89.8172C90.4412 43.52 90.9092 43.382 91.2212 43.106C91.5452 42.83 91.7072 42.458 91.7072 41.99C91.7072 41.522 91.5452 41.15 91.2212 40.874C90.9092 40.598 90.4412 40.46 89.8172 40.46H87.1172V43.52ZM98.2702 48.416C96.9502 47.108 96.2902 45.536 96.2902 43.7C96.2902 41.864 96.9502 40.298 98.2702 39.002C99.6022 37.694 101.282 37.04 103.31 37.04C105.338 37.04 107.012 37.694 108.332 39.002C109.664 40.298 110.33 41.864 110.33 43.7C110.33 45.536 109.664 47.108 108.332 48.416C107.012 49.712 105.338 50.36 103.31 50.36C101.282 50.36 99.6022 49.712 98.2702 48.416ZM100.772 41.09C100.124 41.75 99.8002 42.62 99.8002 43.7C99.8002 44.78 100.124 45.65 100.772 46.31C101.42 46.97 102.266 47.3 103.31 47.3C104.354 47.3 105.2 46.97 105.848 46.31C106.496 45.65 106.82 44.78 106.82 43.7C106.82 42.62 106.496 41.75 105.848 41.09C105.2 40.43 104.354 40.1 103.31 40.1C102.266 40.1 101.42 40.43 100.772 41.09ZM112.123 50V37.4H116.803L119.413 43.88H119.863L122.473 37.4H127.153V50H123.823V42.8L124.093 41.18H123.913L121.483 47.12H117.793L115.363 41.18H115.183L115.453 42.8V50H112.123ZM128.32 50L131.74 37.4H137.86L141.28 50H137.86L137.23 47.48H132.37L131.74 50H128.32ZM133.09 44.6H136.51L135.43 40.46H134.17L133.09 44.6ZM141.365 52.16V46.94H142.805L145.325 37.4H151.535L154.055 46.94H155.495V52.16H152.345V50H144.515V52.16H141.365ZM145.955 46.94H150.905L149.195 40.46H147.665L145.955 46.94ZM156.754 50V37.4H160.084V43.61L159.814 45.23H159.994L164.584 37.4H168.454V50H165.124V43.79L165.394 42.17H165.214L160.624 50H156.754Z" fill="#559849"/>
<g clip-path="url(#clip0_178_477)">
<path d="M24.6616 5.34574L27.7271 1.96924C27.7271 1.96924 26.6898 4.13458 26.6124 5.62711C26.5608 6.62079 26.4334 7.27821 26.891 8.15948C27.3569 9.05673 27.8579 9.64907 28.8419 9.84773C30.2354 10.1291 30.5141 9.37428 33.0222 9.00361C36.6851 8.46226 42.4975 8.72223 42.4975 8.72223C42.4975 8.72223 36.9021 10.9767 33.3008 12.3801C31.0192 13.2693 29.6988 13.6639 27.4484 14.6311C24.8954 15.7284 21.0386 17.7262 21.0386 17.7262C21.0386 17.7262 20.7434 12.7236 21.8747 9.84773C22.6326 7.92086 24.6616 5.34574 24.6616 5.34574Z" fill="#559849"/>
<ellipse rx="3.24067" ry="3.75013" transform="matrix(0.828099 0.560581 -0.553207 0.833044 31.9274 4.94068)" fill="#559849"/>
<path d="M51.6799 12.2917L56.0546 13.5048C56.0546 13.5048 53.6729 13.5611 52.3222 14.1727C51.423 14.5798 50.7855 14.7654 50.2176 15.5787C49.6395 16.4068 49.3461 17.1272 49.6201 18.1017C50.0081 19.4821 50.8005 19.388 52.2718 21.472C54.4205 24.5156 56.844 29.856 56.844 29.856C56.844 29.856 52.3035 25.858 49.4233 23.2633C47.5984 21.6193 46.648 20.6131 44.7686 19.0329C42.6365 17.2401 39.1157 14.687 39.1157 14.687C39.1157 14.687 43.3898 12.1388 46.4405 11.8426C48.4845 11.6442 51.6799 12.2917 51.6799 12.2917Z" fill="#92C431"/>
<ellipse rx="3.25004" ry="3.73933" transform="matrix(-0.115781 0.99689 -0.98947 -0.117147 55.3534 18.6349)" fill="#92C431"/>
<path d="M57.0127 37.7939L58.2431 42.2027C58.2431 42.2027 56.9654 40.1726 55.7491 39.3207C54.9393 38.7535 54.4527 38.2982 53.4697 38.2273C52.4688 38.1551 51.7063 38.2735 51.0212 39.0136C50.0508 40.062 50.5399 40.6985 49.5322 43.0468C48.0605 46.4764 44.7827 51.3297 44.7827 51.3297C44.7827 51.3297 45.8286 45.3394 46.5418 41.5091C46.9937 39.0823 47.3562 37.741 47.7259 35.3C48.1453 32.5307 48.4924 28.1682 48.4924 28.1682C48.4924 28.1682 52.861 30.5475 54.6877 33.0321C55.9116 34.6969 57.0127 37.7939 57.0127 37.7939Z" fill="#559849"/>
<ellipse rx="3.24923" ry="3.74027" transform="matrix(-0.905525 0.414839 -0.411545 -0.915745 53.5321 44.2446)" fill="#559849"/>
<path d="M37.5995 58.3534L34.2553 61.4486C34.2553 61.4486 35.4748 59.3823 35.6802 57.9021C35.817 56.9167 36.0004 56.2729 35.6202 55.3549C35.2332 54.4202 34.785 53.7862 33.8219 53.5021C32.4578 53.0997 32.1152 53.8273 29.5848 53.9768C25.8892 54.1952 20.121 53.4269 20.121 53.4269C20.121 53.4269 25.8891 51.6712 29.5974 50.5886C31.9469 49.9027 33.2962 49.6252 35.6212 48.8589C38.2589 47.9894 42.2728 46.337 42.2728 46.337C42.2728 46.337 42.1369 51.3466 40.7628 54.1125C39.8421 55.9657 37.5995 58.3534 37.5995 58.3534Z" fill="#92C431"/>
<ellipse rx="3.24076" ry="3.75002" transform="matrix(-0.776773 -0.631002 0.622735 -0.781454 30.3218 58.1203)" fill="#92C431"/>
<path d="M11.594 50.3721L7.21996 49.1567C7.21996 49.1567 9.60169 49.1017 10.9527 48.4908C11.8521 48.084 12.4897 47.8988 13.058 47.0858C13.6365 46.2581 13.9303 45.5378 13.6568 44.5631C13.2695 43.1825 12.477 43.2763 11.0068 41.1915C8.85964 38.1468 6.43885 32.8051 6.43885 32.8051C6.43885 32.8051 10.9773 36.8054 13.8562 39.4017C15.6803 41.0466 16.6302 42.0532 18.5087 43.6344C20.64 45.4284 24.1595 47.9832 24.1595 47.9832C24.1595 47.9832 19.8841 50.5293 16.8332 50.8238C14.7891 51.0212 11.594 50.3721 11.594 50.3721Z" fill="#559849"/>
<ellipse rx="3.25005" ry="3.73932" transform="matrix(0.116287 -0.996829 0.989412 0.117659 7.92142 44.0269)" fill="#559849"/>
<path d="M5.16808 23.7918L3.90378 19.3928C3.90378 19.3928 5.19711 21.4128 6.4199 22.2551C7.234 22.816 7.72414 23.2675 8.70768 23.3307C9.70906 23.395 10.4706 23.2706 11.15 22.5251C12.1123 21.4692 11.6183 20.8366 12.608 18.4804C14.0532 15.0394 17.2936 10.1605 17.2936 10.1605C17.2936 10.1605 16.2938 16.1588 15.6101 19.9946C15.1768 22.4249 14.8247 23.769 14.4738 26.2127C14.0757 28.9853 13.7622 33.3504 13.7622 33.3504C13.7622 33.3504 9.3754 31.0054 7.52963 28.5352C6.29292 26.8801 5.16808 23.7918 5.16808 23.7918Z" fill="#92C431"/>
<ellipse rx="3.24931" ry="3.74017" transform="matrix(0.902283 -0.421917 0.418588 0.912514 8.60286 17.3125)" fill="#92C431"/>
<path fill-rule="evenodd" clip-rule="evenodd" d="M31.4638 24.5099C34.1509 21.7292 38.9191 20.4359 41.7752 22.5405C46.4781 26.0061 46.9517 35.5921 31.4642 45.8948C16.2881 35.8002 16.4152 26.1484 20.8738 22.5405C23.7285 20.2305 28.6877 21.6371 31.4638 24.5099Z" fill="#E82827"/>
<path d="M24.9453 29.6538C28.8469 30.029 36.3715 33.7647 31.3551 44.5667C36.3715 42.8782 36.3715 34.4373 35.8141 31.9049C35.2567 29.3725 31.3551 25.1519 31.9125 25.996C32.3584 26.6713 32.4699 27.9656 32.4699 28.5284C32.6557 29.3725 32.4141 30.8356 29.9617 29.9352C27.5092 29.0348 25.5956 29.3724 24.9453 29.6538Z" fill="white"/>
<ellipse rx="1.86062" ry="2.49094" transform="matrix(0.841368 -0.540463 0.533128 0.846035 29.5106 26.7483)" fill="white"/>
</g>
<defs>
<clipPath id="clip0_178_477">
<rect width="64" height="64" fill="white"/>
</clipPath>
</defs>
</svg>
