<svg width="173" height="64" viewBox="0 0 173 64" fill="none" xmlns="http://www.w3.org/2000/svg">
<circle cx="32" cy="32" r="26.5" stroke="#000046" stroke-width="3"/>
<path d="M41.416 21.8796L42.6513 15.7031H43.8866L42.6513 21.8796H41.416Z" fill="#BBB8CD"/>
<path d="M41.7527 31.458C43.4169 29.6002 45.2536 28.9683 47.255 28.2151C46.8547 27.692 45.1551 27.692 44.5547 27.2735C43.9543 26.8551 43.0536 26.7505 42.6534 26.6459C42.3331 26.5622 41.9195 26.611 41.7527 26.6459C41.4192 26.7854 40.712 27.0852 40.5519 27.1689C40.3518 27.2735 39.1509 27.692 39.0509 27.7966C38.9508 27.9012 37.9501 28.2151 37.6499 28.2151C37.3497 28.2151 36.5491 28.0058 35.8486 27.692C35.1481 27.3782 34.4476 26.9597 34.2475 26.8551C34.0474 26.7505 33.2298 25.7236 33.0297 25.5144C32.8295 25.3052 33.2228 27.692 33.4469 28.2151C33.6148 28.6066 33.9185 31.7287 34.8479 33.7595C35.9552 36.179 39.0308 40.9567 38.9508 39.1993C38.8507 37.0024 39.8514 34.4918 39.8514 34.4918C39.8514 34.4918 40.8198 32.4995 41.7527 31.458Z" fill="#F9B143"/>
<path fill-rule="evenodd" clip-rule="evenodd" d="M15.4734 29.951C17.2687 30.8643 17.5034 31.4688 17.3074 34.6748C17.1469 37.3125 17.6187 39.2816 18.9776 41.6451C20.8363 44.8775 20.9796 44.9491 26.6133 45.4811C29.7716 45.7792 33.8382 46.5962 35.6499 47.2978C40.7599 49.2759 44.18 49.0124 46.5469 46.4578C48.8964 43.923 48.4015 43.4116 42.7693 42.5551C38.1164 41.8477 34.6666 40.0294 34.0012 37.9343C33.3803 35.9784 28.8937 33.5432 20.9038 30.8256C14.6474 28.6976 12.2469 28.3114 15.4734 29.951Z" fill="#000046"/>
<path d="M33.0443 24.1975C33.3012 22.6155 33.9452 20.7988 34.4756 20.1597C35.7076 18.6749 36.0913 18.6979 38.5248 20.4026C39.6959 21.2237 41.6757 21.7096 43.2807 21.5712C46.5065 21.2937 50.0617 23.3385 50.0617 25.4731C50.0617 27.69 46.4711 29.0851 43.8448 27.8885C42.2324 27.1539 41.091 27.1679 38.9309 27.9495C34.7028 29.4779 32.4233 28.0244 33.0443 24.1975Z" fill="#376AC5"/>
<path d="M37.6538 15.3072C36.4185 14.4837 33.9479 13.5493 32.7126 14.4837C31.4773 15.418 33.7832 15.2787 34.7714 15.6081C36.0067 16.0199 35.595 16.4316 37.242 17.2552C38.4067 17.8375 38.8891 18.0787 40.9479 17.366C42.8934 16.6925 43.493 16.5133 43.8302 16.1307C44.6538 15.1963 44.5165 15.0327 44.6538 14.4837C44.791 13.9346 43.0067 14.0719 43.0067 14.0719C42.4577 14.0719 41.5049 14.4134 40.9479 14.8954C40.1243 15.6081 38.8891 16.1307 37.6538 15.3072Z" fill="#000046"/>
<path d="M16.5117 47.7524C22.2764 46.1053 22.2764 45.2818 28.0411 46.1053C32.6529 46.7641 35.4529 47.7524 36.2764 48.1641C37.7862 48.7131 40.9994 49.3994 42.0411 49.3994C43.2764 49.3994 46.296 48.7131 47.8058 48.5759" stroke="#376AC5" stroke-width="4" stroke-linecap="round"/>
<path d="M76.1449 24.434C74.8009 23.138 74.1289 21.56 74.1289 19.7C74.1289 17.84 74.8009 16.268 76.1449 14.984C77.5009 13.688 79.1989 13.04 81.2389 13.04C83.2789 13.04 84.9709 13.688 86.3149 14.984C87.6709 16.268 88.3489 17.84 88.3489 19.7C88.3489 21.56 87.6709 23.138 86.3149 24.434C84.9709 25.718 83.2789 26.36 81.2389 26.36C79.1989 26.36 77.5009 25.718 76.1449 24.434ZM79.1869 17.504C78.6349 18.08 78.3589 18.812 78.3589 19.7C78.3589 20.588 78.6349 21.32 79.1869 21.896C79.7389 22.472 80.4229 22.76 81.2389 22.76C82.0549 22.76 82.7389 22.472 83.2909 21.896C83.8429 21.32 84.1189 20.588 84.1189 19.7C84.1189 18.812 83.8429 18.08 83.2909 17.504C82.7389 16.928 82.0549 16.64 81.2389 16.64C80.4229 16.64 79.7389 16.928 79.1869 17.504ZM88.9718 28.16V22.58H90.3218L92.7518 13.4H99.5918L102.022 22.58H103.372V28.16H99.5918V26H92.7518V28.16H88.9718ZM94.1918 22.58H98.1518L96.7118 16.82H95.6318L94.1918 22.58ZM104.534 26V13.4H114.614V16.82H108.584V18.26H113.354V21.14H108.584V22.58H114.614V26H104.534ZM117.981 24.434C116.637 23.138 115.965 21.56 115.965 19.7C115.965 17.84 116.637 16.268 117.981 14.984C119.337 13.688 121.035 13.04 123.075 13.04C125.463 13.04 127.299 13.898 128.583 15.614C129.159 16.346 129.573 17.198 129.825 18.17H125.685C125.553 17.858 125.379 17.606 125.163 17.414C124.599 16.898 123.903 16.64 123.075 16.64C122.199 16.64 121.497 16.916 120.969 17.468C120.453 18.02 120.195 18.764 120.195 19.7C120.195 20.636 120.453 21.38 120.969 21.932C121.497 22.484 122.199 22.76 123.075 22.76C124.011 22.76 124.743 22.448 125.271 21.824C125.499 21.572 125.667 21.254 125.775 20.87H129.915C129.639 21.89 129.207 22.808 128.619 23.624C127.299 25.448 125.451 26.36 123.075 26.36C121.035 26.36 119.337 25.718 117.981 24.434ZM130.013 26L133.523 13.4H140.093L143.603 26H139.643L139.013 23.57H134.603L133.973 26H130.013ZM135.413 20.51H138.203L137.303 16.91H136.313L135.413 20.51ZM147.298 17V13.4H159.088V17H155.218V26H151.168V17H147.298ZM158.454 26L161.964 13.4H168.534L172.044 26H168.084L167.454 23.57H163.044L162.414 26H158.454ZM163.854 20.51H166.644L165.744 16.91H164.754L163.854 20.51ZM75.9779 47.434C74.6339 46.138 73.9619 44.56 73.9619 42.7C73.9619 40.84 74.6339 39.268 75.9779 37.984C77.3339 36.688 79.0319 36.04 81.0719 36.04C83.1119 36.04 84.8039 36.688 86.1479 37.984C87.5039 39.268 88.1819 40.84 88.1819 42.7C88.1819 44.56 87.5039 46.138 86.1479 47.434C84.8039 48.718 83.1119 49.36 81.0719 49.36C79.0319 49.36 77.3339 48.718 75.9779 47.434ZM79.0199 40.504C78.4679 41.08 78.1919 41.812 78.1919 42.7C78.1919 43.588 78.4679 44.32 79.0199 44.896C79.5719 45.472 80.2559 45.76 81.0719 45.76C81.8879 45.76 82.5719 45.472 83.1239 44.896C83.6759 44.32 83.9519 43.588 83.9519 42.7C83.9519 41.812 83.6759 41.08 83.1239 40.504C82.5719 39.928 81.8879 39.64 81.0719 39.64C80.2559 39.64 79.5719 39.928 79.0199 40.504ZM88.8048 51.16V45.58H90.1548L92.5848 36.4H99.4248L101.855 45.58H103.205V51.16H99.4248V49H92.5848V51.16H88.8048ZM94.0248 45.58H97.9848L96.5448 39.82H95.4648L94.0248 45.58ZM104.367 49V36.4H114.447V39.82H108.417V41.26H113.187V44.14H108.417V45.58H114.447V49H104.367ZM117.814 47.434C116.47 46.138 115.798 44.56 115.798 42.7C115.798 40.84 116.47 39.268 117.814 37.984C119.17 36.688 120.868 36.04 122.908 36.04C125.296 36.04 127.132 36.898 128.416 38.614C128.992 39.346 129.406 40.198 129.658 41.17H125.518C125.386 40.858 125.212 40.606 124.996 40.414C124.432 39.898 123.736 39.64 122.908 39.64C122.032 39.64 121.33 39.916 120.802 40.468C120.286 41.02 120.028 41.764 120.028 42.7C120.028 43.636 120.286 44.38 120.802 44.932C121.33 45.484 122.032 45.76 122.908 45.76C123.844 45.76 124.576 45.448 125.104 44.824C125.332 44.572 125.5 44.254 125.608 43.87H129.748C129.472 44.89 129.04 45.808 128.452 46.624C127.132 48.448 125.284 49.36 122.908 49.36C120.868 49.36 119.17 48.718 117.814 47.434ZM131.367 49V36.4H135.417V41.35L135.147 43.06H135.327L139.287 36.4H143.787V49H139.737V44.05L140.007 42.34H139.827L135.867 49H131.367ZM145.039 40V36.4H156.829V40H152.959V49H148.909V40H145.039ZM158.086 49V36.4H162.136V41.35L161.866 43.06H162.046L166.006 36.4H170.506V49H166.456V44.05L166.726 42.34H166.546L162.586 49H158.086Z" fill="#000046"/>
</svg>
