<?xml version="1.0" encoding="utf-8"?>
<!-- Generated by IcoMoon.io -->
<svg version="1.1" xmlns="http://www.w3.org/2000/svg" xmlns:xlink="http://www.w3.org/1999/xlink" width="752" height="80" viewBox="0 0 752 80">

<!--header-->
<svg  id="icon-header_logo" width="72" height="32" viewBox="0 0 72 32"  xmlns="http://www.w3.org/2000/svg">
    <path fill-rule="evenodd" clip-rule="evenodd" d="M12 3.84C7.49335 3.84 3.84 7.49336 3.84 12C3.84 16.5056 7.49168 20.1583 11.9969 20.16H12C12.0026 20.16 12.0052 20.16 12.0078 20.16C16.5109 20.1558 20.16 16.504 20.16 12C20.16 7.49336 16.5066 3.84 12 3.84ZM20.7986 20.16C22.7853 18.0188 24 15.1513 24 12C24 5.37258 18.6274 0 12 0C5.37258 0 0 5.37258 0 12C0 18.6274 5.37258 24 12 24C12.0032 24 12.0063 24 12.0095 24H41.1111C41.1143 24 41.1175 24 41.1206 24C47.748 24 53.1206 18.6274 53.1206 12C53.1206 5.37258 47.748 0 41.1206 0C34.4932 0 29.1206 5.37258 29.1206 12C29.1206 15.1513 30.3353 18.0188 32.322 20.16H20.7986ZM41.1235 20.16L41.12 20.16H41.1128C36.6098 20.1558 32.9606 16.504 32.9606 12C32.9606 7.49336 36.614 3.84 41.1206 3.84C45.6273 3.84 49.2806 7.49336 49.2806 12C49.2806 16.5057 45.6288 20.1584 41.1235 20.16Z" />
</svg>
<!--header-->
<!--home-->
<svg id="home_bg" width="746" height="530" viewBox="0 0 746 530" fill="none" xmlns="http://www.w3.org/2000/svg">
    <path opacity="0.05" fill-rule="evenodd" clip-rule="evenodd" d="M680.971 -47.368C680.688 -48.6481 680.421 -49.8571 680.181 -51.1096C679.898 -52.3056 679.619 -53.5307 679.337 -54.7646L679.336 -54.7701C679.059 -55.984 678.779 -57.2066 678.494 -58.4184C678.379 -59.1021 678.03 -59.6938 677.519 -60.024C677.008 -60.3542 676.389 -60.51 675.764 -60.3652L634.723 -50.8592L623.529 -41.3892C623.159 -41.0793 622.89 -40.6433 622.888 -40.1569C622.929 -39.643 623.193 -39.1063 623.704 -38.7761L623.875 -38.666L638.252 -35.0441L679.224 -44.534C680.474 -44.8235 681.254 -46.0879 680.971 -47.368ZM634.482 -46.991L634.765 -45.711C634.843 -45.3554 635.061 -45.032 635.359 -44.8394C635.657 -44.6468 636.035 -44.585 636.383 -44.6654C637.146 -44.8423 637.603 -45.5835 637.43 -46.3658L636.959 -48.4992L665.848 -55.1905L668.11 -44.9499L639.306 -38.2036L638.819 -40.4082C638.646 -41.1904 637.923 -41.6582 637.159 -41.4813C636.395 -41.3043 635.938 -40.5631 636.111 -39.7809L636.409 -38.4297L627.176 -40.7389L634.482 -46.991ZM670.904 -45.5221L668.626 -55.8338L675.891 -57.4791C676.064 -56.6969 676.241 -55.9115 676.419 -55.1262L676.421 -55.1174C676.775 -53.5497 677.129 -51.982 677.446 -50.4387C677.681 -49.372 677.917 -48.3053 678.126 -47.1949L670.904 -45.5221ZM323.051 -20.2165L301.027 -32.9325C299.908 -33.5785 298.669 -33.7443 297.47 -33.5725C297.02 -34.6963 296.257 -35.6865 295.138 -36.3325L273.113 -49.0485C271.582 -49.9325 269.572 -49.4438 268.654 -47.8538L249.58 -14.8167C248.696 -13.2855 249.185 -11.276 250.775 -10.358L274.036 3.07204L273.968 3.18982C273.458 4.07317 273.723 5.24673 274.665 5.79074C275.608 6.33474 276.722 6.03606 277.266 5.09383L277.334 4.97604L277.452 5.04404L300.831 18.542C302.362 19.426 304.372 18.9374 305.29 17.3473L324.398 -15.7487C325.164 -17.3478 324.642 -19.2985 323.051 -20.2165ZM271.655 -45.5716L293.268 -33.0936C293.974 -32.6856 294.282 -31.7227 293.84 -30.9571L276.16 -0.334454C276.155 -0.326168 276.149 -0.318558 276.143 -0.311264C276.137 -0.305 276.13 -0.298973 276.123 -0.292957C276.114 -0.285469 276.104 -0.278004 276.094 -0.270119L276.094 -0.269753C276.054 -0.239002 276.005 -0.201885 275.965 -0.132893L253.057 -13.3589L271.655 -45.5716ZM302.205 14.9382L279.297 1.71222L297.113 -29.146C297.521 -29.8527 298.484 -30.1605 299.25 -29.7185L320.862 -17.2405L302.264 14.9722L302.205 14.9382ZM111.553 -25.1747L106.817 -33.3777L106.951 -33.5291C107.267 -34.0068 107.486 -34.6508 107.364 -35.2457C107.153 -36.3799 106.11 -37.0341 105.055 -36.9421L76.34 -33.8136L76.1418 -33.773C75.4915 -33.6193 74.8818 -33.2673 74.4236 -32.781L56.8025 -9.15754C56.2974 -8.49641 56.238 -7.5753 56.654 -6.85477C57.07 -6.13423 57.8974 -5.72512 58.7225 -5.832L68.3787 -6.89903L74.9707 4.51865C78.1067 9.95036 85.0133 11.801 90.445 8.66499L103.581 1.08099C109.013 -2.05501 110.863 -8.96164 107.727 -14.3934L101.263 -25.5893L101.634 -26.099L104.601 -30.1767L108.537 -23.3593L107.693 -20.212C107.647 -20.0371 107.743 -19.8708 107.917 -19.824L113.163 -18.4185C113.338 -18.3716 113.504 -18.4676 113.551 -18.6425L114.956 -23.888C115.003 -24.0628 114.907 -24.2291 114.732 -24.276L111.553 -25.1747ZM104.734 -12.6654C106.878 -8.95184 105.59 -4.14342 101.876 -1.99943L88.685 5.61658C84.9715 7.76057 80.1631 6.47216 78.0191 2.75864L72.1951 -7.32882L87.8893 -9.07368L88.0876 -9.11425C88.4287 -9.1634 88.7058 -9.3234 89.0384 -9.5154C89.3155 -9.6754 89.6161 -9.92283 89.8612 -10.1383L99.0062 -22.5865L104.734 -12.6654ZM98.8147 -28.1663L87.3104 -12.5084L66.2284 -10.2394L61.5315 -9.67076L76.8955 -30.2914L102.278 -33.0479L98.8147 -28.1663ZM296.123 86.3854L321.754 71.5875C322.482 71.1671 322.777 70.2202 322.328 69.4435C321.88 68.6668 320.941 68.4972 320.212 68.9176L294.582 83.7155C291.621 85.4251 290.455 89.0109 291.768 92.0711C291.776 92.1962 291.86 92.3418 291.944 92.4875L312.908 128.798C314.253 131.128 317.239 131.928 319.569 130.583L345.831 115.42C346.802 114.86 347.151 113.558 346.59 112.587L327.28 79.1411C326.72 78.1703 325.418 77.8215 324.447 78.382L299.739 92.6474C298.04 93.6284 295.742 93.0128 294.762 91.3138C293.781 89.6148 294.424 87.3663 296.123 86.3854ZM301.28 95.3173L325.115 81.5564L343.416 113.255L318.028 127.913C317.154 128.417 316.082 128.13 315.578 127.256L297.641 96.1887C298.851 96.2667 300.115 95.9899 301.28 95.3173ZM333.161 111.861L320.831 118.98C320.103 119.401 319.808 120.347 320.257 121.124C320.705 121.901 321.624 122.147 322.401 121.699L334.682 114.608C335.41 114.187 335.705 113.241 335.257 112.464C334.808 111.687 333.889 111.441 333.161 111.861ZM324.202 93.5397L309.396 102.088C308.862 102.396 308.173 102.211 307.865 101.677L306.183 98.7648C305.875 98.2308 306.059 97.5417 306.593 97.2334L321.399 88.6854C321.933 88.3771 322.622 88.5617 322.93 89.0957L324.612 92.0083C324.92 92.5423 324.736 93.2314 324.202 93.5397ZM742.393 164.37L735.701 161.799L745.318 136.767C746.81 132.884 744.883 128.441 741 126.95L740.94 126.927L740.164 126.628L734.608 124.494L711.308 115.542C705.513 113.316 698.92 116.199 696.671 122.054L695.156 125.997C694.513 127.67 695.36 129.572 697.032 130.215L702.887 132.464L692.398 159.766C691.181 162.933 692.74 166.548 695.967 167.788L703.076 170.519L701.607 174.343C701.332 175.059 701.474 175.937 702.017 176.488C702.247 176.782 702.522 176.957 702.881 177.094C703.239 177.232 703.703 177.273 704.094 177.149L709.355 175.948L712.458 180.362C712.895 181.01 713.671 181.309 714.443 181.262C715.238 181.156 715.909 180.66 716.184 179.943L717.676 176.06C717.773 176.165 717.952 176.234 718.071 176.28L731.872 181.582C732.111 181.674 732.29 181.743 732.492 181.752L732.552 181.775L732.612 181.798C732.636 181.807 732.664 181.815 732.694 181.822C732.731 181.831 732.771 181.838 732.813 181.846C732.863 181.855 732.915 181.865 732.968 181.878L732.993 181.884C733.006 181.887 733.019 181.891 733.032 181.895C733.059 181.903 733.086 181.911 733.113 181.922L733.232 181.968C733.292 181.991 733.352 182.013 733.375 181.954C733.434 181.977 733.485 181.979 733.535 181.981L733.555 181.982C733.57 181.983 733.586 181.984 733.601 181.986C733.617 181.988 733.633 181.99 733.65 181.994C733.655 181.996 733.661 181.997 733.666 181.999L733.673 182.001L733.682 182.004C733.687 182.005 733.691 182.007 733.696 182.009C733.705 182.012 733.715 182.015 733.727 182.017C733.733 182.018 733.739 182.019 733.746 182.019L733.764 182.021C733.784 182.023 733.806 182.024 733.827 182.025C733.878 182.027 733.928 182.029 733.958 182.041C734.018 182.064 734.078 182.087 734.101 182.027C734.303 182.036 734.505 182.045 734.647 182.031C734.707 182.054 734.79 182.018 734.79 182.018C734.85 182.04 734.873 181.981 734.932 182.004C735.033 182.008 735.125 181.992 735.217 181.976C735.309 181.96 735.401 181.944 735.502 181.948C735.644 181.935 735.87 181.884 736.035 181.81C736.035 181.81 736.095 181.833 736.118 181.774L736.2 181.737L736.283 181.7C736.366 181.663 736.443 181.641 736.52 181.619C736.597 181.598 736.674 181.576 736.756 181.539C736.794 181.522 736.833 181.506 736.873 181.49C736.897 181.48 736.922 181.47 736.947 181.46C737.15 181.379 737.364 181.294 737.524 181.148C737.689 181.074 737.96 180.904 738.171 180.711C738.183 180.681 738.203 180.672 738.224 180.663C738.245 180.654 738.265 180.645 738.277 180.615C738.281 180.605 738.285 180.598 738.291 180.591C738.295 180.587 738.3 180.583 738.305 180.579C738.31 180.576 738.315 180.574 738.32 180.571L738.33 180.567C738.35 180.557 738.371 180.548 738.383 180.518C738.394 180.488 738.415 180.479 738.435 180.47C738.456 180.461 738.477 180.452 738.488 180.422C738.594 180.325 738.677 180.288 738.782 180.192L739.099 179.902C739.102 179.895 739.106 179.888 739.11 179.881C739.116 179.871 739.124 179.862 739.133 179.853C739.143 179.843 739.153 179.834 739.164 179.824C739.19 179.8 739.216 179.776 739.228 179.746C739.485 179.433 739.742 179.121 739.94 178.785L739.94 178.785C740.16 178.39 740.381 177.995 740.564 177.517L744.03 168.496C744.911 166.915 744.065 165.013 742.393 164.37ZM699.98 123.257C701.518 119.254 706.066 117.23 710.069 118.768L733.07 127.605C731.774 128.479 730.722 129.788 730.126 131.342L727.555 138.033L698.58 126.901L699.98 123.257ZM713.357 165.35C709.833 163.996 708.067 160.027 709.421 156.502C710.775 152.977 714.722 151.271 718.246 152.625C721.771 153.98 723.537 157.949 722.183 161.474C720.829 164.999 716.882 166.705 713.357 165.35ZM710.856 171.862L705.843 172.953L708.414 166.262C709.402 167.259 710.638 168.145 712.072 168.696C713.506 169.247 714.935 169.453 716.419 169.338L713.826 176.089L710.856 171.862ZM718.879 172.751L720.646 168.151C722.782 167.052 724.528 165.186 725.469 162.736C727.512 157.419 724.886 151.405 719.509 149.339C714.192 147.297 708.178 149.923 706.112 155.299C705.194 157.689 705.241 160.244 706.069 162.55L704.325 167.091L697.215 164.359C695.841 163.831 695.142 162.26 695.67 160.886L706.159 133.584L726.472 141.388C728.145 142.03 730.047 141.184 730.689 139.511L733.329 132.641C734.178 130.43 736.645 129.184 738.901 129.914L739.678 130.212C741.769 131.016 742.836 133.414 742.033 135.505L727.825 172.486C727.389 173.621 727.252 174.871 727.422 176.033L719.297 172.912C719.141 172.783 719.021 172.737 718.879 172.751ZM737.214 176.778C737.15 176.857 737.08 176.95 737.01 177.043C736.97 177.096 736.929 177.149 736.89 177.2C736.861 177.238 736.833 177.274 736.805 177.307C736.777 177.332 736.751 177.354 736.727 177.374L736.726 177.374C736.681 177.411 736.642 177.442 736.611 177.485C736.608 177.49 736.604 177.495 736.6 177.501C736.596 177.508 736.591 177.516 736.587 177.524C736.581 177.535 736.576 177.547 736.571 177.56L736.383 177.693C736.341 177.712 736.294 177.745 736.247 177.778C736.219 177.798 736.191 177.818 736.165 177.834C736.146 177.846 736.129 177.856 736.112 177.863L736.029 177.9C736.004 177.911 735.977 177.928 735.947 177.946C735.879 177.988 735.798 178.038 735.698 178.047C735.615 178.084 735.533 178.121 735.39 178.135L735.308 178.171C735.083 178.222 734.857 178.273 734.655 178.264C734.573 178.3 734.513 178.277 734.453 178.254C734.423 178.243 734.388 178.246 734.352 178.25C734.316 178.253 734.281 178.257 734.251 178.245L734.108 178.259C734.079 178.248 734.028 178.245 733.977 178.243C733.927 178.241 733.876 178.239 733.846 178.227L733.787 178.204C733.727 178.181 733.585 178.195 733.525 178.172L733.405 178.126L733.107 178.011C731.314 177.323 730.431 175.338 731.12 173.546L734.379 165.062L740.772 167.518C740.772 167.518 737.343 176.622 737.214 176.778ZM434.321 129.317H442.421C443.571 129.317 444.471 130.167 444.471 131.317V131.967C444.471 137.667 440.121 146.317 434.171 147.167C433.421 151.917 430.071 155.767 425.671 157.317V168.217H434.121C435.121 168.217 435.921 169.017 435.921 170.017V172.567C435.921 173.567 435.121 174.367 434.121 174.367H409.221C408.221 174.367 407.421 173.567 407.421 172.567V170.067C407.421 169.067 408.221 168.267 409.221 168.267H417.221V157.367C412.821 155.817 409.471 151.967 408.721 147.217C402.771 146.367 398.421 137.717 398.421 132.017V131.367C398.421 130.167 399.271 129.317 400.421 129.317H408.521V129.167C408.521 127.817 409.621 126.767 410.921 126.767H431.921C433.271 126.767 434.321 127.867 434.321 129.167V129.317ZM401.121 132.067C401.171 136.317 404.371 142.917 408.221 144.267V132.067H401.121ZM420.171 168.217H422.671V158.017C422.271 158.067 421.821 158.067 421.421 158.067C421.021 158.067 420.571 158.067 420.171 158.017V168.217ZM421.421 155.317C427.021 155.317 431.571 150.767 431.571 145.167V129.517H411.271V145.167C411.271 150.767 415.821 155.317 421.421 155.317ZM434.621 132.067V144.267C438.471 142.917 441.671 136.317 441.721 132.067H434.621ZM233.169 206.643L233.319 216.114L235.66 218.445C235.79 218.571 235.793 218.763 235.667 218.893L231.888 222.793C231.762 222.923 231.57 222.926 231.44 222.8L227.54 219.022C227.41 218.896 227.407 218.704 227.533 218.574L229.8 216.234L229.676 208.363L225.101 210.483L224.529 210.748L224.733 223.675C224.833 229.946 219.857 235.081 213.586 235.18L198.42 235.42C192.149 235.52 187.013 230.544 186.914 224.273L186.706 211.091L177.749 207.328C176.976 207.02 176.452 206.26 176.439 205.428C176.426 204.596 176.925 203.82 177.688 203.488L204.573 191.413C205.209 191.211 205.913 191.2 206.556 191.382L206.749 191.443L233.362 202.671C234.329 203.104 234.922 204.183 234.556 205.277C234.373 205.856 233.868 206.312 233.36 206.576L233.169 206.643ZM213.594 231.66C217.882 231.592 221.346 228.017 221.278 223.729L221.097 212.275L207.053 218.706C206.734 218.775 206.351 218.845 206.031 218.85C205.647 218.856 205.327 218.861 205.005 218.738L204.812 218.677L190.249 212.571L190.434 224.217C190.502 228.505 194.077 231.969 198.364 231.901L213.594 231.66ZM205.976 215.394L223.642 207.306L229.042 204.724L205.522 194.791L182.07 205.339L186.451 207.126L205.976 215.394ZM612.675 94.0675L605.504 95.2015L598.762 52.5674C598.525 51.068 597.166 50.0801 595.667 50.3172L587.713 51.575C586.736 51.7296 586.012 52.6459 586.177 53.6889C586.342 54.732 587.248 55.3905 588.291 55.2256L595.331 54.1122L601.929 95.8337L594.693 96.9781C593.715 97.1327 592.991 98.049 593.156 99.092C593.321 100.135 594.227 100.794 595.27 100.629L613.328 97.773C614.306 97.6184 615.03 96.7021 614.865 95.6591C614.7 94.616 613.718 93.9026 612.675 94.0675ZM596.884 38.8314C598.565 40.053 598.937 42.4057 597.715 44.0863C596.493 45.7669 594.141 46.1389 592.46 44.9173C590.78 43.6957 590.407 41.343 591.629 39.6624C592.851 37.9818 595.203 37.6097 596.884 38.8314ZM274.502 -35.1339L284.101 -29.5919C284.984 -29.0819 285.342 -27.9333 284.798 -26.991C284.254 -26.0488 283.08 -25.7841 282.197 -26.2941L272.598 -31.8361C271.656 -32.3801 271.357 -33.4948 271.901 -34.437C272.445 -35.3793 273.618 -35.6439 274.502 -35.1339ZM299.191 -16.5611L308.79 -11.0191C309.674 -10.5091 310.847 -10.7737 311.391 -11.716C311.935 -12.6582 311.637 -13.7729 310.694 -14.3169L301.095 -19.8589C300.212 -20.3689 299.038 -20.1042 298.494 -19.162C297.95 -18.2197 298.249 -17.1051 299.191 -16.5611ZM304.744 -4.01101L295.145 -9.55301C294.203 -10.097 293.905 -11.2117 294.449 -12.1539C294.993 -13.0962 296.166 -13.3608 297.049 -12.8508L306.648 -7.30883C307.591 -6.76483 307.889 -5.65015 307.345 -4.70792C306.801 -3.76568 305.628 -3.50101 304.744 -4.01101ZM280.055 -22.5841L270.456 -28.1261C269.572 -28.6361 268.399 -28.3714 267.855 -27.4291C267.311 -26.4869 267.61 -25.3722 268.552 -24.8282L278.151 -19.2862C279.034 -18.7762 280.208 -19.0409 280.752 -19.9831C281.296 -20.9254 280.938 -22.0741 280.055 -22.5841ZM266.41 -21.1182L276.009 -15.5762C276.892 -15.0662 277.25 -13.9175 276.706 -12.9753C276.162 -12.033 274.988 -11.7683 274.105 -12.2783L264.506 -17.8203C263.564 -18.3643 263.265 -19.479 263.809 -20.4213C264.353 -21.3635 265.526 -21.6282 266.41 -21.1182ZM291.099 -2.54519L300.698 2.99681C301.581 3.50681 302.755 3.24214 303.299 2.2999C303.843 1.35767 303.544 0.242985 302.602 -0.301014L293.003 -5.84302C292.119 -6.35302 290.946 -6.08834 290.402 -5.1461C289.858 -4.20387 290.156 -3.08919 291.099 -2.54519ZM557.419 233.874L521.366 208.708C522.428 207.186 530.13 210.689 539.072 216.774L541.38 213.468L541.17 213.322C536.298 208.672 533.987 202.143 534.749 195.572L529.449 191.872C528.609 191.286 528.419 190.217 529.005 189.377C529.591 188.537 530.713 188.384 531.5 188.933L553.962 204.612C554.749 205.161 554.939 206.23 554.353 207.07C553.767 207.91 552.645 208.063 551.858 207.514L538.108 197.916C538.041 202.709 539.966 207.33 543.552 210.692C544.701 211.728 545.924 212.66 547.294 213.382C555.07 217.561 564.813 215.23 569.869 207.988C572.689 203.947 573.668 198.854 572.581 194.038C572.502 193.592 572.386 193.199 572.271 192.806L557.663 200.092C556.782 200.571 555.697 200.672 554.763 200.332L554.682 200.294L554.643 200.275L554.638 200.273L554.632 200.27C554.336 200.13 554.073 200.006 553.798 199.814C553.273 199.448 552.822 198.977 552.496 198.437L549.331 192.013C548.395 190.111 549.137 187.819 551.039 186.883L574.046 175.391C575.948 174.455 578.24 175.197 579.176 177.099L582.341 183.523C583.276 185.425 582.535 187.717 580.633 188.653L575.519 191.171C575.601 191.501 575.696 191.84 575.79 192.18C575.885 192.519 575.98 192.859 576.062 193.189C577.412 198.97 576.251 205.106 572.844 209.987C566.727 218.751 555.038 221.519 545.699 216.561L545.541 216.451L543.307 219.653C552.276 226.147 558.482 232.352 557.419 233.874ZM555.865 196.965C555.918 197.001 556.007 196.985 556.096 196.97L578.977 185.546C579.103 185.477 579.16 185.283 579.092 185.158L575.927 178.734C575.859 178.608 575.665 178.551 575.539 178.619L552.658 190.043C552.532 190.111 552.474 190.305 552.543 190.431L555.708 196.855L555.865 196.965ZM503.45 -41.9263C503.203 -42.4902 502.772 -42.9126 502.182 -43.1424L494.063 -46.3017C493.501 -46.6053 492.854 -46.6874 492.318 -46.5133C491.732 -46.3166 491.207 -45.841 491 -45.1993L487.559 -36.4678L456.135 -22.6497C454.956 -22.1312 454.417 -20.854 454.958 -19.6237L471.909 18.9258C472.428 20.1049 473.705 20.6444 474.935 20.1034L513.434 3.17447C514.613 2.656 515.152 1.37878 514.611 0.148479L500.41 -32.147L503.54 -40.1917C503.719 -40.7596 503.698 -41.3624 503.45 -41.9263ZM489.174 -11.79L487.993 -12.2495C487.181 -12.5655 486.309 -12.1823 485.993 -11.3704C485.678 -10.5586 486.061 -9.68709 486.873 -9.37116L487.168 -9.25628L482.705 -5.21408L482.127 -11.2606L482.422 -11.1457C482.791 -11.0021 483.217 -11.0061 483.576 -11.1639C483.935 -11.3217 484.226 -11.6332 484.37 -12.0023C484.686 -12.8141 484.302 -13.6856 483.491 -14.0015L482.31 -14.461L490.553 -35.643L497.394 -33.0232L489.174 -11.79ZM511.374 0.715687L474.464 16.9458L458.144 -20.1684L486.031 -32.4311L478.908 -14.1276L478.742 -13.8098L479.873 -2.19461C479.922 -1.66562 480.125 -1.20426 480.562 -0.906868L480.583 -0.894691C480.839 -0.749928 481.413 -0.42482 482.21 -0.775276L482.415 -0.865444L491.238 -8.90476L498.705 -28.0939L511.374 0.715687ZM498.514 -35.9016L491.673 -38.5213L493.511 -43.2448L500.375 -40.5738L498.514 -35.9016ZM55.5926 132.331C56.0094 132.808 56.1951 133.382 56.1535 133.997C56.112 134.611 55.8507 135.155 55.4294 135.576L48.9275 141.254L46.5476 176.453C46.457 177.794 45.387 178.676 44.102 178.589L2.14178 175.752C0.800843 175.662 -0.0809923 174.592 0.00589246 173.307L2.84665 131.291C2.93731 129.95 4.00723 129.068 5.2923 129.155L39.5421 131.47L46.6367 125.327C47.1177 124.854 47.8032 124.676 48.4141 124.774C48.969 124.867 49.5051 125.24 49.8622 125.77L55.5926 132.331ZM28.7041 153.133L29.5377 154.087L46.661 139.08L41.8124 133.588L24.6928 148.54L25.5264 149.494C26.0994 150.15 26.0352 151.1 25.379 151.673C25.0808 151.934 24.6783 152.075 24.2872 152.048C23.8961 152.022 23.5164 151.828 23.2559 151.53L23.0475 151.291L20.7587 156.917L26.5862 155.403L26.3778 155.164C25.8048 154.508 25.869 153.558 26.5251 152.985C27.1813 152.412 28.1311 152.477 28.7041 153.133ZM3.18764 172.736L43.4158 175.456L45.5388 144.056L30.0298 157.6L18.4867 160.637L18.2632 160.621C17.3946 160.563 17.0364 160.009 16.8768 159.762L16.8634 159.741C16.6143 159.275 16.6483 158.772 16.8499 158.281L21.2295 147.464L21.524 147.259L36.3172 134.339L5.92262 132.284L3.18764 172.736ZM44.1388 131.557L48.9873 137.048L52.8012 133.77L47.9564 128.223L44.1388 131.557ZM680.971 253.705C680.688 252.424 680.421 251.216 680.181 249.963C679.898 248.767 679.619 247.542 679.337 246.308L679.336 246.303C679.059 245.089 678.78 243.866 678.494 242.654C678.379 241.971 678.03 241.379 677.519 241.049C677.008 240.718 676.389 240.563 675.764 240.707L634.723 250.213L623.529 259.683C623.159 259.993 622.89 260.429 622.888 260.916C622.929 261.43 623.193 261.966 623.704 262.296L623.875 262.407L638.252 266.029L679.224 256.539C680.474 256.249 681.254 254.985 680.971 253.705ZM634.482 254.082L634.765 255.362C634.843 255.717 635.061 256.041 635.359 256.233C635.657 256.426 636.035 256.488 636.383 256.407C637.146 256.23 637.603 255.489 637.43 254.707L636.959 252.573L665.848 245.882L668.11 256.123L639.306 262.869L638.819 260.664C638.646 259.882 637.923 259.414 637.159 259.591C636.395 259.768 635.938 260.509 636.111 261.292L636.409 262.643L627.176 260.334L634.482 254.082ZM670.904 255.55L668.626 245.239L675.891 243.593C676.064 244.376 676.241 245.161 676.419 245.946L676.421 245.955C676.775 247.523 677.129 249.091 677.446 250.634C677.681 251.701 677.917 252.767 678.126 253.878L670.904 255.55ZM323.051 273.783L301.027 261.067C299.908 260.421 298.669 260.256 297.47 260.427C297.02 259.304 296.257 258.313 295.138 257.667L273.113 244.951C271.582 244.067 269.572 244.556 268.654 246.146L249.58 279.183C248.696 280.714 249.185 282.724 250.775 283.642L274.036 297.072L273.968 297.19C273.458 298.073 273.723 299.247 274.665 299.791C275.608 300.335 276.722 300.036 277.266 299.094L277.334 298.976L277.452 299.044L300.831 312.542C302.362 313.426 304.372 312.937 305.29 311.347L324.398 278.251C325.164 276.652 324.642 274.701 323.051 273.783ZM271.655 248.428L293.268 260.906C293.974 261.314 294.282 262.277 293.84 263.043L276.16 293.665C276.146 293.69 276.122 293.708 276.094 293.73C276.054 293.761 276.005 293.798 275.965 293.867L253.057 280.641L271.655 248.428ZM302.205 308.938L279.297 295.712L297.113 264.854C297.521 264.147 298.484 263.839 299.25 264.281L320.862 276.759L302.264 308.972L302.205 308.938ZM111.553 268.825L106.817 260.622L106.951 260.471C107.267 259.993 107.486 259.349 107.364 258.754C107.153 257.62 106.11 256.966 105.055 257.058L76.34 260.186L76.1418 260.227C75.4915 260.381 74.8818 260.733 74.4236 261.219L56.8025 284.842C56.2974 285.504 56.238 286.425 56.654 287.145C57.07 287.866 57.8974 288.275 58.7225 288.168L68.3787 287.101L74.9707 298.519C78.1067 303.95 85.0133 305.801 90.445 302.665L103.581 295.081C109.013 291.945 110.863 285.038 107.727 279.607L101.263 268.411L101.634 267.901L104.601 263.823L108.537 270.641L107.693 273.788C107.647 273.963 107.743 274.129 107.917 274.176L113.163 275.582C113.338 275.628 113.504 275.532 113.551 275.358L114.956 270.112C115.003 269.937 114.907 269.771 114.732 269.724L111.553 268.825ZM104.734 281.335C106.878 285.048 105.59 289.857 101.876 292.001L88.685 299.617C84.9715 301.761 80.1631 300.472 78.0191 296.759L72.1951 286.671L87.8893 284.926L88.0876 284.886C88.4287 284.837 88.7058 284.677 89.0384 284.485C89.3155 284.325 89.6161 284.077 89.8612 283.862L99.0062 271.413L104.734 281.335ZM98.8147 265.834L87.3104 281.492L66.2284 283.761L61.5315 284.329L76.8955 263.709L102.278 260.952L98.8147 265.834ZM296.123 380.385L321.754 365.587C322.482 365.167 322.777 364.22 322.328 363.444C321.88 362.667 320.941 362.497 320.212 362.918L294.582 377.716C291.621 379.425 290.455 383.011 291.768 386.071C291.776 386.196 291.86 386.342 291.944 386.487L312.908 422.798C314.253 425.128 317.239 425.928 319.569 424.583L345.831 409.42C346.802 408.86 347.151 407.558 346.59 406.587L327.28 373.141C326.72 372.17 325.418 371.821 324.447 372.382L299.739 386.647C298.04 387.628 295.742 387.013 294.762 385.314C293.781 383.615 294.424 381.366 296.123 380.385ZM301.28 389.317L325.115 375.556L343.416 407.255L318.028 421.913C317.154 422.417 316.082 422.13 315.578 421.256L297.641 390.189C298.851 390.267 300.115 389.99 301.28 389.317ZM333.161 405.861L320.831 412.98C320.103 413.401 319.808 414.347 320.257 415.124C320.705 415.901 321.624 416.147 322.401 415.699L334.682 408.608C335.41 408.187 335.705 407.241 335.257 406.464C334.808 405.687 333.889 405.441 333.161 405.861ZM324.202 387.54L309.396 396.088C308.862 396.396 308.173 396.211 307.865 395.677L306.183 392.765C305.875 392.231 306.059 391.542 306.593 391.233L321.399 382.685C321.933 382.377 322.622 382.562 322.93 383.096L324.612 386.008C324.92 386.542 324.736 387.231 324.202 387.54ZM742.393 458.37L735.701 455.799L745.318 430.767C746.81 426.884 744.883 422.441 741 420.95L740.94 420.927L740.164 420.628L734.608 418.494L711.308 409.542C705.513 407.316 698.92 410.199 696.671 416.054L695.156 419.997C694.513 421.67 695.36 423.572 697.032 424.215L702.887 426.464L692.398 453.766C691.181 456.933 692.74 460.548 695.967 461.788L703.076 464.519L701.607 468.343C701.332 469.059 701.474 469.937 702.017 470.488C702.247 470.782 702.522 470.957 702.881 471.094C703.239 471.232 703.703 471.273 704.094 471.149L709.355 469.948L712.458 474.362C712.895 475.01 713.671 475.309 714.443 475.262C715.238 475.156 715.909 474.66 716.184 473.943L717.676 470.06C717.773 470.165 717.952 470.234 718.071 470.28L731.872 475.582C732.111 475.674 732.29 475.743 732.492 475.752L732.552 475.775L732.612 475.798C732.638 475.808 732.668 475.816 732.702 475.824C732.717 475.827 732.734 475.831 732.751 475.834C732.771 475.838 732.792 475.842 732.813 475.846C732.908 475.864 733.014 475.884 733.113 475.922L733.232 475.968C733.292 475.99 733.352 476.013 733.375 475.954C733.392 475.96 733.409 475.965 733.425 475.969C733.433 475.971 733.441 475.972 733.448 475.974C733.454 475.975 733.46 475.975 733.465 475.976C733.489 475.979 733.512 475.98 733.535 475.981C733.586 475.984 733.637 475.986 733.696 476.009C733.726 476.02 733.777 476.022 733.827 476.025C733.878 476.027 733.928 476.029 733.958 476.041C734.018 476.064 734.078 476.087 734.101 476.027C734.303 476.036 734.505 476.045 734.647 476.031C734.707 476.054 734.79 476.018 734.79 476.018C734.809 476.025 734.824 476.024 734.837 476.02C734.846 476.017 734.853 476.014 734.861 476.011C734.882 476.001 734.902 475.992 734.932 476.004C735.033 476.008 735.125 475.992 735.217 475.976C735.309 475.96 735.401 475.944 735.502 475.948C735.644 475.935 735.87 475.884 736.035 475.81C736.035 475.81 736.051 475.816 736.07 475.814C736.087 475.812 736.107 475.802 736.118 475.773L736.2 475.737L736.283 475.7C736.307 475.689 736.331 475.68 736.354 475.671C736.367 475.666 736.38 475.662 736.392 475.658C736.514 475.617 736.628 475.596 736.756 475.539C736.815 475.513 736.877 475.488 736.941 475.463L736.947 475.46C737.15 475.379 737.364 475.294 737.524 475.148C737.689 475.074 737.96 474.904 738.171 474.711C738.179 474.692 738.19 474.681 738.203 474.673C738.21 474.669 738.217 474.666 738.224 474.663C738.245 474.654 738.265 474.645 738.277 474.615C738.281 474.604 738.286 474.596 738.292 474.59C738.303 474.578 738.316 474.572 738.33 474.567C738.35 474.557 738.371 474.548 738.383 474.518C738.406 474.458 738.465 474.481 738.488 474.422C738.499 474.412 738.51 474.402 738.52 474.394C738.528 474.387 738.536 474.381 738.543 474.375C738.567 474.356 738.589 474.339 738.612 474.323L738.635 474.307L738.655 474.293L738.681 474.274L738.703 474.257C738.729 474.238 738.755 474.217 738.782 474.192L739.099 473.902C739.111 473.872 739.137 473.848 739.163 473.824C739.19 473.8 739.216 473.776 739.228 473.746C739.485 473.433 739.742 473.121 739.94 472.785L739.94 472.784C740.16 472.39 740.381 471.995 740.564 471.517L744.03 462.496C744.911 460.915 744.065 459.013 742.393 458.37ZM699.98 417.257C701.518 413.254 706.066 411.23 710.069 412.768L733.07 421.605C731.774 422.478 730.722 423.788 730.126 425.342L727.555 432.033L698.58 420.901L699.98 417.257ZM713.357 459.35C709.833 457.996 708.067 454.027 709.421 450.502C710.775 446.977 714.722 445.271 718.246 446.625C721.771 447.979 723.537 451.949 722.183 455.474C720.829 458.998 716.882 460.705 713.357 459.35ZM710.856 465.862L705.843 466.953L708.414 460.262C709.402 461.259 710.638 462.145 712.072 462.696C713.506 463.247 714.935 463.453 716.419 463.338L713.826 470.089L710.856 465.862ZM718.879 466.751L720.646 462.151C722.782 461.052 724.528 459.185 725.469 456.736C727.512 451.419 724.886 445.405 719.509 443.339C714.192 441.297 708.178 443.923 706.112 449.299C705.194 451.689 705.241 454.244 706.069 456.55L704.325 461.091L697.215 458.359C695.841 457.831 695.142 456.26 695.67 454.886L706.159 427.584L726.472 435.388C728.145 436.03 730.047 435.184 730.689 433.511L733.329 426.641C734.178 424.43 736.645 423.184 738.901 423.914L739.678 424.212C741.769 425.016 742.836 427.414 742.033 429.505L727.825 466.486C727.389 467.621 727.252 468.871 727.422 470.033L719.297 466.911C719.141 466.783 719.021 466.737 718.879 466.751ZM737.011 471.04L737.01 471.043C736.974 471.09 736.939 471.137 736.904 471.182C736.87 471.226 736.837 471.268 736.805 471.307C736.791 471.32 736.777 471.332 736.763 471.344C736.75 471.354 736.738 471.365 736.726 471.374L736.707 471.39C736.696 471.398 736.686 471.407 736.676 471.415L736.667 471.424C736.66 471.43 736.653 471.437 736.646 471.443C736.638 471.452 736.63 471.461 736.622 471.47C736.614 471.481 736.606 471.492 736.598 471.504C736.588 471.521 736.579 471.539 736.571 471.56L736.383 471.693C736.365 471.701 736.347 471.711 736.327 471.723C736.306 471.737 736.284 471.752 736.262 471.767L736.247 471.778C736.2 471.812 736.153 471.845 736.112 471.863L736.029 471.9C735.985 471.92 735.935 471.956 735.875 471.988C735.849 472.002 735.821 472.015 735.792 472.026C735.777 472.031 735.762 472.036 735.747 472.039C735.731 472.043 735.715 472.046 735.698 472.047C735.615 472.084 735.533 472.121 735.39 472.135L735.308 472.171L735.307 472.172C735.082 472.222 734.857 472.273 734.655 472.264C734.573 472.3 734.513 472.277 734.453 472.254C734.442 472.25 734.43 472.248 734.418 472.247C734.407 472.246 734.396 472.246 734.385 472.247C734.374 472.248 734.363 472.249 734.352 472.25C734.316 472.253 734.281 472.257 734.251 472.245L734.108 472.259C734.084 472.25 734.046 472.247 734.005 472.244L733.971 472.243L733.943 472.241C733.905 472.239 733.869 472.236 733.846 472.227L733.787 472.204C733.757 472.193 733.706 472.19 733.656 472.188L733.628 472.187C733.61 472.186 733.593 472.185 733.578 472.183C733.557 472.181 733.539 472.177 733.525 472.172L733.405 472.126L733.107 472.011C731.314 471.323 730.431 469.338 731.12 467.546L734.379 459.062L740.772 461.518C740.772 461.518 737.343 470.622 737.214 470.778C737.15 470.856 737.081 470.948 737.011 471.04ZM434.321 423.317H442.421C443.571 423.317 444.471 424.167 444.471 425.317V425.967C444.471 431.667 440.121 440.317 434.171 441.167C433.421 445.917 430.071 449.767 425.671 451.317V462.217H434.121C435.121 462.217 435.921 463.017 435.921 464.017V466.567C435.921 467.567 435.121 468.367 434.121 468.367H409.221C408.221 468.367 407.421 467.567 407.421 466.567V464.067C407.421 463.067 408.221 462.267 409.221 462.267H417.221V451.367C412.821 449.817 409.471 445.967 408.721 441.217C402.771 440.367 398.421 431.717 398.421 426.017V425.367C398.421 424.167 399.271 423.317 400.421 423.317H408.521V423.167C408.521 421.817 409.621 420.767 410.921 420.767H431.921C433.271 420.767 434.321 421.867 434.321 423.167V423.317ZM401.121 426.067C401.171 430.317 404.371 436.917 408.221 438.267V426.067H401.121ZM420.171 462.217H422.671V452.017C422.271 452.067 421.821 452.067 421.421 452.067C421.021 452.067 420.571 452.067 420.171 452.017V462.217ZM421.421 449.317C427.021 449.317 431.571 444.767 431.571 439.167V423.517H411.271V439.167C411.271 444.767 415.821 449.317 421.421 449.317ZM434.621 426.067V438.267C438.471 436.917 441.671 430.317 441.721 426.067H434.621ZM233.169 500.643L233.319 510.114L235.66 512.445C235.79 512.571 235.793 512.763 235.667 512.893L231.888 516.793C231.762 516.923 231.57 516.926 231.44 516.8L227.54 513.022C227.41 512.896 227.407 512.704 227.533 512.574L229.8 510.234L229.676 502.363L225.101 504.483L224.529 504.748L224.733 517.675C224.833 523.946 219.857 529.081 213.586 529.18L198.42 529.42C192.149 529.52 187.013 524.544 186.914 518.273L186.706 505.091L177.749 501.328C176.976 501.02 176.452 500.26 176.439 499.428C176.426 498.596 176.925 497.82 177.688 497.488L204.573 485.413C205.209 485.211 205.913 485.2 206.556 485.382L206.749 485.443L233.362 496.672C234.329 497.104 234.922 498.183 234.556 499.277C234.373 499.856 233.868 500.312 233.36 500.576L233.169 500.643ZM213.594 525.66C217.882 525.592 221.346 522.017 221.278 517.729L221.097 506.275L207.053 512.706C206.734 512.775 206.351 512.845 206.031 512.85C205.647 512.856 205.327 512.861 205.005 512.738L204.812 512.677L190.249 506.571L190.434 518.217C190.502 522.505 194.077 525.969 198.364 525.901L213.594 525.66ZM205.976 509.394L223.642 501.306L229.042 498.724L205.522 488.791L182.07 499.339L186.451 501.126L205.976 509.394ZM612.675 388.067L605.504 389.201L598.762 346.567C598.525 345.068 597.166 344.08 595.667 344.317L587.713 345.575C586.736 345.729 586.012 346.646 586.177 347.689C586.342 348.732 587.248 349.39 588.291 349.225L595.331 348.112L601.929 389.833L594.693 390.978C593.715 391.132 592.991 392.049 593.156 393.092C593.321 394.135 594.227 394.793 595.27 394.628L613.328 391.773C614.306 391.618 615.03 390.702 614.865 389.659C614.7 388.616 613.718 387.902 612.675 388.067ZM596.884 332.831C598.565 334.053 598.937 336.405 597.715 338.086C596.493 339.767 594.141 340.139 592.46 338.917C590.78 337.695 590.407 335.343 591.629 333.662C592.851 331.982 595.203 331.609 596.884 332.831ZM274.502 258.866L284.101 264.408C284.984 264.918 285.342 266.067 284.798 267.009C284.254 267.951 283.08 268.216 282.197 267.706L272.598 262.164C271.656 261.62 271.357 260.505 271.901 259.563C272.445 258.621 273.618 258.356 274.502 258.866ZM299.191 277.439L308.79 282.981C309.674 283.491 310.847 283.226 311.391 282.284C311.935 281.342 311.637 280.227 310.694 279.683L301.095 274.141C300.212 273.631 299.038 273.896 298.494 274.838C297.95 275.78 298.249 276.895 299.191 277.439ZM304.744 289.989L295.145 284.447C294.203 283.903 293.905 282.788 294.449 281.846C294.993 280.904 296.166 280.639 297.049 281.149L306.648 286.691C307.591 287.235 307.889 288.35 307.345 289.292C306.801 290.234 305.628 290.499 304.744 289.989ZM280.055 271.416L270.456 265.874C269.572 265.364 268.399 265.629 267.855 266.571C267.311 267.513 267.61 268.628 268.552 269.172L278.151 274.714C279.034 275.224 280.208 274.959 280.752 274.017C281.296 273.074 280.938 271.926 280.055 271.416ZM266.41 272.882L276.009 278.424C276.892 278.934 277.25 280.082 276.706 281.025C276.162 281.967 274.988 282.232 274.105 281.722L264.506 276.18C263.564 275.636 263.265 274.521 263.809 273.579C264.353 272.636 265.526 272.372 266.41 272.882ZM291.099 291.455L300.698 296.997C301.581 297.507 302.755 297.242 303.299 296.3C303.843 295.358 303.544 294.243 302.602 293.699L293.003 288.157C292.119 287.647 290.946 287.912 290.402 288.854C289.858 289.796 290.156 290.911 291.099 291.455ZM557.419 527.874L521.366 502.708C522.428 501.186 530.13 504.689 539.072 510.774L541.38 507.468L541.17 507.322C536.298 502.672 533.987 496.143 534.749 489.572L529.449 485.872C528.609 485.286 528.419 484.217 529.005 483.377C529.591 482.537 530.713 482.384 531.5 482.933L553.962 498.612C554.749 499.161 554.939 500.23 554.353 501.07C553.767 501.91 552.645 502.063 551.858 501.514L538.108 491.916C538.041 496.709 539.966 501.33 543.552 504.692C544.701 505.728 545.924 506.66 547.294 507.382C555.07 511.561 564.813 509.23 569.869 501.988C572.689 497.947 573.668 492.854 572.581 488.038C572.502 487.592 572.386 487.199 572.271 486.806L557.663 494.092C556.782 494.571 555.697 494.672 554.763 494.332L554.713 494.308L554.632 494.27L554.631 494.27C554.335 494.13 554.073 494.006 553.798 493.814C553.273 493.448 552.822 492.977 552.496 492.437L549.331 486.013C548.395 484.111 549.137 481.819 551.039 480.883L574.046 469.391C575.948 468.455 578.24 469.197 579.176 471.099L582.341 477.523C583.276 479.425 582.535 481.717 580.633 482.653L575.519 485.171C575.601 485.501 575.696 485.84 575.79 486.18C575.885 486.519 575.98 486.859 576.062 487.189C577.412 492.97 576.251 499.106 572.844 503.987C566.727 512.751 555.038 515.519 545.699 510.561L545.541 510.451L543.307 513.652C552.276 520.147 558.482 526.352 557.419 527.874ZM556.036 490.98C556.046 490.978 556.056 490.976 556.066 490.975L556.096 490.969L578.977 479.546C579.103 479.477 579.16 479.283 579.092 479.158L575.927 472.734C575.859 472.608 575.665 472.551 575.539 472.619L552.658 484.043C552.532 484.111 552.474 484.305 552.543 484.431L555.708 490.855L555.865 490.965C555.893 490.984 555.931 490.989 555.973 490.986C555.994 490.985 556.015 490.983 556.036 490.98ZM503.45 252.074C503.203 251.51 502.772 251.087 502.182 250.858L494.063 247.698C493.501 247.395 492.854 247.313 492.318 247.487C491.732 247.684 491.207 248.159 491 248.801L487.559 257.532L456.135 271.35C454.956 271.869 454.417 273.146 454.958 274.376L471.909 312.926C472.428 314.105 473.705 314.645 474.935 314.104L513.434 297.175C514.613 296.656 515.152 295.379 514.611 294.149L500.41 261.853L503.54 253.808C503.719 253.241 503.698 252.638 503.45 252.074ZM489.174 282.21L487.993 281.751C487.181 281.435 486.309 281.818 485.993 282.63C485.678 283.442 486.061 284.313 486.873 284.629L487.168 284.744L482.705 288.786L482.127 282.74L482.422 282.854C482.791 282.998 483.217 282.994 483.576 282.836C483.935 282.678 484.226 282.367 484.37 281.998C484.686 281.186 484.302 280.315 483.491 279.999L482.31 279.539L490.553 258.357L497.394 260.977L489.174 282.21ZM511.374 294.716L474.464 310.946L458.144 273.832L486.031 261.569L478.908 279.872L478.742 280.19L479.873 291.806C479.922 292.335 480.125 292.796 480.562 293.093L480.583 293.105C480.839 293.25 481.413 293.575 482.21 293.225L482.415 293.135L491.238 285.095L498.705 265.906L511.374 294.716ZM498.514 258.099L491.673 255.479L493.511 250.755L500.375 253.426L498.514 258.099ZM55.5926 426.331C56.0094 426.808 56.1951 427.382 56.1535 427.997C56.112 428.611 55.8507 429.155 55.4294 429.576L48.9275 435.254L46.5476 470.453C46.457 471.794 45.387 472.676 44.102 472.589L2.14178 469.752C0.800842 469.662 -0.0809934 468.592 0.00589133 467.307L2.84665 425.291C2.93731 423.95 4.00723 423.068 5.2923 423.155L39.5421 425.47L46.6367 419.327C47.1177 418.854 47.8032 418.676 48.4141 418.774C48.969 418.867 49.5051 419.24 49.8622 419.77L55.5926 426.331ZM28.7041 447.133L29.5377 448.087L46.661 433.08L41.8124 427.588L24.6928 442.54L25.5264 443.494C26.0994 444.15 26.0352 445.1 25.379 445.673C25.0808 445.934 24.6783 446.075 24.2872 446.048C23.8961 446.022 23.5164 445.828 23.2559 445.53L23.0475 445.291L20.7587 450.917L26.5862 449.403L26.3778 449.164C25.8047 448.508 25.869 447.558 26.5251 446.985C27.1813 446.412 28.1311 446.477 28.7041 447.133ZM3.18763 466.736L43.4158 469.456L45.5388 438.056L30.0298 451.6L18.4867 454.637L18.2632 454.621C17.3946 454.563 17.0363 454.009 16.8768 453.762L16.8634 453.741C16.6143 453.275 16.6483 452.772 16.8499 452.281L21.2295 441.464L21.524 441.259L36.3172 428.339L5.92262 426.284L3.18763 466.736ZM44.1388 425.557L48.9873 431.048L52.8012 427.77L47.9564 422.223L44.1388 425.557Z" fill="#667EEA"/>
</svg>
<!--home-->
<!--categories-->
<svg id="icon-about_afford" width="56" height="56" viewBox="0 0 32 32" x="0" y="0">
<path fill="#1b63f0" d="M6.208 30.87h21.984c0-0.928-4.32-1.696-9.856-1.792v-1.952c0.032 0 0.064 0 0.096 0 5.248-0.64 9.248-5.12 9.248-10.464 0-2.976-1.28-5.824-3.488-7.808-0.256-0.224-0.544-0.448-0.8-0.672l1.376-2.496c0.512-0.928 0.16-2.080-0.768-2.592l-3.136-1.728c-0.928-0.512-2.080-0.16-2.592 0.768l-6.144 11.296c-0.512 0.928-0.16 2.080 0.768 2.592l3.136 1.728c0.288 0.128 0.608 0.192 0.928 0.192 0.192 0 0.352-0.032 0.544-0.064 0.48-0.128 0.896-0.48 1.12-0.928l3.904-7.168c0.16 0.128 0.32 0.256 0.48 0.416 1.824 1.664 2.88 4.032 2.88 6.496 0 4.416-3.328 8.16-7.712 8.672-0.768 0.096-1.536 0.064-2.304-0.032-2.432-0.352-4.544-1.696-5.888-3.68h8.384c0.48 0 0.896-0.384 0.896-0.896s-0.384-0.896-0.864-0.896h-13.696c-0.48 0-0.896 0.384-0.896 0.896s0.384 0.896 0.896 0.896h3.232c1.568 2.912 4.384 4.928 7.712 5.44 0.032 0 0.096 0 0.128 0v2.016c-5.408 0.064-9.568 0.832-9.568 1.76zM17.088 16.118c-0.032 0.032-0.064 0.064-0.096 0.064s-0.064 0-0.096 0l-3.136-1.728c-0.064-0.032-0.096-0.128-0.064-0.192l6.112-11.232c0.032-0.064 0.128-0.096 0.192-0.064l3.136 1.728c0.064 0.032 0.096 0.128 0.064 0.192l-6.112 11.232z"></path>
</svg>
<svg id="icon-about_certificate" width="56" height="56" viewBox="0 0 32 32" x="0" y="0">
<path fill="#1b63f0" d="M29.705 18.096h-3.584v-13.408c0-2.080-1.696-3.808-3.776-3.808h-0.032c-0.128 0-0.288 0-0.416 0h-15.456c-3.104 0-5.664 2.528-5.664 5.664v2.112c0 0.896 0.736 1.632 1.632 1.632h3.136v14.624c0 1.696 1.376 3.104 3.104 3.104h3.808v2.048c0 0.384 0.224 0.768 0.576 0.928 0.16 0.096 0.32 0.128 0.512 0.128s0.416-0.064 0.576-0.192l2.24-1.504 2.24 1.504c0.32 0.224 0.736 0.224 1.088 0.064 0.352-0.192 0.576-0.544 0.576-0.928v-2.080c0.064 0.032 0.16 0.032 0.224 0.032h7.392c0.128 0 0.224 0 0.32-0.032h0.064c0.064 0 0.16-0.032 0.256-0.032 0.032 0 0.064 0 0.064 0 0.032 0 0.064 0 0.064-0.032 0.064 0 0.096-0.032 0.16-0.032 0.032 0 0.096-0.032 0.128-0.032s0.064 0 0.064-0.032c0.096-0.032 0.192-0.064 0.256-0.096 0.032 0 0.064-0.032 0.064-0.032 0.032 0 0.032-0.032 0.064-0.032 0.096-0.032 0.16-0.096 0.256-0.128 0.064-0.032 0.16-0.096 0.224-0.16 0 0 0.032 0 0.032-0.032l0.064-0.064c0.064-0.064 0.128-0.096 0.192-0.16 0.096-0.096 0.224-0.192 0.288-0.32 0.064-0.064 0.16-0.192 0.224-0.32 0-0.032 0.032-0.032 0.032-0.064s0.032-0.032 0.032-0.064c0-0.032 0.032-0.032 0.032-0.064 0.032-0.064 0.064-0.096 0.096-0.16s0.064-0.128 0.096-0.192c0-0.032 0.032-0.064 0.032-0.096 0.064-0.192 0.128-0.384 0.16-0.576 0.032-0.224 0.064-0.448 0.064-0.704v-4.832c0.128-0.896-0.608-1.632-1.504-1.632zM2.537 6.512c0-2.144 1.76-3.904 3.904-3.904h12.32c-0.448 0.64-0.704 1.44-0.704 2.272v3.584h-15.52v-1.952zM16.329 23.76c-1.888 0-3.424-1.536-3.424-3.424s1.536-3.392 3.424-3.392c1.888 0 3.424 1.536 3.424 3.424s-1.536 3.392-3.424 3.392zM16.329 27.248l-2.144 1.408v-3.584c0.64 0.288 1.376 0.48 2.144 0.48s1.472-0.16 2.144-0.48v3.616l-2.144-1.44zM20.233 26.224v-2.464c0.8-0.896 1.28-2.080 1.28-3.392 0-2.848-2.304-5.184-5.184-5.184-2.848 0-5.184 2.304-5.184 5.184 0 1.28 0.48 2.464 1.28 3.392v2.432h-3.808c-0.736 0-1.344-0.608-1.344-1.344v-14.624h10.88c0.896 0 1.632-0.736 1.632-1.632v-3.68c0-1.184 0.928-2.208 2.112-2.272h0.416c1.12 0 2.048 0.928 2.048 2.048v19.808c0 0.608 0.16 1.216 0.448 1.728h-4.352c-0.096-0.032-0.16-0.032-0.224 0zM29.513 24.816c-0.032 0.096-0.064 0.224-0.096 0.32-0.032 0.064-0.064 0.096-0.064 0.16l-0.064 0.096c-0.032 0.032-0.064 0.096-0.096 0.128l-0.032 0.032c-0.032 0.032-0.064 0.096-0.128 0.128-0.032 0.032-0.064 0.064-0.128 0.096l-0.032 0.032c-0.096 0.064-0.192 0.128-0.288 0.16-0.032 0.032-0.064 0.032-0.096 0.032s-0.064 0.032-0.096 0.032l-0.064 0.032c-0.032 0-0.096 0.032-0.128 0.032h-0.032c-0.032 0-0.096 0.032-0.128 0.032h-0.064c-0.064 0-0.096 0-0.16 0-0.96 0-1.728-0.768-1.728-1.728v-4.544h3.424c0 0 0.032 4.864 0 4.96z"></path>
</svg>
<svg id="icon-about_life_program" width="56" height="56" viewBox="0 0 32 32" x="0" y="0">
<path fill="#1b63f0" d="M27.135 25.648l-3.584-7.936c1.216-1.12 2.176-2.528 2.816-4.128 0.16-0.448-0.064-0.96-0.512-1.152s-0.96 0.064-1.152 0.512c-0.448 1.152-1.12 2.208-1.952 3.072l-2.432-5.408c0.384-0.704 0.576-1.472 0.576-2.304 0-2.368-1.664-4.32-3.872-4.8v-1.536c0-0.544-0.448-0.992-0.992-0.992s-0.992 0.448-0.992 0.992v1.536c-2.208 0.48-3.872 2.432-3.872 4.8 0 0.832 0.224 1.632 0.576 2.304l-2.432 5.408c-0.832-0.864-1.472-1.888-1.952-3.072-0.192-0.448-0.672-0.672-1.152-0.512-0.448 0.192-0.672 0.672-0.512 1.152 0.64 1.632 1.6 3.008 2.816 4.128l-3.584 7.936-0.128 4.288c0 0.416 0.224 0.8 0.608 0.992 0.128 0.064 0.288 0.096 0.416 0.096 0.256 0 0.512-0.096 0.704-0.288l3.104-2.944 3.392-7.52c0.96 0.256 1.952 0.416 2.976 0.416s2.016-0.16 2.976-0.416l3.392 7.52 3.104 2.944c0.192 0.192 0.448 0.288 0.704 0.288 0.128 0 0.288-0.032 0.416-0.096 0.384-0.16 0.64-0.544 0.608-0.992l-0.064-4.288zM14.431 12.912l-2.304 5.12c-0.512-0.224-0.992-0.512-1.472-0.832l2.304-5.088c0.448 0.352 0.928 0.608 1.472 0.8zM19.103 12.112l2.304 5.088c-0.448 0.32-0.96 0.608-1.472 0.832l-2.304-5.12c0.544-0.192 1.024-0.448 1.472-0.8zM16.031 5.168c1.728 0 3.136 1.408 3.136 3.136s-1.408 3.136-3.136 3.136c-1.728 0-3.136-1.408-3.136-3.136s1.408-3.136 3.136-3.136zM8.223 26.736l-1.6 1.504 0.064-2.176 3.264-7.232c0.48 0.32 0.96 0.576 1.472 0.8l-3.2 7.104zM16.031 18.896c-0.768 0-1.504-0.096-2.24-0.256l2.24-4.96 2.24 4.96c-0.736 0.16-1.472 0.256-2.24 0.256zM23.839 26.736l-3.2-7.072c0.512-0.224 0.992-0.512 1.472-0.8l3.264 7.2 0.064 2.176-1.6-1.504z"></path>
</svg>
<svg id="icon-about_social" width="56" height="56" viewBox="0 0 32 32" x="0" y="0">
<path fill="#1b63f0" d="M9.008 2.608h16.896c0.48 0 0.896-0.384 0.896-0.896s-0.416-0.864-0.896-0.864h-16.896c-1.952 0-3.552 1.44-3.776 3.328-0.032 0.064-0.032 0.16-0.032 0.256v23.936c0 1.536 1.248 2.784 2.784 2.784h17.312c0.64 0 1.184-0.544 1.184-1.184v-22.048c0-0.64-0.544-1.184-1.184-1.184h-16.288c-1.12 0-2.080-0.96-2.080-2.080s0.96-2.048 2.080-2.048zM9.008 8.496h15.712v20.896h-16.736c-0.576 0-1.024-0.448-1.024-1.024v-20.48c0.576 0.384 1.28 0.608 2.048 0.608z"></path>
<path fill="#1b63f0" d="M20.048 25.776h-8.128c-0.48 0-0.896 0.384-0.896 0.896s0.384 0.896 0.896 0.896h8.096c0.48 0 0.896-0.384 0.896-0.896s-0.384-0.896-0.864-0.896z"></path>
<path fill="#1b63f0" d="M11.088 14.16h9.76c0.352 0 0.64-0.288 0.64-0.64v-1.92c0-0.352-0.288-0.64-0.64-0.64h-9.76c-0.352 0-0.64 0.288-0.64 0.64v1.92c0 0.352 0.288 0.64 0.64 0.64z"></path>
</svg>
<!--categories-->

<!--course-->
<svg id="star_active" width="9" height="10" viewBox="0 0 9 10" fill="none" xmlns="http://www.w3.org/2000/svg">
    <path d="M7.50298 8.9856C7.56856 9.39735 7.13102 9.70378 6.7665 9.50139L4.806 8.4129C4.65505 8.32909 4.47154 8.32909 4.32059 8.4129L2.36008 9.50139C1.99556 9.70378 1.55802 9.39735 1.6236 8.9856L1.99202 6.6726C2.01695 6.51613 1.96623 6.3571 1.85532 6.24395L0.183568 4.53843C-0.101772 4.24733 0.0624205 3.75546 0.465407 3.69413L2.71428 3.35185C2.88076 3.32652 3.0233 3.21908 3.09351 3.06602L4.04554 0.99069C4.22385 0.601993 4.77615 0.601994 4.95446 0.99069L5.90649 3.06602C5.9767 3.21908 6.11924 3.32652 6.28572 3.35185L8.56433 3.69865C8.96154 3.75911 9.12883 4.23966 8.85502 4.5337L7.26116 6.24533C7.15625 6.35799 7.10909 6.5127 7.13331 6.66472L7.50298 8.9856Z" fill="#FDD22F"/>
</svg>
<svg id="star_not" width="9" height="10" viewBox="0 0 9 10" fill="none" xmlns="http://www.w3.org/2000/svg">
    <path d="M7.50298 8.9856C7.56856 9.39735 7.13102 9.70378 6.7665 9.50139L4.806 8.4129C4.65505 8.32909 4.47154 8.32909 4.32059 8.4129L2.36008 9.50139C1.99556 9.70378 1.55802 9.39735 1.6236 8.9856L1.99202 6.6726C2.01695 6.51613 1.96623 6.3571 1.85532 6.24395L0.183568 4.53843C-0.101772 4.24733 0.0624205 3.75546 0.465407 3.69413L2.71428 3.35185C2.88076 3.32652 3.0233 3.21908 3.09351 3.06602L4.04554 0.99069C4.22385 0.601993 4.77615 0.601994 4.95446 0.99069L5.90649 3.06602C5.9767 3.21908 6.11924 3.32652 6.28572 3.35185L8.56433 3.69865C8.96154 3.75911 9.12883 4.23966 8.85502 4.5337L7.26116 6.24533C7.15625 6.35799 7.10909 6.5127 7.13331 6.66472L7.50298 8.9856Z" fill="#DEDEDE"/>
</svg>
<!--course-->
<!--description-->
<svg id="play_btn" width="14" height="18" viewBox="0 0 14 18" xmlns="http://www.w3.org/2000/svg">
    <path d="M0 0L14 9L0 18V0Z" fill="white"/>
</svg>
<!--description-->
<!--explore-->
<svg id="icon-map" width="20" height="20" viewBox="0 0 32 32" x="0" y="0">
    <path fill="none" stroke="#838383" stroke-linejoin="round" stroke-linecap="round" stroke-miterlimit="4" stroke-width="2.4" d="M28 13.333c0 9.333-12 17.333-12 17.333s-12-8-12-17.333c0-3.183 1.264-6.235 3.515-8.485s5.303-3.515 8.485-3.515c3.183 0 6.235 1.264 8.485 3.515s3.515 5.303 3.515 8.485z"></path>
    <path fill="none" stroke="#838383" stroke-linejoin="round" stroke-linecap="round" stroke-miterlimit="4" stroke-width="2.4" d="M16 17.333c2.209 0 4-1.791 4-4s-1.791-4-4-4c-2.209 0-4 1.791-4 4s1.791 4 4 4z"></path>
</svg>
<svg id="icon-calendar" width="20" height="20" viewBox="0 0 32 32" x="0" y="0">
    <path fill="none" stroke="#838383" stroke-linejoin="round" stroke-linecap="round" stroke-miterlimit="4" stroke-width="2.4" d="M25.333 5.333h-18.667c-1.473 0-2.667 1.194-2.667 2.667v18.667c0 1.473 1.194 2.667 2.667 2.667h18.667c1.473 0 2.667-1.194 2.667-2.667v-18.667c0-1.473-1.194-2.667-2.667-2.667z"></path>
    <path fill="none" stroke="#838383" stroke-linejoin="round" stroke-linecap="round" stroke-miterlimit="4" stroke-width="2.4" d="M21.333 2.667v5.333"></path>
    <path fill="none" stroke="#838383" stroke-linejoin="round" stroke-linecap="round" stroke-miterlimit="4" stroke-width="2.4" d="M10.667 2.667v5.333"></path>
    <path fill="none" stroke="#838383" stroke-linejoin="round" stroke-linecap="round" stroke-miterlimit="4" stroke-width="2.4" d="M4 13.333h24"></path>
</svg>
<svg id="icon-clock" width="20" height="20" viewBox="0 0 32 32" x="0" y="0">
    <path fill="none" stroke="#838383" stroke-linejoin="round" stroke-linecap="round" stroke-miterlimit="4" stroke-width="2.4" d="M16 29.333c7.364 0 13.333-5.969 13.333-13.333s-5.97-13.333-13.333-13.333c-7.364 0-13.333 5.97-13.333 13.333s5.97 13.333 13.333 13.333z"></path>
    <path fill="none" stroke="#838383" stroke-linejoin="round" stroke-linecap="round" stroke-miterlimit="4" stroke-width="2.4" d="M16 8v8l5.333 2.667"></path>
</svg>
<!--explore-->

<!--costumers-->
    <svg id="green_bg" width="786" height="597" viewBox="0 0 786 597" fill="none" xmlns="http://www.w3.org/2000/svg">
        <path d="M282.045 596.785C429.045 596.785 785.045 563 785.045 446.785C785.045 378.785 712.955 334 649 314.785C579.508 293.906 428.045 276.785 428.045 246.785C428.045 216.785 483.045 14.7847 301.045 0.784733C119.045 -13.2153 -7.95544 162.785 -10.9554 314.785C-13.9554 466.785 135.045 596.785 282.045 596.785Z" fill="#D6FAE7"/>
        <path opacity="0.4" d="M539.401 251.934C501.401 40.9341 336.401 6.93399 216.401 41.934C96.4007 77.934 40.9121 161.323 30.4014 270.934C16.4012 416.934 108.401 531.934 257.401 552.934C406.401 573.934 577.401 462.934 539.401 251.934Z" fill="#A8E2C7"/>
    </svg>


    <svg id="icon-quotes" width="38" height="30" viewBox="0 0 38 30" x="0" y="0">
    <path fill="#3f4c9a" d="M10.338 15.024c1.231 0.542 2.191 1.354 2.88 2.437s1.034 2.363 1.034 3.84c0 2.117-0.665 3.84-1.994 5.169-1.329 1.28-3.028 1.92-5.095 1.92s-3.791-0.665-5.169-1.994c-1.329-1.329-1.994-3.028-1.994-5.095 0-0.985 0.123-1.969 0.369-2.954s0.788-2.462 1.625-4.431l4.283-10.634h7.311l-3.249 11.742zM27.766 15.024c1.231 0.542 2.191 1.354 2.88 2.437s1.034 2.363 1.034 3.84c0 2.117-0.665 3.84-1.994 5.169-1.329 1.28-3.028 1.92-5.095 1.92s-3.791-0.665-5.169-1.994c-1.329-1.329-1.994-3.028-1.994-5.095 0-0.985 0.123-1.969 0.369-2.954s0.788-2.462 1.625-4.431l4.283-10.634h7.311l-3.249 11.742z"></path>
</svg>
<!--costumers-->

<!--get_started-->
<svg id="icon-link-2chain" width="24" height="24" viewBox="0 0 32 32" x="0" y="0">
    <path fill="none" stroke="#fff" stroke-linejoin="round" stroke-linecap="round" stroke-miterlimit="4" stroke-width="2.6667" d="M13.333 17.333c0.573 0.765 1.303 1.399 2.142 1.857s1.767 0.731 2.72 0.799c0.953 0.068 1.911-0.069 2.806-0.403s1.709-0.857 2.385-1.533l4-4c1.214-1.257 1.886-2.941 1.871-4.689s-0.716-3.42-1.952-4.656c-1.236-1.236-2.908-1.937-4.656-1.952s-3.432 0.657-4.689 1.871l-2.293 2.28"></path>
    <path fill="none" stroke="#fff" stroke-linejoin="round" stroke-linecap="round" stroke-miterlimit="4" stroke-width="2.6667" d="M18.667 14.667c-0.573-0.765-1.303-1.399-2.142-1.857s-1.767-0.731-2.72-0.799c-0.954-0.068-1.911 0.069-2.806 0.403s-1.709 0.857-2.385 1.533l-4 4c-1.214 1.257-1.886 2.941-1.871 4.689s0.716 3.42 1.952 4.656c1.236 1.236 2.908 1.937 4.656 1.952s3.432-0.657 4.689-1.871l2.28-2.28"></path>
</svg>
<svg id="pen_tool" width="24" height="24" viewBox="0 0 24 24" fill="none" xmlns="http://www.w3.org/2000/svg">
    <path d="M12 19L19 12L22 15L15 22L12 19Z" stroke="white" stroke-width="2" stroke-linecap="round" stroke-linejoin="round"/>
    <path d="M18 13L16.5 5.5L2 2L5.5 16.5L13 18L18 13Z" stroke="white" stroke-width="2" stroke-linecap="round" stroke-linejoin="round"/>
    <path d="M2 2L9.586 9.586" stroke="white" stroke-width="2" stroke-linecap="round" stroke-linejoin="round"/>
    <path d="M11 13C12.1046 13 13 12.1046 13 11C13 9.89543 12.1046 9 11 9C9.89543 9 9 9.89543 9 11C9 12.1046 9.89543 13 11 13Z" stroke="white" stroke-width="2" stroke-linecap="round" stroke-linejoin="round"/>
</svg>
<svg id="icon-briefcasereview" width="24" height="24" viewBox="0 0 32 32" x="0" y="0">
    <path fill="none" stroke="#fff" stroke-linejoin="round" stroke-linecap="round" stroke-miterlimit="4" stroke-width="2.6667" d="M26.667 9.333h-21.333c-1.473 0-2.667 1.194-2.667 2.667v13.333c0 1.473 1.194 2.667 2.667 2.667h21.333c1.473 0 2.667-1.194 2.667-2.667v-13.333c0-1.473-1.194-2.667-2.667-2.667z"></path>
    <path fill="none" stroke="#fff" stroke-linejoin="round" stroke-linecap="round" stroke-miterlimit="4" stroke-width="2.6667" d="M21.333 28v-21.333c0-0.707-0.281-1.386-0.781-1.886s-1.178-0.781-1.886-0.781h-5.333c-0.707 0-1.386 0.281-1.886 0.781s-0.781 1.178-0.781 1.886v21.333"></path>
</svg>
<svg id="icon-book-openbook" width="24" height="24" viewBox="0 0 32 32" x="0" y="0">
    <path fill="none" stroke="#fff" stroke-linejoin="round" stroke-linecap="round" stroke-miterlimit="4" stroke-width="2.6667" d="M2.667 4h8c1.415 0 2.771 0.562 3.771 1.562s1.562 2.357 1.562 3.771v18.667c0-1.061-0.421-2.078-1.172-2.828s-1.768-1.172-2.828-1.172h-9.333v-20z"></path>
    <path fill="none" stroke="#fff" stroke-linejoin="round" stroke-linecap="round" stroke-miterlimit="4" stroke-width="2.6667" d="M29.333 4h-8c-1.415 0-2.771 0.562-3.771 1.562s-1.562 2.357-1.562 3.771v18.667c0-1.061 0.421-2.078 1.172-2.828s1.768-1.172 2.828-1.172h9.333v-20z"></path>
</svg>
<svg id="icon-squareqa" width="24" height="24" viewBox="0 0 32 32" x="0" y="0">
    <path fill="none" stroke="#fff" stroke-linejoin="round" stroke-linecap="round" stroke-miterlimit="4" stroke-width="2.6667" d="M28 20c0 0.707-0.281 1.385-0.781 1.886s-1.178 0.781-1.886 0.781h-16l-5.333 5.333v-21.333c0-0.707 0.281-1.386 0.781-1.886s1.178-0.781 1.886-0.781h18.667c0.707 0 1.385 0.281 1.886 0.781s0.781 1.178 0.781 1.886v13.333z"></path>
</svg>
<!--get_started-->

<!--navigation_links-->
<svg id="icon-facebook" width="24" height="24" viewBox="0 0 32 32" x="0" y="0">
<path fill="none" stroke-linejoin="round" stroke-linecap="round" stroke-miterlimit="4" stroke-width="2.6667"  d="M24 2.667h-4c-1.768 0-3.464 0.702-4.714 1.953s-1.953 2.946-1.953 4.714v4h-4v5.333h4v10.667h5.333v-10.667h4l1.333-5.333h-5.333v-4c0-0.354 0.141-0.693 0.391-0.943s0.589-0.391 0.943-0.391h4v-5.333z"></path>
</svg>

<svg id="icon-instagram" width="24" height="24" viewBox="0 0 32 32" x="0" y="0">
<path fill="none" stroke-linejoin="round" stroke-linecap="round" stroke-miterlimit="4" stroke-width="2.6667"  d="M22.667 2.667h-13.333c-3.682 0-6.667 2.985-6.667 6.667v13.333c0 3.682 2.985 6.667 6.667 6.667h13.333c3.682 0 6.667-2.985 6.667-6.667v-13.333c0-3.682-2.985-6.667-6.667-6.667z"></path>
<path fill="none" stroke-linejoin="round" stroke-linecap="round" stroke-miterlimit="4" stroke-width="2.6667"  d="M21.333 15.16c0.165 1.11-0.025 2.243-0.542 3.239s-1.334 1.803-2.336 2.307c-1.002 0.504-2.137 0.68-3.245 0.502s-2.131-0.701-2.924-1.494c-0.793-0.793-1.316-1.816-1.494-2.924s-0.003-2.243 0.502-3.245c0.504-1.002 1.312-1.819 2.308-2.336s2.129-0.706 3.239-0.542c1.132 0.168 2.18 0.695 2.989 1.504s1.337 1.857 1.504 2.989z"></path>
<path fill="none" stroke-linejoin="round" stroke-linecap="round" stroke-miterlimit="4" stroke-width="2.6667"  d="M23.333 8.667h0.013"></path>
</svg>
<svg id="icon-twitter" width="24" height="24" viewBox="0 0 32 32" x="0" y="0">
<path fill="none" stroke-linejoin="round" stroke-linecap="round" stroke-miterlimit="4" stroke-width="2.6667" d="M30.667 4c-1.277 0.901-2.691 1.589-4.187 2.040-0.803-0.923-1.87-1.578-3.057-1.875s-2.437-0.222-3.58 0.214c-1.143 0.436-2.125 1.213-2.812 2.226s-1.047 2.212-1.031 3.435v1.333c-2.343 0.061-4.665-0.459-6.759-1.513s-3.894-2.609-5.241-4.527c0 0-5.333 12 6.667 17.333-2.746 1.864-6.017 2.799-9.333 2.667 12 6.667 26.667 0 26.667-15.333-0.001-0.371-0.037-0.742-0.107-1.107 1.361-1.342 2.321-3.036 2.773-4.893z"></path>
</svg>
<svg id="icon-youtube" width="24" height="24" viewBox="0 0 32 32" x="0" y="0">
<path fill="none" stroke-linejoin="round" stroke-linecap="round" stroke-miterlimit="4" stroke-width="2.6667" d="M30.053 8.56c-0.158-0.633-0.481-1.213-0.935-1.681s-1.024-0.808-1.651-0.986c-2.293-0.56-11.467-0.56-11.467-0.56s-9.173 0-11.467 0.613c-0.628 0.178-1.197 0.518-1.652 0.986s-0.777 1.048-0.935 1.681c-0.42 2.327-0.625 4.688-0.613 7.053-0.015 2.383 0.19 4.762 0.613 7.107 0.175 0.613 0.504 1.171 0.958 1.619s1.014 0.772 1.629 0.941c2.293 0.613 11.467 0.613 11.467 0.613s9.173 0 11.467-0.613c0.628-0.178 1.197-0.518 1.651-0.986s0.777-1.048 0.935-1.681c0.417-2.31 0.622-4.653 0.613-7 0.015-2.383-0.19-4.762-0.613-7.107v0z"></path>
<path fill="none" stroke-linejoin="round" stroke-linecap="round" stroke-miterlimit="4" stroke-width="2.6667" d="M13 20.027l7.667-4.36-7.667-4.36v8.72z"></path>
</svg>
<!--navigation_links-->
</svg>
