<svg width="59" height="10" viewBox="0 0 59 10" fill="none" xmlns="http://www.w3.org/2000/svg">
<path d="M8.50298 8.9856C8.56856 9.39735 8.13102 9.70378 7.7665 9.50139L5.806 8.4129C5.65505 8.32909 5.47154 8.32909 5.32059 8.4129L3.36008 9.50139C2.99556 9.70378 2.55802 9.39735 2.6236 8.9856L2.99202 6.6726C3.01695 6.51613 2.96623 6.3571 2.85532 6.24395L1.18357 4.53843C0.898228 4.24733 1.06242 3.75546 1.46541 3.69413L3.71428 3.35185C3.88076 3.32652 4.0233 3.21908 4.09351 3.06602L5.04554 0.99069C5.22385 0.601993 5.77615 0.601994 5.95446 0.99069L6.90649 3.06602C6.9767 3.21908 7.11924 3.32652 7.28572 3.35185L9.56433 3.69865C9.96154 3.75911 10.1288 4.23966 9.85502 4.5337L8.26116 6.24533C8.15625 6.35799 8.10909 6.5127 8.13331 6.66472L8.50298 8.9856Z" fill="#FDD22F"/>
<path d="M20.503 8.9856C20.5686 9.39735 20.131 9.70378 19.7665 9.50139L17.806 8.4129C17.655 8.32909 17.4715 8.32909 17.3206 8.4129L15.3601 9.50139C14.9956 9.70378 14.558 9.39735 14.6236 8.9856L14.992 6.6726C15.0169 6.51613 14.9662 6.3571 14.8553 6.24395L13.1836 4.53843C12.8982 4.24733 13.0624 3.75546 13.4654 3.69413L15.7143 3.35185C15.8808 3.32652 16.0233 3.21908 16.0935 3.06602L17.0455 0.99069C17.2238 0.601993 17.7762 0.601994 17.9545 0.99069L18.9065 3.06602C18.9767 3.21908 19.1192 3.32652 19.2857 3.35185L21.5643 3.69865C21.9615 3.75911 22.1288 4.23966 21.855 4.5337L20.2612 6.24533C20.1563 6.35799 20.1091 6.5127 20.1333 6.66472L20.503 8.9856Z" fill="#FDD22F"/>
<path d="M32.503 8.9856C32.5686 9.39735 32.131 9.70378 31.7665 9.50139L29.806 8.4129C29.655 8.32909 29.4715 8.32909 29.3206 8.4129L27.3601 9.50139C26.9956 9.70378 26.558 9.39735 26.6236 8.9856L26.992 6.6726C27.0169 6.51613 26.9662 6.3571 26.8553 6.24395L25.1836 4.53843C24.8982 4.24733 25.0624 3.75546 25.4654 3.69413L27.7143 3.35185C27.8808 3.32652 28.0233 3.21908 28.0935 3.06602L29.0455 0.99069C29.2238 0.601993 29.7762 0.601994 29.9545 0.99069L30.9065 3.06602C30.9767 3.21908 31.1192 3.32652 31.2857 3.35185L33.5643 3.69865C33.9615 3.75911 34.1288 4.23966 33.855 4.5337L32.2612 6.24533C32.1563 6.35799 32.1091 6.5127 32.1333 6.66472L32.503 8.9856Z" fill="#FDD22F"/>
<path d="M44.503 8.9856C44.5686 9.39735 44.131 9.70378 43.7665 9.50139L41.806 8.4129C41.655 8.32909 41.4715 8.32909 41.3206 8.4129L39.3601 9.50139C38.9956 9.70378 38.558 9.39735 38.6236 8.9856L38.992 6.6726C39.0169 6.51613 38.9662 6.3571 38.8553 6.24395L37.1836 4.53843C36.8982 4.24733 37.0624 3.75546 37.4654 3.69413L39.7143 3.35185C39.8808 3.32652 40.0233 3.21908 40.0935 3.06602L41.0455 0.99069C41.2238 0.601993 41.7762 0.601994 41.9545 0.99069L42.9065 3.06602C42.9767 3.21908 43.1192 3.32652 43.2857 3.35185L45.5643 3.69865C45.9615 3.75911 46.1288 4.23966 45.855 4.5337L44.2612 6.24533C44.1563 6.35799 44.1091 6.5127 44.1333 6.66472L44.503 8.9856Z" fill="#FDD22F"/>
<path d="M56.503 8.9856C56.5686 9.39735 56.131 9.70378 55.7665 9.50139L53.806 8.4129C53.655 8.32909 53.4715 8.32909 53.3206 8.4129L51.3601 9.50139C50.9956 9.70378 50.558 9.39735 50.6236 8.9856L50.992 6.6726C51.0169 6.51613 50.9662 6.3571 50.8553 6.24395L49.1836 4.53843C48.8982 4.24733 49.0624 3.75546 49.4654 3.69413L51.7143 3.35185C51.8808 3.32652 52.0233 3.21908 52.0935 3.06602L53.0455 0.99069C53.2238 0.601993 53.7762 0.601994 53.9545 0.99069L54.9065 3.06602C54.9767 3.21908 55.1192 3.32652 55.2857 3.35185L57.5643 3.69865C57.9615 3.75911 58.1288 4.23966 57.855 4.5337L56.2612 6.24533C56.1563 6.35799 56.1091 6.5127 56.1333 6.66472L56.503 8.9856Z" fill="#FDD22F"/>
</svg>
