<svg width="16" height="12" viewBox="0 0 16 12" fill="none" xmlns="http://www.w3.org/2000/svg">
<g clip-path="url(#clip0_752_123)">
<path d="M15.805 5.55876L11.125 0.861264C10.9991 0.740541 10.8309 0.673908 10.6565 0.675631C10.482 0.677353 10.3152 0.747293 10.1917 0.87048C10.0682 0.993666 9.99779 1.16031 9.99561 1.33474C9.99342 1.50917 10.0596 1.67752 10.18 1.80376L13.6975 5.33376H0.667499C0.576573 5.32819 0.485469 5.34129 0.399796 5.37225C0.314122 5.40321 0.235693 5.45139 0.169338 5.5138C0.102982 5.57621 0.0501036 5.65155 0.0139587 5.73517C-0.0221861 5.81879 -0.0408325 5.90892 -0.0408325 6.00001C-0.0408325 6.09111 -0.0221861 6.18124 0.0139587 6.26486C0.0501036 6.34848 0.102982 6.42382 0.169338 6.48623C0.235693 6.54864 0.314122 6.59681 0.399796 6.62778C0.485469 6.65874 0.576573 6.67184 0.667499 6.66626H13.75L10.1825 10.1938C10.1146 10.2541 10.0598 10.3276 10.0213 10.4099C9.98285 10.4922 9.96157 10.5814 9.95879 10.6722C9.956 10.7629 9.97176 10.8533 10.0051 10.9378C10.0385 11.0222 10.0887 11.099 10.1527 11.1634C10.2168 11.2278 10.2933 11.2784 10.3776 11.3122C10.4618 11.346 10.5521 11.3622 10.6429 11.3599C10.7337 11.3576 10.8231 11.3368 10.9055 11.2988C10.988 11.2608 11.0618 11.2063 11.1225 11.1388L15.8025 6.50376C15.8646 6.44176 15.9139 6.36811 15.9476 6.28704C15.9812 6.20596 15.9985 6.11904 15.9985 6.03126C15.9985 5.94349 15.9812 5.85657 15.9476 5.77549C15.9139 5.69441 15.8646 5.62077 15.8025 5.55876H15.805Z" fill="#383A43"/>
</g>
<defs>
<clipPath id="clip0_752_123">
<rect width="16" height="10.6675" fill="white" transform="translate(0 0.66626)"/>
</clipPath>
</defs>
</svg>
