<svg width="16" height="12" viewBox="0 0 16 12" fill="none" xmlns="http://www.w3.org/2000/svg">
<g clip-path="url(#clip0_765_280)">
<path d="M15.8051 5.55876L11.1251 0.861264C10.9991 0.740541 10.831 0.673908 10.6565 0.675631C10.4821 0.677353 10.3153 0.747293 10.1917 0.87048C10.0682 0.993666 9.99785 1.16031 9.99567 1.33474C9.99349 1.50917 10.0597 1.67752 10.1801 1.80376L13.6976 5.33376H0.66756C0.576634 5.32819 0.48553 5.34129 0.399857 5.37225C0.314183 5.40321 0.235754 5.45139 0.169399 5.5138C0.103043 5.57621 0.0501646 5.65155 0.0140198 5.73517C-0.022125 5.81879 -0.0407715 5.90892 -0.0407715 6.00001C-0.0407715 6.09111 -0.022125 6.18124 0.0140198 6.26486C0.0501646 6.34848 0.103043 6.42382 0.169399 6.48623C0.235754 6.54864 0.314183 6.59681 0.399857 6.62778C0.48553 6.65874 0.576634 6.67184 0.66756 6.66626H13.7501L10.1826 10.1938C10.1147 10.2541 10.0598 10.3276 10.0214 10.4099C9.98291 10.4922 9.96164 10.5814 9.95885 10.6722C9.95606 10.7629 9.97182 10.8533 10.0052 10.9378C10.0385 11.0222 10.0887 11.099 10.1528 11.1634C10.2168 11.2278 10.2933 11.2784 10.3776 11.3122C10.4619 11.346 10.5522 11.3622 10.643 11.3599C10.7338 11.3576 10.8231 11.3368 10.9056 11.2988C10.988 11.2608 11.0619 11.2063 11.1226 11.1388L15.8026 6.50376C15.8647 6.44176 15.914 6.36811 15.9476 6.28704C15.9813 6.20596 15.9986 6.11904 15.9986 6.03126C15.9986 5.94349 15.9813 5.85657 15.9476 5.77549C15.914 5.69441 15.8647 5.62077 15.8026 5.55876H15.8051Z" fill="#58BE72"/>
</g>
<defs>
<clipPath id="clip0_765_280">
<rect width="16" height="10.6675" fill="white" transform="translate(0 0.66626)"/>
</clipPath>
</defs>
</svg>
