<svg width="38" height="40" viewBox="0 0 38 40" fill="none" xmlns="http://www.w3.org/2000/svg">
<path d="M7.14286 10H21.4286C21.8075 10 22.1708 9.84949 22.4387 9.58158C22.7066 9.31367 22.8571 8.95031 22.8571 8.57143C22.8571 8.19255 22.7066 7.82919 22.4387 7.56128C22.1708 7.29337 21.8075 7.14286 21.4286 7.14286H7.14286C6.76398 7.14286 6.40061 7.29337 6.13271 7.56128C5.8648 7.82919 5.71429 8.19255 5.71429 8.57143C5.71429 8.95031 5.8648 9.31367 6.13271 9.58158C6.40061 9.84949 6.76398 10 7.14286 10Z" fill="#00C86E"/>
<path d="M7.14286 15.7143H21.4286C21.8075 15.7143 22.1708 15.5638 22.4387 15.2959C22.7066 15.028 22.8571 14.6646 22.8571 14.2857C22.8571 13.9068 22.7066 13.5435 22.4387 13.2756C22.1708 13.0077 21.8075 12.8571 21.4286 12.8571H7.14286C6.76398 12.8571 6.40061 13.0077 6.13271 13.2756C5.8648 13.5435 5.71429 13.9068 5.71429 14.2857C5.71429 14.6646 5.8648 15.028 6.13271 15.2959C6.40061 15.5638 6.76398 15.7143 7.14286 15.7143Z" fill="#00C86E"/>
<path d="M12.8571 18.5714H7.14286C6.76398 18.5714 6.40061 18.7219 6.13271 18.9898C5.8648 19.2578 5.71429 19.6211 5.71429 20C5.71429 20.3789 5.8648 20.7422 6.13271 21.0102C6.40061 21.2781 6.76398 21.4286 7.14286 21.4286H12.8571C13.236 21.4286 13.5994 21.2781 13.8673 21.0102C14.1352 20.7422 14.2857 20.3789 14.2857 20C14.2857 19.6211 14.1352 19.2578 13.8673 18.9898C13.5994 18.7219 13.236 18.5714 12.8571 18.5714Z" fill="#00C86E"/>
<path d="M37.1429 16.3057C37.1444 15.7428 37.0344 15.1852 36.8191 14.6651C36.6038 14.1451 36.2875 13.6728 35.8886 13.2757C35.072 12.4965 33.9866 12.0617 32.8579 12.0617C31.7291 12.0617 30.6437 12.4965 29.8271 13.2757L28.5714 14.5314V4.28571C28.5714 3.14907 28.1199 2.05898 27.3162 1.25526C26.5124 0.451529 25.4224 0 24.2857 0H4.28571C3.14907 0 2.05898 0.451529 1.25526 1.25526C0.451529 2.05898 0 3.14907 0 4.28571V35.7143C0 36.8509 0.451529 37.941 1.25526 38.7447C2.05898 39.5485 3.14907 40 4.28571 40H24.2857C25.4224 40 26.5124 39.5485 27.3162 38.7447C28.1199 37.941 28.5714 36.8509 28.5714 35.7143V26.6514L35.8871 19.3371C36.2867 18.9401 36.6035 18.4677 36.819 17.9474C37.0346 17.427 37.1446 16.869 37.1429 16.3057ZM25.7143 35.7143C25.7143 36.0932 25.5638 36.4565 25.2959 36.7244C25.028 36.9923 24.6646 37.1429 24.2857 37.1429H4.28571C3.90683 37.1429 3.54347 36.9923 3.27556 36.7244C3.00765 36.4565 2.85714 36.0932 2.85714 35.7143V4.28571C2.85714 3.90683 3.00765 3.54347 3.27556 3.27556C3.54347 3.00765 3.90683 2.85714 4.28571 2.85714H24.2857C24.6646 2.85714 25.028 3.00765 25.2959 3.27556C25.5638 3.54347 25.7143 3.90683 25.7143 4.28571V17.3886L16.37 26.7314C16.1745 26.927 16.0401 27.1752 15.9829 27.4457L14.9086 32.5614C14.8646 32.7695 14.8675 32.9847 14.9173 33.1915C14.9671 33.3982 15.0624 33.5913 15.1963 33.7565C15.3301 33.9217 15.4992 34.055 15.6912 34.1465C15.8831 34.2381 16.0931 34.2856 16.3057 34.2857C16.4046 34.2856 16.5032 34.2755 16.6 34.2557L21.7157 33.18C21.9866 33.123 22.2349 32.9879 22.43 32.7914L25.7157 29.5057L25.7143 35.7143ZM33.8671 17.3157L20.7143 30.4714L18.1557 31.0086L18.6929 28.4514L31.8486 15.2957C32.1202 15.035 32.4821 14.8894 32.8586 14.8894C33.2351 14.8894 33.597 15.035 33.8686 15.2957C34.1364 15.5636 34.2868 15.9269 34.2868 16.3057C34.2868 16.6845 34.135 17.0478 33.8671 17.3157Z" fill="#00C86E"/>
</svg>
