<svg width="41" height="38" viewBox="0 0 41 38" fill="none" xmlns="http://www.w3.org/2000/svg">
<path d="M9.875 5.00042C9.54333 5 9.22521 5.13188 8.99083 5.36625C8.75646 5.60104 8.62458 5.91875 8.62458 6.25042V7.09354C7.17479 7.61354 6.12458 9.00677 6.12458 10.6254C6.12458 12.6815 7.81896 14.3754 9.875 14.3754C10.5802 14.3754 11.1246 14.9202 11.1246 15.6254C11.1246 16.3306 10.5802 16.8754 9.875 16.8754C9.16979 16.8754 8.62458 16.3306 8.62458 15.6254C8.62497 14.9353 8.06552 14.3754 7.375 14.3754C7.04333 14.375 6.72521 14.5069 6.49083 14.7413C6.25646 14.9756 6.12458 15.2938 6.12458 15.6254C6.12458 17.2445 7.17479 18.6377 8.62458 19.1573V20.0004C8.62458 20.3321 8.75646 20.6498 8.99083 20.8842C9.22563 21.1185 9.54333 21.2504 9.875 21.2504C10.5651 21.25 11.1246 20.6905 11.1246 20.0004V19.1577C12.5748 18.6377 13.6246 17.2445 13.6246 15.6254C13.6246 13.5694 11.9315 11.8754 9.875 11.8754C9.16979 11.8754 8.62458 11.3306 8.62458 10.6254C8.62458 9.92021 9.16979 9.375 9.875 9.375C10.5802 9.375 11.1246 9.92021 11.1246 10.6254C11.1246 10.9571 11.2565 11.2748 11.4908 11.5092C11.7256 11.7435 12.0433 11.8754 12.375 11.8754C13.0651 11.875 13.6246 11.3155 13.6246 10.6254C13.6246 9.00636 12.5748 7.61313 11.1246 7.09354V6.25042C11.125 5.56031 10.5655 5.00042 9.875 5.00042Z" fill="#00C86E"/>
<path d="M7.375 23.7504C7.04333 23.75 6.72521 23.8819 6.49083 24.1163C6.25646 24.351 6.12458 24.6689 6.12458 25.0004C6.12458 25.332 6.25646 25.6498 6.49083 25.8842C6.72563 26.1185 7.04333 26.2504 7.375 26.2504H16.75C17.4401 26.25 17.9996 25.6905 17.9996 25.0004C17.9996 24.6692 17.8681 24.351 17.6338 24.1167C17.3994 23.8823 17.0817 23.7504 16.75 23.7504H7.375Z" fill="#00C86E"/>
<path d="M7.375 28.7504C7.04333 28.7504 6.72521 28.8819 6.49083 29.1163C6.25646 29.351 6.12458 29.6689 6.12458 30.0004C6.12458 30.332 6.25646 30.6502 6.49083 30.8846C6.72563 31.119 7.04333 31.2504 7.375 31.2504H16.75C17.4401 31.25 17.9996 30.6909 17.9996 30.0004C17.9996 29.6692 17.8681 29.351 17.6338 29.1167C17.3994 28.8823 17.0817 28.7504 16.75 28.7504H7.375Z" fill="#00C86E"/>
<path d="M24.25 10.0004H36.7496C37.4548 10.0004 38 10.5452 38 11.2504V26.2504C38 26.9556 37.4548 27.5004 36.7496 27.5004H24.25C23.5448 27.5004 22.9996 26.9556 22.9996 26.2504V11.2504C22.9996 10.5452 23.5448 10.0004 24.25 10.0004ZM24.25 7.50042C22.194 7.50042 20.4996 9.19438 20.4996 11.2504V26.2504C20.4996 28.3065 22.194 30.0004 24.25 30.0004H36.7496C38.806 30.0004 40.5 28.3065 40.5 26.2504V11.2504C40.5 9.19438 38.806 7.50042 36.7496 7.50042H24.25Z" fill="#00C86E"/>
<path d="M4.24958 0C2.19354 0 0.5 1.69438 0.5 3.75042V33.7504C0.5 35.8065 2.19354 37.5 4.24958 37.5H28C30.056 37.5 31.75 35.8065 31.75 33.7504V32.5008C31.7504 32.1692 31.6185 31.851 31.3842 31.6167C31.1494 31.3819 30.8316 31.2504 30.5 31.2504C30.1684 31.2504 29.8506 31.3823 29.6163 31.6167C29.3819 31.851 29.25 32.1692 29.25 32.5008V33.7504C29.25 34.4556 28.7052 35.0008 28 35.0008H4.24958C3.54448 35.0008 3 34.4556 3 33.7504V3.75042C3 3.04521 3.54448 2.5 4.24958 2.5H28C28.7052 2.5 29.25 3.04521 29.25 3.75042V5.00042C29.25 5.33167 29.3819 5.64979 29.6163 5.88417C29.8506 6.11854 30.1684 6.25042 30.5 6.25042C30.8316 6.25042 31.1494 6.11896 31.3842 5.88458C31.6185 5.64979 31.7504 5.33208 31.75 5.00042V3.75042C31.75 1.69438 30.056 0 28 0H4.24958Z" fill="#00C86E"/>
<path d="M26.75 12.5004C26.4183 12.5004 26.1006 12.6319 25.8658 12.8667C25.6315 13.101 25.4996 13.4192 25.5 13.7508C25.5 14.0821 25.6319 14.4002 25.8663 14.6346C26.1006 14.869 26.4189 15.0004 26.75 15.0004H34.2504C34.9405 15.0004 35.5 14.4409 35.5 13.7508C35.5 13.4192 35.3685 13.101 35.1342 12.8667C34.8998 12.6323 34.5816 12.5004 34.2504 12.5004H26.75Z" fill="#00C86E"/>
<path d="M26.75 17.5004C26.4183 17.5004 26.1006 17.6319 25.8658 17.8667C25.6315 18.101 25.4996 18.4192 25.5 18.7508C25.5 19.0826 25.6319 19.4002 25.8663 19.6346C26.1006 19.869 26.4189 20.0004 26.75 20.0004H28.625C29.3151 20.0004 29.8746 19.4409 29.8746 18.7508C29.875 18.4192 29.7431 18.1015 29.5088 17.8667C29.2744 17.6323 28.9566 17.5004 28.625 17.5004H26.75Z" fill="#00C86E"/>
<path d="M26.75 22.5004C26.4188 22.5004 26.1006 22.6319 25.8663 22.8663C25.6319 23.1006 25.5 23.4188 25.5 23.7504C25.4996 24.0821 25.6315 24.3998 25.8658 24.6346C26.1006 24.869 26.4184 25.0004 26.75 25.0004H28.625C28.9567 25.0004 29.2744 24.8685 29.5088 24.6342C29.7431 24.3998 29.875 24.0816 29.8746 23.7504C29.8746 23.0599 29.3151 22.5008 28.625 22.5004H26.75Z" fill="#00C86E"/>
<path d="M32.3746 17.5004C32.0433 17.5004 31.7252 17.6323 31.4908 17.8667C31.2565 18.1015 31.125 18.4192 31.125 18.7508C31.125 19.4409 31.6845 20.0004 32.3746 20.0004H34.2504C34.9405 20.0004 35.5 19.4409 35.5 18.7508C35.5 18.4192 35.3685 18.1015 35.1342 17.8667C34.8998 17.6323 34.5816 17.5004 34.2504 17.5004H32.3746Z" fill="#00C86E"/>
<path d="M32.3746 22.5004C31.6845 22.5008 31.125 23.0599 31.125 23.7504C31.125 24.0817 31.2565 24.3998 31.4908 24.6342C31.7252 24.8685 32.0434 25.0004 32.3746 25.0004H34.2504C34.5817 25.0004 34.8998 24.8685 35.1342 24.6342C35.3685 24.3998 35.5 24.0816 35.5 23.7504C35.5 23.0599 34.9405 22.5008 34.2504 22.5004H32.3746Z" fill="#00C86E"/>
</svg>
