<svg width="31" height="40" viewBox="0 0 31 40" fill="none" xmlns="http://www.w3.org/2000/svg">
<path d="M20.4663 14.2486C20.0087 13.791 19.2667 13.791 18.809 14.2486C18.3514 14.7061 18.3514 15.4482 18.809 15.9058L20.4663 17.5631C20.6951 17.7919 20.995 17.9064 21.2949 17.9064C21.5947 17.9064 21.8947 17.7919 22.1235 17.5631L25.438 14.2486C25.8956 13.791 25.8956 13.0489 25.438 12.5913C24.9804 12.1336 24.2385 12.1337 23.7807 12.5913L21.2949 15.0771L20.4663 14.2486Z" fill="#00C86E"/>
<path d="M23.7809 18.5288L21.2949 21.0147L20.4663 20.1861C20.0087 19.7285 19.2667 19.7285 18.809 20.1861C18.3514 20.6437 18.3514 21.3857 18.809 21.8434L20.4663 23.5006C20.6951 23.7295 20.995 23.8439 21.2949 23.8439C21.5947 23.8439 21.8947 23.7295 22.1235 23.5006L25.438 20.1861C25.8956 19.7285 25.8956 18.9865 25.438 18.5288C24.9805 18.071 24.2385 18.0712 23.7809 18.5288Z" fill="#00C86E"/>
<path d="M15.2344 13.9062H5.85938C5.21219 13.9062 4.6875 14.4309 4.6875 15.0781C4.6875 15.7253 5.21219 16.25 5.85938 16.25H15.2344C15.8816 16.25 16.4062 15.7253 16.4062 15.0781C16.4062 14.4309 15.8816 13.9062 15.2344 13.9062Z" fill="#00C86E"/>
<path d="M15.2344 19.8438H5.85938C5.21219 19.8438 4.6875 20.3684 4.6875 21.0156C4.6875 21.6628 5.21219 22.1875 5.85938 22.1875H15.2344C15.8816 22.1875 16.4062 21.6628 16.4062 21.0156C16.4062 20.3684 15.8816 19.8438 15.2344 19.8438Z" fill="#00C86E"/>
<path d="M15.2344 25.7812H5.85938C5.21219 25.7812 4.6875 26.3059 4.6875 26.9531C4.6875 27.6003 5.21219 28.125 5.85938 28.125H15.2344C15.8816 28.125 16.4062 27.6003 16.4062 26.9531C16.4062 26.3059 15.8816 25.7812 15.2344 25.7812Z" fill="#00C86E"/>
<path d="M15.2344 31.7188H5.85938C5.21219 31.7188 4.6875 32.2434 4.6875 32.8906C4.6875 33.5378 5.21219 34.0625 5.85938 34.0625H15.2344C15.8816 34.0625 16.4062 33.5378 16.4062 32.8906C16.4062 32.2434 15.8816 31.7188 15.2344 31.7188Z" fill="#00C86E"/>
<path d="M29.2969 4.6875H22.6324C22.1908 3.75063 21.2437 3.125 20.1608 3.125H19.0791L19.4963 1.45609C19.5838 1.10609 19.5052 0.735078 19.2831 0.450703C19.0609 0.16625 18.7202 0 18.3594 0H12.1094C11.7485 0 11.4078 0.16625 11.1857 0.450703C10.9637 0.735156 10.885 1.10609 10.9725 1.45609L11.3898 3.125H10.308C9.22523 3.125 8.27805 3.75063 7.83641 4.6875H1.17188C0.524687 4.6875 0 5.21219 0 5.85938V38.8281C0 39.4753 0.524687 40 1.17188 40H29.2969C29.9441 40 30.4688 39.4753 30.4688 38.8281V5.85938C30.4688 5.21219 29.9441 4.6875 29.2969 4.6875ZM10.308 5.46875H12.8906C13.2515 5.46875 13.5922 5.3025 13.8143 5.01805C14.0363 4.73359 14.115 4.36266 14.0275 4.01266L13.6102 2.34375H16.8584L16.4412 4.01266C16.3537 4.36266 16.4323 4.73367 16.6544 5.01805C16.8766 5.3025 17.2173 5.46875 17.5781 5.46875H20.1608C20.3525 5.46875 20.5145 5.60602 20.5461 5.79516L20.8823 7.8125H9.58648L9.92273 5.79516C9.95422 5.60602 10.1163 5.46875 10.308 5.46875ZM28.125 37.6562H2.34375V7.03125H7.34063L7.04719 8.79172C6.99055 9.13148 7.08625 9.47898 7.30898 9.7418C7.53172 10.0046 7.85867 10.1562 8.20312 10.1562H22.2656C22.6101 10.1562 22.9371 10.0047 23.1598 9.7418C23.3824 9.47891 23.4782 9.13141 23.4216 8.79172L23.1281 7.03125H28.125V37.6562Z" fill="#00C86E"/>
</svg>
