<svg width="39" height="40" viewBox="0 0 39 40" fill="none" xmlns="http://www.w3.org/2000/svg">
<path d="M0.5 1.33333V21.9778C0.5 22.7148 1.097 23.3111 1.83333 23.3111H36.6776C37.4146 23.3111 38.011 22.7148 38.011 21.9778V1.33333C38.011 0.596998 37.4146 0 36.6776 0H1.83333C1.097 0 0.5 0.596998 0.5 1.33333ZM3.16666 2.66666H35.3443V20.6445H3.16666V2.66666Z" fill="#00C86E"/>
<path d="M19.0807 7.62823C19.7266 7.53658 20.4187 7.89967 20.4107 8.61722C20.4107 9.3535 21.0071 9.95049 21.7441 9.95049C24.549 9.52308 22.4326 5.52008 20.5891 5.17021C20.7017 4.33076 20.1543 3.4868 19.2558 3.49675C18.3586 3.48988 17.8098 4.32648 17.9225 5.16821C14.046 6.4297 14.7965 13.0318 19.0807 12.9888C19.724 12.8959 20.4191 13.259 20.4107 13.9694L20.4107 14.694C20.4183 15.4094 19.7268 15.7766 19.0807 15.6828C18.5403 15.6829 18.1002 15.2395 18.1002 14.694C18.1002 13.9576 17.5032 13.3606 16.7669 13.3606C13.9612 13.7884 16.0797 17.7955 17.9225 18.1428C17.8101 18.9817 18.3584 19.8243 19.2558 19.8144C20.154 19.8213 20.702 18.9833 20.5891 18.141C22.3259 17.5915 23.2769 15.7844 23.0773 13.9693C23.0877 11.8189 21.2088 10.1605 19.0807 10.3222C18.101 10.2873 18.0489 9.38104 18.1003 8.61711C18.1002 8.07159 18.5403 7.62823 19.0807 7.62823Z" fill="#00C86E"/>
<path d="M10.0058 10.3222H7.00584C6.26951 10.3222 5.67251 10.9192 5.67251 11.6556C5.67251 12.3919 6.26951 12.9889 7.00584 12.9889H10.0058C10.7422 12.9889 11.3392 12.3919 11.3392 11.6556C11.3392 10.9192 10.7422 10.3222 10.0058 10.3222Z" fill="#00C86E"/>
<path d="M31.5058 10.3222H28.5058C27.7688 10.3222 27.1725 10.9192 27.1725 11.6556C27.1725 12.3919 27.7688 12.9889 28.5058 12.9889H31.5058C32.2427 12.9889 32.8391 12.3919 32.8391 11.6556C32.8391 10.9192 32.2427 10.3222 31.5058 10.3222Z" fill="#00C86E"/>
<path d="M11.8379 28.2786L10.0924 26.2434C6.5509 22.3096 0.65172 27.3699 4.00592 31.4727C5.94895 33.6529 7.99807 36.9955 11.3509 36.8057L20.0436 36.8059C21.8107 36.6443 24.2568 38.9321 25.6582 39.7668C26.1479 40.1028 26.8033 40.0737 27.2623 39.6926L34.9953 33.2734C35.6684 32.7434 35.6202 31.6137 34.8976 31.1484L27.3378 25.9609C25.5191 24.4371 21.1838 25.0958 19.0071 24.966C16.7027 24.9324 14.9372 27.2342 15.5494 29.4492C14.2294 29.5286 12.7155 29.4035 11.8379 28.2786ZM19.944 32.1158C21.6863 32.1087 21.6899 29.4564 19.9439 29.4491H19.0071C17.8188 29.4435 17.8225 27.6379 19.0072 27.6327H24.1373C24.7441 27.6327 25.3274 27.8137 25.8274 28.1575L31.9342 32.3489L26.3339 36.9973C24.5312 35.7549 22.3624 33.9947 20.0435 34.1393L11.3509 34.1392C10.3769 34.1392 9.45375 33.716 8.81768 32.9765L6.02668 29.733C4.8888 28.395 6.91317 26.6459 8.06839 27.9805L9.81443 30.0156C10.9596 31.3502 12.6256 32.1158 14.3847 32.1158L19.944 32.1158Z" fill="#00C86E"/>
</svg>
