<svg width="30" height="30" viewBox="0 0 30 30" fill="none" xmlns="http://www.w3.org/2000/svg">
<g clip-path="url(#clip0_567_732)">
<path d="M15 0C8.75 0 3.75 5 3.75 11.25C3.75 19 8 25.875 14.375 29.875C14.75 30.125 15.25 30.125 15.75 29.875C22 25.75 26.25 19 26.25 11.25C26.25 5 21.25 0 15 0ZM15 16.25C12.25 16.25 10 14 10 11.25C10 8.5 12.25 6.25 15 6.25C17.75 6.25 20 8.5 20 11.25C20 14 17.75 16.25 15 16.25Z" fill="white"/>
</g>
<defs>
<clipPath id="clip0_567_732">
<rect width="30" height="30" fill="white"/>
</clipPath>
</defs>
</svg>
