<svg width="30" height="24" viewBox="0 0 30 24" fill="none" xmlns="http://www.w3.org/2000/svg">
<path d="M15 17.625C14.0314 17.625 13.0629 17.3073 12.2367 16.6635L0 7.14844V20.4375C0 21.9902 1.25918 23.25 2.8125 23.25H27.1875C28.7408 23.25 30 21.9908 30 20.4375V7.14844L17.7656 16.6699C16.9395 17.3086 15.9668 17.625 15 17.625ZM0.954492 5.51367L13.3881 15.1875C14.3367 15.9258 15.6656 15.9258 16.6143 15.1875L29.0479 5.51367C29.5957 5.04492 30 4.32422 30 3.5625C30 2.00918 28.7402 0.75 27.1875 0.75H2.8125C1.25918 0.75 0 2.00918 0 3.5625C0 4.32422 0.352149 5.04492 0.954492 5.51367Z" fill="white"/>
</svg>
