<svg width="29" height="22" viewBox="0 0 29 22" fill="none" xmlns="http://www.w3.org/2000/svg">
<rect x="1.06203" y="0.298117" width="27.4873" height="20.8156" rx="4.003" fill="url(#paint0_linear_504_5017)" stroke="#666666" stroke-width="0.533734"/>
<path fill-rule="evenodd" clip-rule="evenodd" d="M18.7457 4.71841C17.7881 2.80589 16.2837 1.30414 15.2941 0.717313C15.2286 0.679465 15.1809 0.617172 15.1614 0.544138C15.1419 0.471104 15.1522 0.393311 15.19 0.327873C15.2279 0.262435 15.2902 0.214712 15.3632 0.195203C15.4362 0.175694 15.514 0.185997 15.5795 0.223844C16.8758 0.984053 18.3829 2.72853 19.2471 4.45167C19.2679 4.48467 19.2813 4.52183 19.2861 4.56053C19.291 4.59924 19.2874 4.63854 19.2754 4.67567C19.2635 4.7128 19.2435 4.74686 19.217 4.77545C19.1904 4.80403 19.1579 4.82645 19.1218 4.84111C19.0832 4.86191 19.0402 4.8729 18.9964 4.87312C18.9444 4.87317 18.8933 4.85873 18.8491 4.8314C18.8048 4.80407 18.769 4.76495 18.7457 4.71841ZM10.076 13.8705C10.0947 16.5219 12.5887 19.6827 14.3065 20.7044C14.3397 20.7217 14.3688 20.7458 14.392 20.7751C14.4153 20.8044 14.4321 20.8382 14.4414 20.8744C14.4507 20.9107 14.4523 20.9484 14.4461 20.9853C14.4398 21.0222 14.4259 21.0573 14.4052 21.0885C14.38 21.1305 14.3445 21.1653 14.302 21.1896C14.2595 21.2139 14.2114 21.2268 14.1625 21.2272C14.1125 21.2273 14.0636 21.2135 14.0211 21.1872C12.1886 20.1069 9.68125 16.9487 9.5212 14.1212H1.07622C1.00631 14.1144 0.941442 14.0818 0.894246 14.0298C0.847049 13.9778 0.820905 13.91 0.820905 13.8398C0.820905 13.7696 0.847049 13.7018 0.894246 13.6498C0.941442 13.5978 1.00631 13.5652 1.07622 13.5584H9.57455C10.1068 11.6929 10.1068 9.71569 9.57455 7.85016H1.07622C1.00194 7.85016 0.9307 7.82066 0.878175 7.76813C0.825651 7.71561 0.796143 7.64437 0.796143 7.57009C0.796143 7.49581 0.825651 7.42457 0.878175 7.37204C0.9307 7.31952 1.00194 7.29001 1.07622 7.29001H9.5212C9.68125 4.4519 12.1993 1.30437 14.0211 0.224069C14.0865 0.186221 14.1643 0.175918 14.2374 0.195428C14.3104 0.214937 14.3727 0.26266 14.4105 0.328098C14.4484 0.393536 14.4587 0.471329 14.4392 0.544363C14.4197 0.617397 14.372 0.67969 14.3065 0.717538C12.5887 1.72581 10.0947 4.88935 10.076 7.54341C10.687 9.60819 10.687 11.8057 10.076 13.8705ZM28.5372 13.5585H20.0229C19.4906 11.693 19.4906 9.71581 20.0229 7.85029H28.5372C28.6115 7.85029 28.6827 7.82078 28.7353 7.76825C28.7878 7.71573 28.8173 7.64449 28.8173 7.57021C28.8173 7.49593 28.7878 7.42469 28.7353 7.37217C28.6827 7.31964 28.6115 7.29013 28.5372 7.29013H19.8068C19.7461 7.29083 19.6873 7.31123 19.6392 7.34828C19.591 7.38532 19.5563 7.437 19.5401 7.49552C18.9199 9.57531 18.9199 11.7908 19.5401 13.8706C19.5214 16.522 17.0274 19.6829 15.3096 20.7045C15.2756 20.7208 15.2454 20.7442 15.2211 20.773C15.1967 20.8019 15.1788 20.8356 15.1685 20.8719C15.1581 20.9082 15.1556 20.9463 15.1611 20.9837C15.1666 21.021 15.1799 21.0568 15.2002 21.0886C15.2254 21.1306 15.2609 21.1654 15.3035 21.1897C15.346 21.214 15.394 21.2269 15.443 21.2273C15.4929 21.2275 15.5419 21.2136 15.5843 21.1873C17.4062 20.1203 19.9242 16.9488 20.0842 14.1213H28.5372C28.6071 14.1145 28.672 14.0819 28.7192 14.0299C28.7664 13.9779 28.7925 13.9102 28.7925 13.8399C28.7925 13.7697 28.7664 13.702 28.7192 13.6499C28.672 13.5979 28.6071 13.5653 28.5372 13.5585ZM14.5215 1.75232C14.6039 1.69722 14.7009 1.66781 14.8001 1.66781C14.9331 1.66781 15.0606 1.72064 15.1547 1.81468C15.2487 1.90873 15.3015 2.03628 15.3015 2.16928C15.3015 2.26846 15.2721 2.36541 15.217 2.44788C15.1619 2.53035 15.0836 2.59462 14.992 2.63258C14.9003 2.67053 14.7995 2.68046 14.7022 2.66111C14.605 2.64176 14.5156 2.594 14.4455 2.52387C14.3753 2.45374 14.3276 2.36438 14.3082 2.26711C14.2889 2.16983 14.2988 2.069 14.3368 1.97737C14.3747 1.88574 14.439 1.80742 14.5215 1.75232Z" fill="#666666"/>
<defs>
<linearGradient id="paint0_linear_504_5017" x1="-1.8735" y1="0.0312496" x2="31.0846" y2="21.3806" gradientUnits="userSpaceOnUse">
<stop stop-color="#DDD9D6"/>
<stop offset="0.212761" stop-color="#8A868C"/>
<stop offset="0.548384" stop-color="#F2F3F3" stop-opacity="0.8"/>
<stop offset="0.914316" stop-color="#807C80"/>
<stop offset="1" stop-color="#A6A8AB"/>
</linearGradient>
</defs>
</svg>
