<svg width="130" height="34" viewBox="0 0 130 34" fill="none" xmlns="http://www.w3.org/2000/svg">
<path d="M7.4363 19.0971V20.7051H1.8803V12.3891H3.7523V19.0971H7.4363ZM12.7561 20.7051H10.9681V14.3931H12.7561V20.7051ZM12.9241 12.5691C12.9241 12.8971 12.8161 13.1571 12.6001 13.3491C12.3921 13.5331 12.1441 13.6251 11.8561 13.6251C11.5681 13.6251 11.3161 13.5331 11.1001 13.3491C10.8921 13.1571 10.7881 12.8971 10.7881 12.5691C10.7881 12.2411 10.8921 11.9851 11.1001 11.8011C11.3161 11.6091 11.5681 11.5131 11.8561 11.5131C12.1441 11.5131 12.3921 11.6091 12.6001 11.8011C12.8161 11.9851 12.9241 12.2411 12.9241 12.5691ZM18.671 16.6731C18.847 16.4811 19.027 16.2811 19.211 16.0731C19.403 15.8651 19.587 15.6611 19.763 15.4611C19.939 15.2531 20.103 15.0571 20.255 14.8731C20.415 14.6891 20.551 14.5291 20.663 14.3931H22.787C22.363 14.8811 21.947 15.3491 21.539 15.7971C21.139 16.2371 20.699 16.6931 20.219 17.1651C20.459 17.3811 20.707 17.6411 20.963 17.9451C21.219 18.2411 21.467 18.5491 21.707 18.8691C21.947 19.1891 22.167 19.5091 22.367 19.8291C22.567 20.1491 22.735 20.4411 22.871 20.7051H20.819C20.691 20.4971 20.543 20.2691 20.375 20.0211C20.215 19.7651 20.043 19.5131 19.859 19.2651C19.675 19.0091 19.479 18.7651 19.271 18.5331C19.071 18.3011 18.871 18.1051 18.671 17.9451V20.7051H16.883V11.6811L18.671 11.3931V16.6731ZM25.5447 17.5971C25.5447 17.0371 25.6287 16.5491 25.7967 16.1331C25.9727 15.7091 26.2007 15.3571 26.4807 15.0771C26.7607 14.7971 27.0807 14.5851 27.4407 14.4411C27.8087 14.2971 28.1847 14.2251 28.5687 14.2251C29.4647 14.2251 30.1727 14.5011 30.6927 15.0531C31.2127 15.5971 31.4727 16.4011 31.4727 17.4651C31.4727 17.5691 31.4687 17.6851 31.4607 17.8131C31.4527 17.9331 31.4447 18.0411 31.4367 18.1371H27.3807C27.4207 18.5051 27.5927 18.7971 27.8967 19.0131C28.2007 19.2291 28.6087 19.3371 29.1207 19.3371C29.4487 19.3371 29.7687 19.3091 30.0807 19.2531C30.4007 19.1891 30.6607 19.1131 30.8607 19.0251L31.1007 20.4771C31.0047 20.5251 30.8767 20.5731 30.7167 20.6211C30.5567 20.6691 30.3767 20.7091 30.1767 20.7411C29.9847 20.7811 29.7767 20.8131 29.5527 20.8371C29.3287 20.8611 29.1047 20.8731 28.8807 20.8731C28.3127 20.8731 27.8167 20.7891 27.3927 20.6211C26.9767 20.4531 26.6287 20.2251 26.3487 19.9371C26.0767 19.6411 25.8727 19.2931 25.7367 18.8931C25.6087 18.4931 25.5447 18.0611 25.5447 17.5971ZM29.7447 16.9131C29.7367 16.7611 29.7087 16.6131 29.6607 16.4691C29.6207 16.3251 29.5527 16.1971 29.4567 16.0851C29.3687 15.9731 29.2527 15.8811 29.1087 15.8091C28.9727 15.7371 28.8007 15.7011 28.5927 15.7011C28.3927 15.7011 28.2207 15.7371 28.0767 15.8091C27.9327 15.8731 27.8127 15.9611 27.7167 16.0731C27.6207 16.1851 27.5447 16.3171 27.4887 16.4691C27.4407 16.6131 27.4047 16.7611 27.3807 16.9131H29.7447ZM44.5395 20.8731C43.1875 20.8731 42.1555 20.4971 41.4435 19.7451C40.7395 18.9931 40.3875 17.9251 40.3875 16.5411C40.3875 15.8531 40.4955 15.2411 40.7115 14.7051C40.9275 14.1611 41.2235 13.7051 41.5995 13.3371C41.9755 12.9611 42.4235 12.6771 42.9435 12.4851C43.4635 12.2931 44.0275 12.1971 44.6355 12.1971C44.9875 12.1971 45.3075 12.2251 45.5955 12.2811C45.8835 12.3291 46.1355 12.3891 46.3515 12.4611C46.5675 12.5251 46.7475 12.5931 46.8915 12.6651C47.0355 12.7371 47.1395 12.7931 47.2035 12.8331L46.6635 14.3451C46.4075 14.2091 46.1075 14.0931 45.7635 13.9971C45.4275 13.9011 45.0435 13.8531 44.6115 13.8531C44.3235 13.8531 44.0395 13.9011 43.7595 13.9971C43.4875 14.0931 43.2435 14.2491 43.0275 14.4651C42.8195 14.6731 42.6515 14.9451 42.5235 15.2811C42.3955 15.6171 42.3315 16.0251 42.3315 16.5051C42.3315 16.8891 42.3715 17.2491 42.4515 17.5851C42.5395 17.9131 42.6755 18.1971 42.8595 18.4371C43.0515 18.6771 43.2995 18.8691 43.6035 19.0131C43.9075 19.1491 44.2755 19.2171 44.7075 19.2171C44.9795 19.2171 45.2235 19.2011 45.4395 19.1691C45.6555 19.1371 45.8475 19.1011 46.0155 19.0611C46.1835 19.0131 46.3315 18.9611 46.4595 18.9051C46.5875 18.8491 46.7035 18.7971 46.8075 18.7491L47.3235 20.2491C47.0595 20.4091 46.6875 20.5531 46.2075 20.6811C45.7275 20.8091 45.1715 20.8731 44.5395 20.8731ZM54.6589 15.9771C54.4989 15.9371 54.3109 15.8971 54.0949 15.8571C53.8789 15.8091 53.6469 15.7851 53.3989 15.7851C53.2869 15.7851 53.1509 15.7971 52.9909 15.8211C52.8389 15.8371 52.7229 15.8571 52.6429 15.8811V20.7051H50.8549V14.7291C51.1749 14.6171 51.5509 14.5131 51.9829 14.4171C52.4229 14.3131 52.9109 14.2611 53.4469 14.2611C53.5429 14.2611 53.6589 14.2691 53.7949 14.2851C53.9309 14.2931 54.0669 14.3091 54.2029 14.3331C54.3389 14.3491 54.4749 14.3731 54.6109 14.4051C54.7469 14.4291 54.8629 14.4611 54.9589 14.5011L54.6589 15.9771ZM57.9463 17.5971C57.9463 17.0371 58.0303 16.5491 58.1983 16.1331C58.3743 15.7091 58.6023 15.3571 58.8823 15.0771C59.1623 14.7971 59.4823 14.5851 59.8423 14.4411C60.2103 14.2971 60.5863 14.2251 60.9703 14.2251C61.8663 14.2251 62.5743 14.5011 63.0943 15.0531C63.6143 15.5971 63.8743 16.4011 63.8743 17.4651C63.8743 17.5691 63.8703 17.6851 63.8623 17.8131C63.8543 17.9331 63.8463 18.0411 63.8383 18.1371H59.7823C59.8223 18.5051 59.9943 18.7971 60.2983 19.0131C60.6023 19.2291 61.0103 19.3371 61.5223 19.3371C61.8503 19.3371 62.1703 19.3091 62.4823 19.2531C62.8023 19.1891 63.0623 19.1131 63.2623 19.0251L63.5023 20.4771C63.4063 20.5251 63.2783 20.5731 63.1183 20.6211C62.9583 20.6691 62.7783 20.7091 62.5783 20.7411C62.3863 20.7811 62.1783 20.8131 61.9543 20.8371C61.7303 20.8611 61.5063 20.8731 61.2823 20.8731C60.7143 20.8731 60.2183 20.7891 59.7943 20.6211C59.3783 20.4531 59.0303 20.2251 58.7503 19.9371C58.4783 19.6411 58.2743 19.2931 58.1383 18.8931C58.0103 18.4931 57.9463 18.0611 57.9463 17.5971ZM62.1463 16.9131C62.1383 16.7611 62.1103 16.6131 62.0623 16.4691C62.0223 16.3251 61.9543 16.1971 61.8583 16.0851C61.7703 15.9731 61.6543 15.8811 61.5103 15.8091C61.3743 15.7371 61.2023 15.7011 60.9943 15.7011C60.7943 15.7011 60.6223 15.7371 60.4783 15.8091C60.3343 15.8731 60.2143 15.9611 60.1183 16.0731C60.0223 16.1851 59.9463 16.3171 59.8903 16.4691C59.8423 16.6131 59.8063 16.7611 59.7823 16.9131H62.1463ZM69.2242 17.5011C69.2242 18.0531 69.3482 18.4971 69.5962 18.8331C69.8442 19.1691 70.2122 19.3371 70.7002 19.3371C70.8602 19.3371 71.0082 19.3331 71.1442 19.3251C71.2802 19.3091 71.3922 19.2931 71.4802 19.2771V16.0251C71.3682 15.9531 71.2202 15.8931 71.0362 15.8451C70.8602 15.7971 70.6802 15.7731 70.4962 15.7731C69.6482 15.7731 69.2242 16.3491 69.2242 17.5011ZM73.2682 20.5011C73.1082 20.5491 72.9242 20.5971 72.7162 20.6451C72.5082 20.6851 72.2882 20.7211 72.0562 20.7531C71.8322 20.7851 71.6002 20.8091 71.3602 20.8251C71.1282 20.8491 70.9042 20.8611 70.6882 20.8611C70.1682 20.8611 69.7042 20.7851 69.2962 20.6331C68.8882 20.4811 68.5442 20.2651 68.2642 19.9851C67.9842 19.6971 67.7682 19.3531 67.6162 18.9531C67.4722 18.5451 67.4002 18.0891 67.4002 17.5851C67.4002 17.0731 67.4642 16.6131 67.5922 16.2051C67.7202 15.7891 67.9042 15.4371 68.1442 15.1491C68.3842 14.8611 68.6762 14.6411 69.0202 14.4891C69.3722 14.3371 69.7722 14.2611 70.2202 14.2611C70.4682 14.2611 70.6882 14.2851 70.8802 14.3331C71.0802 14.3811 71.2802 14.4491 71.4802 14.5371V11.6811L73.2682 11.3931V20.5011ZM79.1765 20.7051H77.3885V14.3931H79.1765V20.7051ZM79.3445 12.5691C79.3445 12.8971 79.2365 13.1571 79.0205 13.3491C78.8125 13.5331 78.5645 13.6251 78.2765 13.6251C77.9885 13.6251 77.7365 13.5331 77.5205 13.3491C77.3125 13.1571 77.2085 12.8971 77.2085 12.5691C77.2085 12.2411 77.3125 11.9851 77.5205 11.8011C77.7365 11.6091 77.9885 11.5131 78.2765 11.5131C78.5645 11.5131 78.8125 11.6091 79.0205 11.8011C79.2365 11.9851 79.3445 12.2411 79.3445 12.5691ZM83.2434 12.8211L85.0314 12.5331V14.3931H87.1794V15.8811H85.0314V18.1011C85.0314 18.4771 85.0954 18.7771 85.2234 19.0011C85.3594 19.2251 85.6274 19.3371 86.0274 19.3371C86.2194 19.3371 86.4154 19.3211 86.6154 19.2891C86.8234 19.2491 87.0114 19.1971 87.1794 19.1331L87.4314 20.5251C87.2154 20.6131 86.9754 20.6891 86.7114 20.7531C86.4474 20.8171 86.1234 20.8491 85.7394 20.8491C85.2514 20.8491 84.8474 20.7851 84.5274 20.6571C84.2074 20.5211 83.9514 20.3371 83.7594 20.1051C83.5674 19.8651 83.4314 19.5771 83.3514 19.2411C83.2794 18.9051 83.2434 18.5331 83.2434 18.1251V12.8211Z" fill="#FAFAFA"/>
<path d="M129.039 11.1137L127.5 19.8295C127.241 21.3054 125.961 22.3857 124.461 22.3936L123.452 22.3989C122.956 22.4016 122.553 22.0012 122.55 21.5064L122.532 18.18C122.52 15.8487 120.613 13.9607 118.281 13.9731L108.845 14.023C108.349 14.0257 107.946 13.6253 107.943 13.1305L107.933 11.2758C107.928 10.3562 108.584 9.56857 109.489 9.40165C110.793 9.16133 111.51 9.10302 112.639 8.80352C117.132 7.519 117.529 4.31757 117.519 2.38321C117.514 1.40345 117.507 0.0603047 118.957 0.0526201C119.982 0.06117 120.938 0.574652 121.511 1.42421C122.487 2.76362 122.81 4.84029 122.418 6.96686C122.368 7.23828 122.574 7.49018 122.85 7.48871L125.964 7.47221C126.884 7.46595 127.76 7.86943 128.352 8.57353C128.947 9.27622 129.198 10.2072 129.038 11.1137L129.039 11.1137Z" fill="#00C86E"/>
<path d="M96.9004 22.5391C96.5915 22.5408 96.3426 22.7923 96.3442 23.1012L96.3876 31.2802C96.3938 32.4571 97.3535 33.4066 98.5317 33.4004L118.383 33.2952C119.561 33.289 120.51 32.3293 120.504 31.1525L120.461 22.9734C120.459 22.6645 120.208 22.4157 119.899 22.4173L96.9004 22.5391ZM117.162 29.8564L111.995 29.8837C111.519 29.8863 111.131 29.5025 111.128 29.0273C111.126 28.5521 111.51 28.1643 111.986 28.1618L117.153 28.1345C117.628 28.1319 118.016 28.5156 118.019 28.9908C118.021 29.4661 117.638 29.8538 117.162 29.8564ZM118.291 16.0691L98.4404 16.1742C97.2622 16.1805 96.3127 17.1415 96.3189 18.3184L96.3247 19.4113C96.3263 19.7202 96.5778 19.9691 96.8867 19.9674L119.885 19.8456C120.194 19.844 120.443 19.5925 120.441 19.2836L120.435 18.1906C120.429 17.0138 119.47 16.0629 118.291 16.0691Z" fill="white"/>
</svg>
