<svg width="177" height="40" viewBox="0 0 177 40" fill="none" xmlns="http://www.w3.org/2000/svg">
<path d="M39.4197 13.3748L37.5123 23.8533C37.1911 25.6278 35.6437 26.9195 33.839 26.9195H32.6246C32.0275 26.9195 31.5448 26.4351 31.5448 25.8397V21.8367C31.5448 19.0312 29.2624 16.7471 26.4552 16.7471H15.1005C14.5034 16.7471 14.0206 16.2627 14.0206 15.6673V13.4354C14.0206 12.3286 14.8145 11.3851 15.9044 11.19C17.4754 10.9091 18.3382 10.8435 19.6989 10.4903C25.1147 8.97316 25.6126 5.1232 25.6126 2.79539C25.6126 1.61635 25.6126 0 27.3584 0C28.5913 0.0168194 29.7384 0.64082 30.423 1.6668C31.5885 3.28483 31.9636 5.78588 31.4792 8.34243C31.417 8.66873 31.6625 8.97316 31.9956 8.97316H35.7429C36.8497 8.97148 37.9009 9.46261 38.609 10.3137C39.3204 11.163 39.6164 12.2849 39.418 13.3748H39.4197Z" fill="#00C86E"/>
<path d="M0.672777 26.9195C0.301068 26.9195 0 27.2206 0 27.5923V37.435C0 38.8512 1.14877 40 2.56665 40H26.4553C27.8731 40 29.0219 38.8512 29.0219 37.435V27.5923C29.0219 27.2206 28.7208 26.9195 28.3491 26.9195H0.672777ZM25.0088 35.854H18.7907C18.2171 35.854 17.7529 35.3898 17.7529 34.8179C17.7529 34.2461 18.2171 33.7819 18.7907 33.7819H25.0088C25.5807 33.7819 26.0449 34.2461 26.0449 34.8179C26.0449 35.3898 25.5807 35.854 25.0088 35.854ZM26.4553 19.2701H2.56665C1.14877 19.2701 0 20.4205 0 21.8367V23.152C0 23.5237 0.301068 23.8248 0.672777 23.8248H28.3491C28.7208 23.8248 29.0219 23.5237 29.0219 23.152V21.8367C29.0219 20.4205 27.8731 19.2701 26.4553 19.2701Z" fill="#232337"/>
<path d="M67.7928 26.1527V29.4906H56.2978V12.2282H60.1708V26.1527H67.7928Z" fill="#00C86E"/>
<path d="M73.7383 29.4906H70.0391V16.3881H73.7383V29.4906ZM74.0859 12.6018C74.0859 13.2827 73.8625 13.8224 73.4156 14.2209C72.9853 14.6029 72.4722 14.7939 71.8763 14.7939C71.2805 14.7939 70.7591 14.6029 70.3122 14.2209C69.8818 13.8224 69.6667 13.2827 69.6667 12.6018C69.6667 11.9209 69.8818 11.3895 70.3122 11.0076C70.7591 10.609 71.2805 10.4097 71.8763 10.4097C72.4722 10.4097 72.9853 10.609 73.4156 11.0076C73.8625 11.3895 74.0859 11.9209 74.0859 12.6018Z" fill="#00C86E"/>
<path d="M80.915 21.1209C81.2791 20.7224 81.6515 20.3072 82.0322 19.8755C82.4294 19.4437 82.8101 19.0202 83.1743 18.6051C83.5384 18.1733 83.8777 17.7664 84.1922 17.3845C84.5232 17.0025 84.8046 16.6704 85.0363 16.3881H89.4307C88.5535 17.4011 87.6928 18.3726 86.8487 19.3025C86.0211 20.2159 85.1108 21.1625 84.1177 22.1422C84.6142 22.5906 85.1273 23.1303 85.657 23.7614C86.1866 24.3758 86.6997 25.0152 87.1963 25.6794C87.6928 26.3437 88.148 27.0079 88.5618 27.6722C88.9755 28.3365 89.3231 28.9426 89.6045 29.4906H85.359C85.0942 29.0589 84.788 28.5856 84.4404 28.0708C84.1094 27.5394 83.7536 27.0163 83.3729 26.5015C82.9922 25.97 82.5867 25.4635 82.1563 24.982C81.7425 24.5004 81.3288 24.0935 80.915 23.7614V29.4906H77.2157V10.7585L80.915 10.1606V21.1209Z" fill="#00C86E"/>
<path d="M90.0754 23.039C90.0754 21.8765 90.2492 20.8635 90.5968 20C90.9609 19.1199 91.4327 18.3892 92.012 17.8079C92.5913 17.2267 93.2533 16.7866 93.9982 16.4877C94.7595 16.1888 95.5374 16.0393 96.3319 16.0393C98.1857 16.0393 99.6505 16.6123 100.726 17.7581C101.802 18.8874 102.34 20.5563 102.34 22.765C102.34 22.9809 102.332 23.2217 102.315 23.4874C102.299 23.7365 102.282 23.9607 102.266 24.1599H93.874C93.9568 24.9238 94.3126 25.53 94.9416 25.9783C95.5705 26.4267 96.4147 26.6509 97.474 26.6509C98.1526 26.6509 98.8146 26.5928 99.4601 26.4765C100.122 26.3437 100.66 26.1859 101.074 26.0033L101.57 29.0173C101.372 29.117 101.107 29.2166 100.776 29.3163C100.445 29.4159 100.073 29.4989 99.6588 29.5654C99.2615 29.6484 98.8312 29.7148 98.3677 29.7646C97.9043 29.8145 97.4409 29.8394 96.9774 29.8394C95.8023 29.8394 94.7761 29.665 93.8988 29.3163C93.0382 28.9675 92.3182 28.4942 91.7389 27.8964C91.1761 27.282 90.7541 26.5596 90.4727 25.7292C90.2079 24.8989 90.0754 24.0022 90.0754 23.039ZM98.765 21.6191C98.7484 21.3036 98.6905 20.9964 98.5912 20.6975C98.5084 20.3986 98.3677 20.1329 98.1691 19.9004C97.9871 19.6679 97.7471 19.4769 97.4491 19.3274C97.1678 19.178 96.8119 19.1032 96.3816 19.1032C95.9678 19.1032 95.6119 19.178 95.314 19.3274C95.0161 19.4603 94.7678 19.643 94.5692 19.8755C94.3706 20.1079 94.2133 20.3819 94.0975 20.6975C93.9981 20.9964 93.9237 21.3036 93.874 21.6191H98.765Z" fill="#00C86E"/>
<path d="M113.289 29.8394C110.491 29.8394 108.356 29.0589 106.883 27.4978C105.427 25.9368 104.698 23.7199 104.698 20.8469C104.698 19.4188 104.922 18.1484 105.369 17.0357C105.816 15.9065 106.428 14.9599 107.206 14.196C107.984 13.4155 108.911 12.826 109.987 12.4274C111.062 12.0289 112.229 11.8296 113.487 11.8296C114.215 11.8296 114.877 11.8877 115.473 12.004C116.069 12.1036 116.591 12.2281 117.037 12.3776C117.484 12.5105 117.857 12.6516 118.155 12.8011C118.453 12.9505 118.668 13.0668 118.8 13.1498L117.683 16.2884C117.153 16.0061 116.533 15.7653 115.821 15.5661C115.126 15.3668 114.331 15.2671 113.437 15.2671C112.842 15.2671 112.254 15.3668 111.675 15.5661C111.112 15.7653 110.607 16.0892 110.16 16.5375C109.73 16.9693 109.382 17.5339 109.118 18.2314C108.853 18.9289 108.72 19.7758 108.72 20.7722C108.72 21.5693 108.803 22.3166 108.969 23.0141C109.151 23.695 109.432 24.2845 109.813 24.7827C110.21 25.2809 110.723 25.6794 111.352 25.9783C111.981 26.2607 112.742 26.4018 113.636 26.4018C114.199 26.4018 114.704 26.3686 115.151 26.3022C115.597 26.2357 115.995 26.161 116.342 26.078C116.69 25.9783 116.996 25.8704 117.261 25.7542C117.526 25.6379 117.766 25.53 117.981 25.4303L119.048 28.5441C118.502 28.8762 117.733 29.1751 116.74 29.4408C115.746 29.7065 114.596 29.8394 113.289 29.8394Z" fill="#232337"/>
<path d="M129.164 19.6762C128.833 19.5931 128.444 19.5101 127.997 19.4271C127.55 19.3274 127.07 19.2776 126.557 19.2776C126.325 19.2776 126.044 19.3025 125.713 19.3523C125.399 19.3856 125.159 19.4271 124.993 19.4769V29.4906H121.294V17.0856C121.956 16.8531 122.734 16.6372 123.628 16.4379C124.538 16.222 125.547 16.1141 126.656 16.1141C126.855 16.1141 127.095 16.1307 127.376 16.1639C127.658 16.1805 127.939 16.2137 128.221 16.2635C128.502 16.2967 128.783 16.3466 129.065 16.413C129.346 16.4628 129.586 16.5292 129.785 16.6123L129.164 19.6762Z" fill="#232337"/>
<path d="M130.905 23.039C130.905 21.8765 131.078 20.8635 131.426 20C131.79 19.1199 132.262 18.3892 132.841 17.8079C133.42 17.2267 134.083 16.7866 134.827 16.4877C135.589 16.1888 136.367 16.0393 137.161 16.0393C139.015 16.0393 140.48 16.6123 141.556 17.7581C142.631 18.8874 143.169 20.5563 143.169 22.765C143.169 22.9809 143.161 23.2217 143.144 23.4874C143.128 23.7365 143.111 23.9607 143.095 24.1599H134.703C134.786 24.9238 135.142 25.53 135.771 25.9783C136.4 26.4267 137.244 26.6509 138.303 26.6509C138.982 26.6509 139.644 26.5928 140.289 26.4765C140.951 26.3437 141.489 26.1859 141.903 26.0033L142.4 29.0173C142.201 29.117 141.936 29.2166 141.605 29.3163C141.274 29.4159 140.902 29.4989 140.488 29.5654C140.091 29.6484 139.66 29.7148 139.197 29.7646C138.733 29.8145 138.27 29.8394 137.807 29.8394C136.631 29.8394 135.605 29.665 134.728 29.3163C133.867 28.9675 133.147 28.4942 132.568 27.8964C132.005 27.282 131.583 26.5596 131.302 25.7292C131.037 24.8989 130.905 24.0022 130.905 23.039ZM139.594 21.6191C139.578 21.3036 139.52 20.9964 139.42 20.6975C139.338 20.3986 139.197 20.1329 138.998 19.9004C138.816 19.6679 138.576 19.4769 138.278 19.3274C137.997 19.178 137.641 19.1032 137.211 19.1032C136.797 19.1032 136.441 19.178 136.143 19.3274C135.845 19.4603 135.597 19.643 135.398 19.8755C135.2 20.1079 135.042 20.3819 134.927 20.6975C134.827 20.9964 134.753 21.3036 134.703 21.6191H139.594Z" fill="#232337"/>
<path d="M149.177 22.8397C149.177 23.9856 149.434 24.9072 149.947 25.6047C150.46 26.3022 151.221 26.6509 152.231 26.6509C152.562 26.6509 152.868 26.6426 153.149 26.626C153.431 26.5928 153.663 26.5596 153.845 26.5264V19.7758C153.613 19.6264 153.307 19.5018 152.926 19.4022C152.562 19.3025 152.189 19.2527 151.809 19.2527C150.054 19.2527 149.177 20.4484 149.177 22.8397ZM157.544 29.0672C157.213 29.1668 156.832 29.2664 156.402 29.3661C155.971 29.4491 155.516 29.5238 155.036 29.5903C154.573 29.6567 154.093 29.7065 153.596 29.7397C153.116 29.7895 152.653 29.8145 152.206 29.8145C151.13 29.8145 150.17 29.6567 149.326 29.3412C148.482 29.0256 147.77 28.5773 147.191 27.996C146.612 27.3982 146.165 26.6841 145.85 25.8538C145.552 25.0069 145.403 24.0603 145.403 23.0141C145.403 21.9513 145.536 20.9964 145.801 20.1495C146.065 19.2859 146.446 18.5552 146.943 17.9574C147.439 17.3596 148.043 16.9029 148.755 16.5874C149.483 16.2718 150.311 16.1141 151.238 16.1141C151.751 16.1141 152.206 16.1639 152.603 16.2635C153.017 16.3632 153.431 16.5043 153.845 16.687V10.7585L157.544 10.1606V29.0672Z" fill="#232337"/>
<path d="M164.707 29.4906H161.008V16.3881H164.707V29.4906ZM165.054 12.6018C165.054 13.2827 164.831 13.8224 164.384 14.2209C163.954 14.6029 163.441 14.7939 162.845 14.7939C162.249 14.7939 161.728 14.6029 161.281 14.2209C160.85 13.8224 160.635 13.2827 160.635 12.6018C160.635 11.9209 160.85 11.3895 161.281 11.0076C161.728 10.609 162.249 10.4097 162.845 10.4097C163.441 10.4097 163.954 10.609 164.384 11.0076C164.831 11.3895 165.054 11.9209 165.054 12.6018Z" fill="#232337"/>
<path d="M168.06 13.1249L171.759 12.5271V16.3881H176.203V19.4769H171.759V24.0852C171.759 24.8657 171.892 25.4885 172.157 25.9534C172.438 26.4184 172.992 26.6509 173.82 26.6509C174.217 26.6509 174.623 26.6177 175.037 26.5513C175.467 26.4682 175.856 26.3603 176.203 26.2274L176.725 29.117C176.278 29.2997 175.781 29.4574 175.235 29.5903C174.689 29.7231 174.019 29.7895 173.224 29.7895C172.215 29.7895 171.379 29.6567 170.717 29.391C170.055 29.1087 169.525 28.7267 169.128 28.2451C168.73 27.7469 168.449 27.1491 168.284 26.4516C168.135 25.7542 168.06 24.982 168.06 24.135V13.1249Z" fill="#232337"/>
</svg>
