<svg width="177" height="40" viewBox="0 0 177 40" fill="none" xmlns="http://www.w3.org/2000/svg">
<path d="M39.4198 13.3748L37.5124 23.8533C37.1912 25.6278 35.6438 26.9195 33.8391 26.9195H32.6247C32.0276 26.9195 31.5449 26.4351 31.5449 25.8397V21.8367C31.5449 19.0312 29.2625 16.7471 26.4553 16.7471H15.1006C14.5035 16.7471 14.0208 16.2627 14.0208 15.6673V13.4354C14.0208 12.3286 14.8146 11.3851 15.9045 11.19C17.4755 10.9091 18.3383 10.8435 19.699 10.4903C25.1148 8.97316 25.6127 5.1232 25.6127 2.79539C25.6127 1.61635 25.6127 0 27.3586 0C28.5914 0.0168194 29.7385 0.64082 30.4231 1.6668C31.5886 3.28483 31.9637 5.78588 31.4793 8.34243C31.4171 8.66873 31.6626 8.97316 31.9957 8.97316H35.743C36.8498 8.97148 37.901 9.46261 38.6091 10.3137C39.3205 11.163 39.6165 12.2849 39.4181 13.3748H39.4198Z" fill="#00C86E"/>
<path d="M0.672777 26.919C0.301068 26.919 0 27.2201 0 27.5918V37.4345C0 38.8507 1.14877 39.9995 2.56665 39.9995H26.4553C27.8731 39.9995 29.0219 38.8507 29.0219 37.4345V27.5918C29.0219 27.2201 28.7208 26.919 28.3491 26.919H0.672777ZM25.0088 35.8535H18.7907C18.2171 35.8535 17.7529 35.3893 17.7529 34.8174C17.7529 34.2455 18.2171 33.7813 18.7907 33.7813H25.0088C25.5807 33.7813 26.0449 34.2455 26.0449 34.8174C26.0449 35.3893 25.5807 35.8535 25.0088 35.8535ZM26.4553 19.2695H2.56665C1.14877 19.2695 0 20.42 0 21.8362V23.1515C0 23.5232 0.301068 23.8242 0.672777 23.8242H28.3491C28.7208 23.8242 29.0219 23.5232 29.0219 23.1515V21.8362C29.0219 20.42 27.8731 19.2695 26.4553 19.2695Z" fill="#232337"/>
<path d="M67.7929 26.1522V29.4901H56.2979V12.2277H60.1709V26.1522H67.7929Z" fill="#00C86E"/>
<path d="M73.7384 29.4901H70.0391V16.3876H73.7384V29.4901ZM74.086 12.6013C74.086 13.2822 73.8625 13.8219 73.4157 14.2204C72.9853 14.6024 72.4722 14.7934 71.8764 14.7934C71.2805 14.7934 70.7591 14.6024 70.3122 14.2204C69.8819 13.8219 69.6667 13.2822 69.6667 12.6013C69.6667 11.9204 69.8819 11.389 70.3122 11.0071C70.7591 10.6085 71.2805 10.4093 71.8764 10.4093C72.4722 10.4093 72.9853 10.6085 73.4157 11.0071C73.8625 11.389 74.086 11.9204 74.086 12.6013Z" fill="#00C86E"/>
<path d="M80.915 21.1205C81.2792 20.7219 81.6516 20.3067 82.0323 19.875C82.4295 19.4432 82.8102 19.0197 83.1743 18.6046C83.5384 18.1728 83.8777 17.7659 84.1922 17.384C84.5233 17.002 84.8046 16.6699 85.0364 16.3876H89.4308C88.5535 17.4006 87.6929 18.3721 86.8487 19.302C86.0212 20.2154 85.1108 21.162 84.1177 22.1418C84.6143 22.5901 85.1274 23.1298 85.657 23.7609C86.1867 24.3753 86.6998 25.0147 87.1963 25.6789C87.6929 26.3432 88.148 27.0075 88.5618 27.6717C88.9756 28.336 89.3232 28.9421 89.6046 29.4901H85.3591C85.0943 29.0584 84.7881 28.5851 84.4405 28.0703C84.1095 27.5389 83.7536 27.0158 83.3729 26.501C82.9922 25.9696 82.5867 25.4631 82.1564 24.9815C81.7426 24.4999 81.3288 24.093 80.915 23.7609V29.4901H77.2158V10.758L80.915 10.1602V21.1205Z" fill="#00C86E"/>
<path d="M90.0755 23.0385C90.0755 21.8761 90.2493 20.8631 90.5969 19.9995C90.961 19.1194 91.4327 18.3887 92.012 17.8075C92.5913 17.2262 93.2534 16.7862 93.9982 16.4872C94.7596 16.1883 95.5375 16.0389 96.332 16.0389C98.1857 16.0389 99.6505 16.6118 100.726 17.7576C101.802 18.8869 102.34 20.5558 102.34 22.7645C102.34 22.9804 102.332 23.2212 102.315 23.4869C102.299 23.736 102.282 23.9602 102.266 24.1594H93.8741C93.9568 24.9233 94.3127 25.5295 94.9416 25.9779C95.5706 26.4262 96.4147 26.6504 97.474 26.6504C98.1526 26.6504 98.8147 26.5923 99.4602 26.4761C100.122 26.3432 100.66 26.1854 101.074 26.0028L101.571 29.0169C101.372 29.1165 101.107 29.2161 100.776 29.3158C100.445 29.4154 100.073 29.4984 99.6588 29.5649C99.2616 29.6479 98.8312 29.7143 98.3678 29.7641C97.9044 29.814 97.4409 29.8389 96.9775 29.8389C95.8023 29.8389 94.7761 29.6645 93.8989 29.3158C93.0382 28.967 92.3182 28.4938 91.7389 27.8959C91.1762 27.2815 90.7541 26.5591 90.4727 25.7288C90.2079 24.8984 90.0755 24.0017 90.0755 23.0385ZM98.765 21.6187C98.7485 21.3031 98.6906 20.9959 98.5912 20.697C98.5085 20.3981 98.3678 20.1324 98.1692 19.8999C97.9871 19.6674 97.7471 19.4764 97.4492 19.327C97.1678 19.1775 96.812 19.1028 96.3816 19.1028C95.9678 19.1028 95.612 19.1775 95.3141 19.327C95.0161 19.4598 94.7679 19.6425 94.5692 19.875C94.3706 20.1075 94.2134 20.3815 94.0975 20.697C93.9982 20.9959 93.9237 21.3031 93.8741 21.6187H98.765Z" fill="#00C86E"/>
<path d="M113.289 29.8389C110.491 29.8389 108.356 29.0584 106.883 27.4974C105.427 25.9363 104.698 23.7194 104.698 20.8464C104.698 19.4183 104.922 18.1479 105.369 17.0353C105.816 15.906 106.428 14.9594 107.206 14.1955C107.984 13.415 108.911 12.8255 109.987 12.4269C111.062 12.0284 112.229 11.8291 113.487 11.8291C114.215 11.8291 114.878 11.8872 115.473 12.0035C116.069 12.1031 116.591 12.2277 117.038 12.3771C117.484 12.51 117.857 12.6511 118.155 12.8006C118.453 12.9501 118.668 13.0663 118.8 13.1493L117.683 16.288C117.153 16.0056 116.533 15.7649 115.821 15.5656C115.126 15.3663 114.331 15.2667 113.438 15.2667C112.842 15.2667 112.254 15.3663 111.675 15.5656C111.112 15.7649 110.607 16.0887 110.16 16.5371C109.73 16.9688 109.382 17.5334 109.118 18.2309C108.853 18.9284 108.72 19.7753 108.72 20.7717C108.72 21.5688 108.803 22.3161 108.969 23.0136C109.151 23.6945 109.432 24.284 109.813 24.7822C110.21 25.2804 110.723 25.6789 111.352 25.9779C111.981 26.2602 112.742 26.4013 113.636 26.4013C114.199 26.4013 114.704 26.3681 115.151 26.3017C115.598 26.2353 115.995 26.1605 116.342 26.0775C116.69 25.9779 116.996 25.8699 117.261 25.7537C117.526 25.6374 117.766 25.5295 117.981 25.4298L119.049 28.5436C118.502 28.8757 117.733 29.1746 116.74 29.4403C115.746 29.706 114.596 29.8389 113.289 29.8389Z" fill="#232337"/>
<path d="M129.164 19.6757C128.833 19.5927 128.444 19.5096 127.997 19.4266C127.55 19.327 127.07 19.2771 126.557 19.2771C126.325 19.2771 126.044 19.302 125.713 19.3519C125.399 19.3851 125.159 19.4266 124.993 19.4764V29.4901H121.294V17.0851C121.956 16.8526 122.734 16.6367 123.628 16.4374C124.538 16.2215 125.548 16.1136 126.657 16.1136C126.855 16.1136 127.095 16.1302 127.376 16.1634C127.658 16.18 127.939 16.2132 128.221 16.2631C128.502 16.2963 128.783 16.3461 129.065 16.4125C129.346 16.4623 129.586 16.5288 129.785 16.6118L129.164 19.6757Z" fill="#232337"/>
<path d="M130.905 23.0385C130.905 21.8761 131.078 20.8631 131.426 19.9995C131.79 19.1194 132.262 18.3887 132.841 17.8075C133.421 17.2262 134.083 16.7862 134.827 16.4872C135.589 16.1883 136.367 16.0389 137.161 16.0389C139.015 16.0389 140.48 16.6118 141.556 17.7576C142.631 18.8869 143.169 20.5558 143.169 22.7645C143.169 22.9804 143.161 23.2212 143.145 23.4869C143.128 23.736 143.111 23.9602 143.095 24.1594H134.703C134.786 24.9233 135.142 25.5295 135.771 25.9779C136.4 26.4262 137.244 26.6504 138.303 26.6504C138.982 26.6504 139.644 26.5923 140.289 26.4761C140.951 26.3432 141.489 26.1854 141.903 26.0028L142.4 29.0169C142.201 29.1165 141.936 29.2161 141.605 29.3158C141.274 29.4154 140.902 29.4984 140.488 29.5649C140.091 29.6479 139.66 29.7143 139.197 29.7641C138.734 29.814 138.27 29.8389 137.807 29.8389C136.631 29.8389 135.605 29.6645 134.728 29.3158C133.867 28.967 133.147 28.4938 132.568 27.8959C132.005 27.2815 131.583 26.5591 131.302 25.7288C131.037 24.8984 130.905 24.0017 130.905 23.0385ZM139.594 21.6187C139.578 21.3031 139.52 20.9959 139.42 20.697C139.338 20.3981 139.197 20.1324 138.998 19.8999C138.816 19.6674 138.576 19.4764 138.278 19.327C137.997 19.1775 137.641 19.1028 137.211 19.1028C136.797 19.1028 136.441 19.1775 136.143 19.327C135.845 19.4598 135.597 19.6425 135.398 19.875C135.2 20.1075 135.043 20.3815 134.927 20.697C134.827 20.9959 134.753 21.3031 134.703 21.6187H139.594Z" fill="#232337"/>
<path d="M149.177 22.8392C149.177 23.9851 149.434 24.9067 149.947 25.6042C150.46 26.3017 151.221 26.6504 152.231 26.6504C152.562 26.6504 152.868 26.6421 153.149 26.6255C153.431 26.5923 153.663 26.5591 153.845 26.5259V19.7753C153.613 19.6259 153.307 19.5013 152.926 19.4017C152.562 19.302 152.19 19.2522 151.809 19.2522C150.054 19.2522 149.177 20.4479 149.177 22.8392ZM157.544 29.0667C157.213 29.1663 156.832 29.266 156.402 29.3656C155.972 29.4486 155.516 29.5234 155.036 29.5898C154.573 29.6562 154.093 29.706 153.596 29.7392C153.116 29.7891 152.653 29.814 152.206 29.814C151.13 29.814 150.17 29.6562 149.326 29.3407C148.482 29.0252 147.77 28.5768 147.191 27.9956C146.612 27.3977 146.165 26.6836 145.85 25.8533C145.552 25.0064 145.403 24.0598 145.403 23.0136C145.403 21.9508 145.536 20.9959 145.801 20.149C146.065 19.2854 146.446 18.5548 146.943 17.9569C147.439 17.3591 148.043 16.9024 148.755 16.5869C149.483 16.2714 150.311 16.1136 151.238 16.1136C151.751 16.1136 152.206 16.1634 152.603 16.2631C153.017 16.3627 153.431 16.5038 153.845 16.6865V10.758L157.544 10.1602V29.0667Z" fill="#232337"/>
<path d="M164.707 29.4901H161.008V16.3876H164.707V29.4901ZM165.055 12.6013C165.055 13.2822 164.831 13.8219 164.384 14.2204C163.954 14.6024 163.441 14.7934 162.845 14.7934C162.249 14.7934 161.728 14.6024 161.281 14.2204C160.85 13.8219 160.635 13.2822 160.635 12.6013C160.635 11.9204 160.85 11.389 161.281 11.0071C161.728 10.6085 162.249 10.4093 162.845 10.4093C163.441 10.4093 163.954 10.6085 164.384 11.0071C164.831 11.389 165.055 11.9204 165.055 12.6013Z" fill="#232337"/>
<path d="M168.06 13.1244L171.759 12.5266V16.3876H176.204V19.4764H171.759V24.0847C171.759 24.8652 171.892 25.488 172.157 25.953C172.438 26.4179 172.993 26.6504 173.82 26.6504C174.217 26.6504 174.623 26.6172 175.037 26.5508C175.467 26.4678 175.856 26.3598 176.204 26.227L176.725 29.1165C176.278 29.2992 175.781 29.4569 175.235 29.5898C174.689 29.7226 174.019 29.7891 173.224 29.7891C172.215 29.7891 171.379 29.6562 170.717 29.3905C170.055 29.1082 169.525 28.7262 169.128 28.2447C168.731 27.7465 168.449 27.1486 168.284 26.4511C168.135 25.7537 168.06 24.9815 168.06 24.1345V13.1244Z" fill="#232337"/>
</svg>
