<svg width="30" height="30" viewBox="0 0 30 30" fill="none" xmlns="http://www.w3.org/2000/svg">
<path d="M29.9531 22.6761L28.5908 28.5824C28.3995 29.4173 27.6656 30.0015 26.8061 30.0015C12.0234 30.0003 0 17.9769 0 3.1937C0 2.33472 0.584121 1.59995 1.41914 1.40952L7.32539 0.0472199C8.18555 -0.152116 9.06445 0.294368 9.42188 1.10894L12.1477 7.46636C12.4663 8.21519 12.2514 9.08765 11.6215 9.6021L8.4668 12.1351C10.4578 16.191 13.7555 19.4886 17.8125 21.4808L20.3953 18.3285C20.9044 17.6968 21.7834 17.4783 22.5322 17.8026L28.8896 20.5278C29.6543 20.93 30.1523 21.8207 29.9531 22.6761Z" fill="white"/>
</svg>
