<svg width="62" height="21" viewBox="0 0 62 21" fill="none" xmlns="http://www.w3.org/2000/svg">
<path d="M40.4469 0.412109C36.0577 0.412109 32.1351 2.68404 32.1351 6.88064C32.1351 11.6939 39.0917 12.0263 39.0917 14.4447C39.0917 15.4629 37.9234 16.3743 35.9271 16.3743C33.0949 16.3743 30.978 15.1009 30.978 15.1009L30.0721 19.3364C30.0721 19.3364 32.5107 20.4121 35.7483 20.4121C40.5471 20.4121 44.3237 18.029 44.3237 13.7601C44.3237 8.67372 37.338 8.35119 37.338 6.10706C37.338 5.30939 38.2971 4.43571 40.2872 4.43571C42.5328 4.43571 44.3645 5.36191 44.3645 5.36191L45.2512 1.27157C45.2512 1.27157 43.2575 0.412109 40.4462 0.412109H40.4469ZM0.288563 0.721047L0.182129 1.3383C0.182129 1.3383 2.02863 1.67566 3.69197 2.34915C5.83363 3.12087 5.98586 3.57069 6.34662 4.96585L10.2766 20.0933H15.5451L23.6613 0.721047H18.4052L13.1899 13.8923L11.0619 2.72729C10.867 1.44952 9.87812 0.720429 8.66836 0.720429H0.289181L0.288563 0.721047ZM25.7751 0.721047L21.652 20.0933H26.6643L30.7725 0.721047H25.7751ZM53.73 0.721047C52.5215 0.721047 51.8811 1.36734 51.4114 2.4962L44.0681 20.0933H49.3242L50.3409 17.1602H56.7442L57.3624 20.0933H62.0003L57.9546 0.721047H53.73ZM54.4138 5.95507L55.972 13.2244H51.7981L54.4144 5.95507H54.4138Z" fill="white" fill-opacity="0.7"/>
</svg>
